<svg width="18" height="18" viewBox="0 0 18 18" xmlns="http://www.w3.org/2000/svg">
    <g clip-path="url(#clip0_4120_3233)">
        <mask id="mask0_4120_3233" style="mask-type:luminance" maskUnits="userSpaceOnUse" x="0"
            y="0" width="18" height="18">
            <path d="M18 0H0V18H18V0Z" fill="white" />
        </mask>
        <g mask="url(#mask0_4120_3233)">
            <path
                d="M13.2395 13.2395C16.9855 9.49349 18.1244 4.55808 15.7832 2.21682C13.4419 -0.124441 8.50653 1.0145 4.76052 4.76052C1.0145 8.50653 -0.124441 13.442 2.21682 15.7833C4.55808 18.1245 9.49349 16.9855 13.2395 13.2395ZM12.7096 12.7096C9.43159 15.9876 5.11345 16.984 3.06471 14.9352C1.01598 12.8866 2.01247 8.56842 5.29045 5.29045C8.56842 2.01247 12.8866 1.01598 14.9353 3.06471C16.9841 5.11345 15.9875 9.43159 12.7096 12.7096Z"
            />
        </g>
    </g>
    <defs>
        <clipPath id="clip0_4120_3233">
            <rect width="18" height="18" fill="white" />
        </clipPath>
    </defs>
</svg>