<svg width="30" height="30" viewBox="0 0 30 30" fill="none" xmlns="http://www.w3.org/2000/svg">
<path d="M24.2294 5.15971C24.142 5.09001 24.0398 5.04124 23.9307 5.01717C23.8216 4.9931 23.7084 4.99435 23.5998 5.02084L11.7493 7.98346C11.5878 8.02295 11.4442 8.11566 11.3418 8.24665C11.2394 8.37765 11.184 8.5393 11.1846 8.7056V18.8989C10.6386 18.5279 9.99303 18.331 9.33295 18.3341C8.67375 18.3341 8.02936 18.5296 7.48126 18.8958C6.93316 19.262 6.50597 19.7826 6.25371 20.3916C6.00144 21.0006 5.93544 21.6708 6.06404 22.3173C6.19265 22.9638 6.51008 23.5577 6.9762 24.0238C7.44232 24.4899 8.03619 24.8074 8.68272 24.936C9.32925 25.0646 9.99939 24.9986 10.6084 24.7463C11.2174 24.494 11.738 24.0668 12.1042 23.5187C12.4704 22.9706 12.6659 22.3262 12.6659 21.6671V9.2796L23.0351 6.68731V15.9362C22.489 15.5653 21.8435 15.3684 21.1834 15.3715C20.5242 15.3715 19.8798 15.567 19.3317 15.9332C18.7836 16.2994 18.3564 16.82 18.1042 17.429C17.8519 18.038 17.7859 18.7081 17.9145 19.3547C18.0431 20.0012 18.3606 20.5951 18.8267 21.0612C19.2928 21.5273 19.8867 21.8447 20.5332 21.9733C21.1797 22.1019 21.8499 22.0359 22.4589 21.7837C23.0679 21.5314 23.5884 21.1042 23.9547 20.5561C24.3209 20.008 24.5164 19.3636 24.5164 18.7044V5.74298C24.5174 5.63009 24.492 5.51852 24.4422 5.41723C24.3924 5.31593 24.3195 5.22773 24.2294 5.15971Z" fill="url(#paint0_linear_5082_2160)"/>
<defs>
<linearGradient id="paint0_linear_5082_2160" x1="15.2582" y1="5" x2="15.2582" y2="25" gradientUnits="userSpaceOnUse">
<stop stop-color="#7042E6"/>
<stop offset="1" stop-color="#DC5CC4"/>
</linearGradient>
</defs>
</svg>
