<svg width="30" height="30" viewBox="0 0 30 30" fill="none" xmlns="http://www.w3.org/2000/svg">
<path d="M17.36 5C16.4896 5 15.6627 5.30464 15.0099 5.82688C14.3571 5.30464 13.4867 5 12.6598 5C10.5708 5 8.87354 6.69728 8.87354 8.78625C8.87354 12.7466 14.5311 16.1411 14.7923 16.2717C14.9228 16.3587 15.0969 16.3587 15.2275 16.2717C15.4886 16.1411 21.1462 12.7901 21.1462 8.78625C21.1462 6.69728 19.4489 5 17.36 5ZM16.5766 13.1383C16.4896 13.2253 16.4025 13.2253 16.272 13.2253C16.0544 13.2253 15.8368 13.0077 15.8368 12.7901C15.8368 12.6595 15.8803 12.529 15.9673 12.4855C17.6211 11.0928 18.535 9.78721 18.535 8.78625C18.535 8.13345 18.0128 7.61121 17.36 7.61121C17.0988 7.61121 16.9248 7.43713 16.9248 7.17601C16.9248 6.91488 17.0988 6.7408 17.36 6.7408C18.4915 6.7408 19.4054 7.65473 19.4054 8.78625C19.4054 10.3965 17.8822 12.0067 16.5766 13.1383Z" fill="url(#paint0_linear_5082_2024)"/>
<path d="M24.497 15.5753C23.8442 14.9225 22.7127 14.9225 22.0164 15.5317L19.057 17.9253C18.8394 18.0994 18.7524 18.3605 18.8394 18.6217C18.8829 18.7957 18.9264 19.0133 18.9264 19.2309C18.9264 20.1014 18.3172 20.9282 17.4032 21.2329L14.5744 22.1468C14.3568 22.2338 14.0957 22.1033 14.0087 21.9292C13.9216 21.7116 14.0522 21.494 14.2698 21.407L17.0986 20.4495C17.6644 20.2319 18.056 19.7532 18.056 19.1874C18.0125 18.4476 17.4032 17.8818 16.5763 17.8383H8.96033C8.69921 17.8383 8.52513 17.7077 8.39457 17.4901C8.26401 17.229 7.95937 17.0549 7.61121 17.0549H5.8704C5.39168 17.0549 5 17.4031 5 17.8383V24.1922C5 24.6274 5.39168 24.9756 5.8704 24.9756H7.61121C7.95937 24.9756 8.22049 24.8015 8.39457 24.5404C8.52513 24.3228 8.69921 24.1922 8.96033 24.1922H10.1354C10.2224 24.1922 10.3095 24.1922 10.353 24.2358L10.7882 24.4098C14.2698 25.7154 18.2301 24.8015 20.6237 22.1903L24.584 17.8383C25.1933 17.142 25.1498 16.1845 24.497 15.5753ZM9.13441 23.4089C8.78625 23.4089 8.48161 23.1042 8.48161 22.7561V19.2745C8.48161 18.9263 8.78625 18.6217 9.13441 18.6217C9.48257 18.6217 9.78721 18.9263 9.78721 19.2745V22.7561C9.78721 23.1478 9.48257 23.4089 9.13441 23.4089Z" fill="url(#paint1_linear_5082_2024)"/>
<defs>
<linearGradient id="paint0_linear_5082_2024" x1="15.0099" y1="5" x2="15.0099" y2="16.337" gradientUnits="userSpaceOnUse">
<stop stop-color="#7643E3"/>
<stop offset="1" stop-color="#D75BC6"/>
</linearGradient>
<linearGradient id="paint1_linear_5082_2024" x1="15.0075" y1="15.0801" x2="15.0075" y2="24.9999" gradientUnits="userSpaceOnUse">
<stop stop-color="#7643E3"/>
<stop offset="1" stop-color="#D75BC6"/>
</linearGradient>
</defs>
</svg>
