<svg width="30" height="30" viewBox="0 0 30 30" fill="none" xmlns="http://www.w3.org/2000/svg">
<path d="M14.0588 3.74368C14.0635 2.7649 12.607 2.74603 12.5892 3.72408V5.47292C13.078 5.4264 13.57 5.4264 14.0588 5.47292V5.21819C24.0286 6.22032 24.0331 20.324 14.0588 21.3397V21.08C13.57 21.1265 13.078 21.1265 12.5892 21.08V24.2985C11.5057 24.3328 9.7074 24.0865 8.82215 24.8521C8.12993 25.2914 6.97642 27.0291 8.42533 27.2377H18.2178C18.3296 27.237 18.4397 27.2099 18.539 27.1587C18.6384 27.1075 18.7243 27.0335 18.7897 26.9428C18.8551 26.8521 18.8982 26.7472 18.9154 26.6368C18.9327 26.5263 18.9236 26.4133 18.8889 26.307C18.6942 25.7218 18.3202 25.2128 17.8198 24.8522C17.3194 24.4917 16.7182 24.2979 16.1015 24.2985H14.0588V22.8093C25.9758 21.7262 25.9846 4.82818 14.0588 3.74368Z" fill="url(#paint0_linear_5082_2135)"/>
<path d="M19.6484 14.0112H16.4886C16.3955 16.1716 15.8959 18.2535 15.0044 19.4194C16.2298 19.0843 17.3269 18.3902 18.1545 17.4264C18.9821 16.4626 19.5024 15.2732 19.6484 14.0112Z" fill="#7243E5"/>
<path d="M13.3243 18.9099C13.8829 18.9099 14.8772 17.0631 15.0193 14.0112H11.6245C11.7666 17.0631 12.761 18.9099 13.3243 18.9099Z" fill="#7243E5"/>
<path d="M11.639 19.4145C10.7474 18.2486 10.2478 16.1667 10.1547 14.0112H7C7.14592 15.2719 7.66566 16.4601 8.49236 17.423C9.31907 18.3859 10.4149 19.0795 11.639 19.4145Z" fill="#7243E5"/>
<path d="M15.0044 7.1333C15.8959 8.29434 16.3955 10.3763 16.4886 12.5414H19.6483C19.5023 11.2795 18.9821 10.0901 18.1544 9.12629C17.3268 8.1625 16.2298 7.4684 15.0044 7.1333Z" fill="#7243E5"/>
<path d="M13.3243 7.64307C12.761 7.64307 11.7666 9.48496 11.6245 12.5417H15.0192C14.8772 9.48496 13.8829 7.64307 13.3243 7.64307Z" fill="#7243E5"/>
<path d="M11.639 7.13818C10.4149 7.4732 9.31908 8.16676 8.49237 9.12966C7.66567 10.0926 7.14593 11.2807 7 12.5414H10.1547C10.2478 10.3812 10.7474 8.30413 11.639 7.13818Z" fill="#7243E5"/>
<defs>
<linearGradient id="paint0_linear_5082_2135" x1="15.3644" y1="3" x2="15.3644" y2="27.2377" gradientUnits="userSpaceOnUse">
<stop stop-color="#7243E5"/>
<stop offset="1" stop-color="#DC5CC4"/>
</linearGradient>
</defs>
</svg>
