<svg width="30" height="30" viewBox="0 0 30 30" fill="none" xmlns="http://www.w3.org/2000/svg">
<path d="M15.7075 25.8751C14.6846 25.8751 13.6425 25.8205 12.6196 25.8933C11.8284 25.9479 11.6161 25.6566 11.674 24.9466C11.7898 23.1624 11.9056 21.3782 11.9249 19.5941C11.9249 18.9933 11.7319 18.3196 11.4038 17.8099C10.516 16.3716 9.55108 14.988 8.52823 13.6225C8.02646 12.9671 7.91067 12.3481 8.29665 11.6927C8.97211 10.5275 9.55108 9.25312 10.4967 8.32462C11.3652 7.46895 12.2143 6.64968 12.9091 5.63016C13.4302 4.86551 14.7232 5.04757 15.418 5.81221C15.6689 6.0853 16.0741 6.32198 16.4408 6.3948C17.29 6.55866 17.8497 6.94098 18.004 7.76024C18.0233 7.88768 17.9847 8.06974 18.0426 8.10615C18.8918 8.72515 19.7024 9.43518 20.648 9.90853C21.5358 10.3455 22.0375 10.9099 21.9024 11.8019C21.7287 12.9307 21.5358 14.0777 21.4779 15.2064C21.42 16.2442 21.034 17.1181 20.5901 18.0283C20.1848 18.8476 19.9339 19.7761 19.8374 20.6864C19.7024 22.07 19.7603 23.4719 19.7989 24.8555C19.8181 25.5838 19.6252 25.8933 18.7953 25.8569C17.7725 25.8022 16.7303 25.8569 15.7075 25.8751C15.7075 25.8569 15.7075 25.8569 15.7075 25.8751ZM12.2529 10.7642C13.0442 11.1283 13.6811 11.4924 14.3565 11.7291C15.1478 12.0022 15.418 11.456 15.6689 10.8916C15.9198 10.3091 15.6689 9.96315 15.1285 9.72647C14.1828 9.28953 13.2179 8.8708 12.2915 8.37924C11.7319 8.08795 11.3073 8.17898 10.9792 8.67053C10.3037 9.69006 9.68617 10.746 8.99141 11.7655C8.56683 12.3845 8.74052 12.8397 9.1651 13.4041C10.0915 14.6421 10.9599 15.9165 11.8284 17.1909C12.388 18.0283 12.7161 18.9022 12.6389 19.9218C12.5038 21.6695 12.6147 22.7397 13.747 22.7397H17.7103C17.7103 22.7397 18.2764 22.7397 18.8426 22.7397C19.4088 22.7397 19.0858 20.8593 19.1823 19.3664C19.2209 18.7474 19.4515 18.6838 19.7989 18.1922C20.841 16.7175 20.9182 15.0972 20.9182 13.2948C20.6287 13.5497 20.455 13.8046 20.2041 13.8774C19.7024 14.0231 18.8918 14.3144 18.7181 14.1141C17.9268 13.2766 16.7496 13.1492 15.8619 12.5484C15.7268 12.4574 15.5531 12.3117 15.3987 12.2935C14.453 12.2207 13.5074 12.1843 12.5038 12.1296C12.2529 12.512 12.4652 12.7304 12.9477 12.9853C13.6039 13.3494 14.2214 13.7864 14.7811 14.2779C15.0127 14.4782 15.0513 14.8969 15.1864 15.1882C13.9899 14.4782 12.9091 13.841 11.8477 13.1856C11.7319 13.1128 11.5968 12.9125 11.6354 12.8215C11.8477 12.0932 12.0792 11.365 12.2529 10.7642ZM19.6059 10.036C19.2778 9.65365 19.0848 9.23492 18.776 9.14389C18.4286 9.01645 17.7532 9.03465 17.5795 9.25312C17.0391 9.90853 16.6145 10.6732 16.2671 11.4378C16.1706 11.6563 16.3443 12.1296 16.5566 12.2753C16.8075 12.4574 17.4251 12.5666 17.5795 12.4209C18.2742 11.7109 18.8725 10.9099 19.6059 10.036ZM21.5358 11.5835C21.2077 11.1465 21.0533 10.7824 20.8024 10.6914C20.5322 10.5821 20.0304 10.6368 19.8567 10.8006C19.3357 11.3286 18.8918 11.9294 18.5251 12.5484C18.39 12.7669 18.5251 13.2038 18.6988 13.4587C18.8146 13.6225 19.3357 13.7682 19.4322 13.6771C20.1462 13.0217 20.8024 12.3117 21.5358 11.5835ZM16.5759 9.85392C16.8268 9.01645 17.1163 8.28821 17.2321 7.54177C17.2514 7.39612 16.325 6.90457 16.1899 7.0138C15.5917 7.46895 15.1285 8.08795 14.5688 8.68874C15.3215 9.10748 15.804 9.38056 16.5759 9.85392ZM14.1056 8.50668C14.4144 7.9423 14.8004 7.46895 14.9355 6.94098C15.0127 6.63148 14.7618 6.0671 14.4723 5.93966C14.2021 5.79401 13.546 5.92145 13.3337 6.13992C12.9284 6.55865 12.7161 7.14124 12.388 7.72383C13.0442 7.99692 13.546 8.23359 14.1056 8.50668Z" fill="url(#paint0_linear_5082_2042)"/>
<path fill-rule="evenodd" clip-rule="evenodd" d="M15.7112 26.0881L15.7074 26.0881C15.3936 26.0881 15.0815 26.0831 14.7707 26.0782C14.0527 26.0668 13.3418 26.0554 12.6349 26.1058C12.2265 26.134 11.8861 26.0816 11.6709 25.8516C11.4597 25.6257 11.4304 25.2922 11.4597 24.9309C11.5755 23.1468 11.6908 21.3692 11.71 19.5927C11.7098 19.0319 11.528 18.3988 11.2228 17.9245L11.2206 17.9211C10.3371 16.4899 9.37629 15.1119 8.3565 13.7505C8.09215 13.405 7.91661 13.0526 7.86664 12.686C7.81605 12.3148 7.89695 11.9489 8.1108 11.5855C8.25325 11.3397 8.393 11.0856 8.53437 10.8285C9.0479 9.89456 9.58277 8.92184 10.3456 8.17283C10.385 8.13397 10.4244 8.09522 10.4637 8.05657C11.2927 7.2404 12.0812 6.46417 12.7312 5.51042C13.0484 5.04484 13.5909 4.88464 14.1189 4.93521C14.6464 4.98573 15.193 5.24637 15.5769 5.66864C15.7988 5.91001 16.1636 6.1219 16.4823 6.18536C16.9263 6.27109 17.3169 6.41782 17.62 6.66736C17.9279 6.92087 18.1296 7.26747 18.2151 7.7208L18.2165 7.72829C18.2237 7.77606 18.2248 7.82396 18.2248 7.86272C18.2248 7.8826 18.2244 7.90222 18.2241 7.91952C18.2238 7.93749 18.2235 7.95279 18.2235 7.96712C18.2235 7.96931 18.2236 7.97348 18.2236 7.97348C18.4363 8.12973 18.644 8.28878 18.8499 8.44655C19.4654 8.91804 20.0659 9.37805 20.7439 9.71756C21.2028 9.94346 21.5853 10.2131 21.8339 10.5609C22.0878 10.9163 22.1899 11.3368 22.1147 11.8334C22.0955 11.9587 22.0759 12.0845 22.0564 12.2097C21.8997 13.2181 21.7431 14.225 21.6923 15.2171C21.6318 16.3009 21.228 17.2092 20.7833 18.1211L20.7828 18.1222C20.39 18.9162 20.1453 19.8196 20.051 20.7076C19.9294 21.9539 19.9661 23.2161 20.0029 24.4815C20.0065 24.6041 20.01 24.7268 20.0134 24.8494C20.0232 25.2169 19.9855 25.5548 19.7745 25.786C19.5573 26.024 19.2151 26.0885 18.7857 26.0697L18.7837 26.0696C18.0242 26.029 17.2567 26.0494 16.4845 26.0698C16.2272 26.0766 15.9694 26.0835 15.7112 26.0881ZM19.8374 20.6862C19.9339 19.7759 20.1848 18.8474 20.59 18.0281C21.0339 17.1178 21.4199 16.244 21.4778 15.2062C21.5293 14.2024 21.6876 13.1843 21.8442 12.1773C21.8637 12.0519 21.8831 11.9267 21.9024 11.8017C22.0375 10.9096 21.5357 10.3453 20.6479 9.90832C19.9498 9.55886 19.3253 9.0804 18.7045 8.60481C18.4844 8.4362 18.2648 8.26795 18.0426 8.10594C18.0065 8.08326 18.0079 8.00412 18.0094 7.91686C18.0103 7.86398 18.0112 7.80811 18.004 7.76003C17.8496 6.94076 17.2899 6.55844 16.4407 6.39459C16.0741 6.32176 15.6688 6.08509 15.4179 5.812C14.7231 5.04735 13.4301 4.86529 12.909 5.62994C12.247 6.60144 11.4448 7.3911 10.6193 8.20369C10.5784 8.24387 10.5376 8.2841 10.4967 8.32441C9.75852 9.04915 9.2438 9.98464 8.73221 10.9144C8.58838 11.1758 8.4448 11.4368 8.29657 11.6925C7.91059 12.3479 8.02638 12.9669 8.52816 13.6223C9.551 14.9878 10.516 16.3714 11.4037 17.8097C11.7318 18.3194 11.9248 18.993 11.9248 19.5938C11.9055 21.378 11.7897 23.1622 11.6739 24.9464C11.616 25.6564 11.8283 25.9477 12.6195 25.8931C13.3362 25.842 14.0624 25.8536 14.7847 25.8651C15.0213 25.8688 15.2574 25.8726 15.4926 25.8741C15.5643 25.8746 15.6359 25.8749 15.7074 25.8749C15.7789 25.8736 15.8505 25.8721 15.9221 25.8706C16.105 25.8665 16.2884 25.8617 16.4721 25.8568C17.2464 25.8363 18.0263 25.8156 18.7952 25.8567C19.6251 25.8931 19.8181 25.5836 19.7988 24.8553C19.7953 24.7324 19.7918 24.6093 19.7882 24.4861C19.7514 23.2227 19.7143 21.9469 19.8374 20.6862ZM9.16502 13.4038C8.74045 12.8395 8.56675 12.3843 8.99133 11.7653C9.3758 11.2011 9.73663 10.6258 10.0967 10.0516C10.3873 9.58826 10.6775 9.12566 10.9791 8.67032C11.3072 8.17876 11.7318 8.08773 12.2915 8.37902C13.0048 8.75755 13.741 9.09289 14.4737 9.42662C14.6925 9.52627 14.911 9.62578 15.1284 9.72626C15.6688 9.96293 15.9197 10.3088 15.6688 10.8914C15.4179 11.4558 15.1477 12.002 14.3565 11.7289C13.912 11.5732 13.4842 11.3623 13.0182 11.1325C12.8357 11.0425 12.6473 10.9496 12.4497 10.8559C12.3851 10.8253 12.3195 10.7947 12.2529 10.764C12.2333 10.8315 12.2131 10.9006 12.1922 10.9712C12.1208 11.2125 12.0422 11.4705 11.9606 11.738C11.8539 12.0882 11.7421 12.4547 11.6353 12.8213C11.5967 12.9123 11.7318 13.1125 11.8476 13.1854C12.7784 13.7601 13.7241 14.3209 14.7497 14.9291C14.7975 14.9574 14.8454 14.9858 14.8935 15.0143C14.9903 15.0718 15.0879 15.1296 15.1863 15.188C15.1421 15.0927 15.1082 14.9838 15.0746 14.8733C15.073 14.8681 15.0714 14.8628 15.0698 14.8576C15.0021 14.6354 14.9333 14.4094 14.781 14.2777C14.2214 13.7862 13.6038 13.3492 12.9476 12.9851C12.4652 12.7302 12.2529 12.5118 12.5038 12.1294C12.8009 12.1456 13.093 12.1602 13.3815 12.1746C14.0673 12.2088 14.7329 12.242 15.3986 12.2933C15.5233 12.308 15.6605 12.4058 15.7798 12.4908C15.8083 12.5111 15.8358 12.5306 15.8618 12.5482C16.2217 12.7917 16.6291 12.9575 17.0391 13.1243C17.6406 13.369 18.2475 13.6159 18.718 14.1139C18.8661 14.2846 19.4772 14.098 19.9651 13.949C20.0494 13.9233 20.1301 13.8987 20.2041 13.8772C20.3773 13.8269 20.5137 13.6898 20.6769 13.5258C20.6855 13.5172 20.6942 13.5085 20.703 13.4997C20.7687 13.4338 20.8391 13.3642 20.9181 13.2946C20.9181 13.393 20.9179 13.4909 20.9173 13.5882C20.9068 15.2735 20.784 16.7978 19.7988 18.192C19.4514 18.6835 19.3356 19.3754 19.297 19.9944C19.2005 21.4872 19.2005 22.9619 19.2198 24.4548C19.2198 25.1102 18.9689 25.3651 18.2549 25.3469C16.7956 25.3196 15.3364 25.323 13.8529 25.3264C13.4256 25.3274 12.9963 25.3284 12.5644 25.3286C12.4928 25.3287 12.4211 25.3287 12.3494 25.3287C12.353 25.2574 12.3565 25.1863 12.36 25.1154C12.3834 24.6409 12.4047 24.1761 12.4257 23.7187C12.4855 22.4134 12.5425 21.1675 12.6388 19.9215C12.716 18.902 12.388 18.0281 11.8283 17.1907C10.9598 15.9162 10.0914 14.6418 9.16502 13.4038ZM12.575 25.1154C12.5983 24.6424 12.6195 24.1799 12.6404 23.725C12.7001 22.4211 12.7569 21.1803 12.853 19.9379C12.9348 18.8575 12.5846 17.9367 12.0072 17.0727L12.0048 17.0692C11.1372 15.7961 10.2666 14.5184 9.3374 13.2767C9.12944 13.0002 9.00629 12.7792 8.97164 12.5704C8.93912 12.3743 8.98021 12.1604 9.16883 11.8854C9.5187 11.3719 9.84903 10.8495 10.1747 10.3306C10.2095 10.2752 10.2443 10.2198 10.279 10.1644C10.5697 9.70088 10.8583 9.24071 11.1583 8.78784C11.3024 8.5721 11.4487 8.4715 11.5949 8.4393C11.7444 8.4064 11.9368 8.43537 12.191 8.56752C12.9105 8.94924 13.6545 9.28812 14.388 9.62222C14.6058 9.72144 14.8227 9.82024 15.0378 9.91961L15.0417 9.92138C15.294 10.0318 15.439 10.1518 15.5048 10.2775C15.565 10.3926 15.5802 10.5542 15.4718 10.8065C15.3427 11.0969 15.2293 11.3278 15.0733 11.4642C15.0013 11.5272 14.9223 11.5672 14.8272 11.5819C14.7298 11.5969 14.6009 11.5874 14.4274 11.5276C13.9949 11.376 13.587 11.1748 13.1298 10.9492C12.8855 10.8286 12.627 10.7011 12.3432 10.5705L12.1156 10.4658L12.0464 10.7051C11.9606 11.0021 11.8604 11.3307 11.7548 11.677L11.753 11.683C11.6477 12.0285 11.5372 12.391 11.4314 12.7538C11.4022 12.835 11.4151 12.9133 11.4288 12.9628C11.4447 13.0203 11.4716 13.0748 11.5003 13.1214C11.5558 13.2115 11.6398 13.3071 11.7327 13.3655L11.7342 13.3665C12.6668 13.9423 13.6143 14.5042 14.6397 15.1122C14.7836 15.1975 14.929 15.2838 15.0761 15.3711L15.6715 15.7243L15.3814 15.0988C15.3412 15.0123 15.3134 14.9206 15.281 14.8137C15.264 14.7577 15.2457 14.6974 15.2237 14.6316C15.1674 14.463 15.0855 14.2587 14.9228 14.1176C14.352 13.6162 13.722 13.1705 13.0524 12.7989L13.0485 12.7968C12.8051 12.6682 12.6823 12.5731 12.6343 12.4945C12.6155 12.4637 12.6102 12.4384 12.6131 12.4097C12.6147 12.3941 12.619 12.3743 12.6284 12.3497C12.8807 12.3631 13.1288 12.3755 13.3738 12.3877C14.0564 12.4218 14.7156 12.4547 15.3763 12.5055C15.4038 12.5096 15.4509 12.5286 15.5225 12.5736C15.569 12.6028 15.6057 12.6291 15.6454 12.6575C15.6741 12.6781 15.7044 12.6998 15.741 12.7245C16.1214 12.9819 16.555 13.1581 16.9662 13.3252C17.0597 13.3632 17.1521 13.4008 17.2425 13.4387C17.7407 13.6478 18.1963 13.8744 18.5591 14.2573C18.6704 14.3816 18.8416 14.3966 18.9558 14.3951C19.0871 14.3934 19.2381 14.3671 19.3864 14.333C19.5967 14.2847 19.8326 14.2127 20.037 14.1502C20.1191 14.1252 20.1961 14.1017 20.2643 14.0819C20.4411 14.0306 20.5781 13.9186 20.6945 13.8088C20.6965 13.8069 20.6985 13.8051 20.7004 13.8032C20.6796 15.3932 20.5273 16.7899 19.623 18.0695C19.2393 18.6124 19.1217 19.3558 19.0827 19.9811C18.9857 21.4818 18.9858 22.9626 19.005 24.4562C19.0049 24.7653 18.9437 24.9172 18.8572 24.9988C18.7688 25.0822 18.6013 25.1424 18.2604 25.1337L18.2589 25.1337C16.7972 25.1064 15.3347 25.1097 13.8506 25.1131C13.4273 25.1141 13.0023 25.1151 12.575 25.1154ZM16.2671 11.4376C16.1706 11.6561 16.3443 12.1294 16.5565 12.2751L16.2671 11.4376ZM16.279 7.21487C16.0118 7.42398 15.769 7.66994 15.5243 7.93929C15.4198 8.05426 15.3112 8.17798 15.1997 8.30482C15.1045 8.41327 15.0072 8.52401 14.9089 8.63352C15.4613 8.94197 15.885 9.18399 16.4515 9.5276C16.5019 9.36718 16.5523 9.21226 16.6015 9.06137C16.7708 8.5411 16.9246 8.06879 17.0074 7.58485C16.9966 7.57557 16.9832 7.56467 16.9667 7.55226C16.8928 7.49672 16.7856 7.4312 16.6695 7.37107C16.5533 7.31087 16.4375 7.26094 16.3479 7.23293C16.3188 7.22383 16.2959 7.21815 16.279 7.21487ZM16.6404 9.6427C16.6935 9.47275 16.7474 9.30702 16.8004 9.14438C16.9811 8.5891 17.15 8.06989 17.232 7.54155C17.2513 7.39591 16.325 6.90435 16.1899 7.01358C15.7635 7.33793 15.4058 7.74549 15.0328 8.17038C14.9294 8.28826 14.8247 8.40748 14.7171 8.52663C14.6683 8.58065 14.6189 8.63466 14.5687 8.68852C14.6349 8.72531 14.6989 8.76098 14.7613 8.79576C15.3486 9.12344 15.7845 9.37213 16.3865 9.73809C16.4478 9.77534 16.5108 9.81381 16.5758 9.8537C16.5971 9.78261 16.6187 9.7123 16.6404 9.6427ZM14.3773 6.13093L14.3698 6.12686C14.3418 6.11178 14.2861 6.09587 14.1994 6.09155C14.1161 6.0874 14.0189 6.09471 13.9201 6.11277C13.8213 6.1308 13.7264 6.15852 13.6472 6.19199C13.5651 6.22666 13.5133 6.26185 13.4882 6.28778C13.3062 6.47575 13.1632 6.70512 13.0215 6.97019C12.968 7.07031 12.912 7.18113 12.8538 7.29649C12.8006 7.40167 12.7456 7.51061 12.6888 7.61865C13.1786 7.82725 13.5885 8.01856 14.0181 8.22653C14.0905 8.10341 14.1655 7.98286 14.2374 7.86748C14.2949 7.77499 14.3504 7.68582 14.4008 7.60131C14.55 7.35111 14.6673 7.12228 14.7271 6.88896C14.7487 6.80136 14.7261 6.63609 14.6457 6.4598C14.5642 6.28105 14.4578 6.16635 14.3852 6.13439L14.3773 6.13093ZM14.9354 6.94076C14.8435 7.29993 14.6355 7.63382 14.4147 7.98829C14.3109 8.15488 14.2043 8.32602 14.1056 8.50647C13.6038 8.26163 13.1485 8.04605 12.5869 7.80727C12.522 7.77972 12.4558 7.75186 12.388 7.72361C12.4234 7.66071 12.4575 7.5978 12.4906 7.5351C12.5482 7.42602 12.6029 7.31756 12.6567 7.21082C12.8585 6.81067 13.0482 6.43457 13.3336 6.13971C13.5459 5.92124 14.2021 5.79379 14.4722 5.93944C14.7617 6.06688 15.0126 6.63126 14.9354 6.94076ZM16.5565 12.2751C16.8074 12.4571 17.425 12.5664 17.5794 12.4207L16.5565 12.2751ZM17.5794 12.4207C18.06 11.9295 18.4945 11.3947 18.9595 10.8224L17.5794 12.4207ZM18.9595 10.8224C19.1666 10.5675 19.3798 10.3051 19.6058 10.0358L18.9595 10.8224Z" fill="url(#paint1_linear_5082_2042)"/>
<path d="M23.5421 18.1096C23.5421 18.0928 24.3088 17.6713 24.3088 17.6544C24.6615 16.2383 24.8455 14.8221 25.0755 13.389C25.1215 13.1361 25.0141 12.9001 24.9681 12.6472C24.7688 12.6472 24.5848 12.6472 24.3854 12.6304C24.1401 13.7768 23.9408 14.9232 23.6188 16.0697C23.5114 16.4574 23.4194 16.8789 23.3274 17.2835C23.2048 17.7724 23.2354 17.9242 23.5421 18.1096Z" fill="#7643E4"/>
<path d="M25.0958 20.8073C25.2434 20.8073 25.391 20.8073 25.5201 20.8212C25.9813 19.6919 25.8337 18.479 25.9998 17.1963C25.3725 17.4194 25.2249 17.4472 25.2065 17.4891C25.1142 17.6424 25.0773 17.8097 25.022 17.9631C24.7268 18.9251 24.5608 19.9011 24.1733 20.8491C24.4685 20.8212 24.7821 20.8073 25.0958 20.8073Z" fill="#7643E4"/>
<path d="M4.29015 12.381C4.29015 12.3669 5.06049 12.0157 5.06049 12.0017C5.41302 10.8215 5.59582 9.64136 5.81778 8.44716C5.85695 8.23642 5.7525 8.03973 5.71333 7.82899C5.51748 7.82899 5.32163 7.82899 5.12578 7.81494C4.8777 8.7703 4.68185 9.72566 4.35543 10.681C4.23792 11.0042 4.15958 11.3554 4.05513 11.6926C3.95067 12.1 3.97679 12.2264 4.29015 12.381Z" fill="#7643E4"/>
<path d="M7.82266 9.29881C7.96472 9.29881 8.10677 9.29881 8.24883 9.32222C8.71558 7.33189 8.57352 5.22449 8.71558 3C8.10677 3.37465 7.94442 3.42148 7.92413 3.51514C7.84296 3.79613 7.78208 4.0537 7.74149 4.33469C7.43709 6.02062 7.27474 7.72996 6.88916 9.39247C7.19356 9.34564 7.49797 9.29881 7.82266 9.29881Z" fill="#7643E4"/>
<defs>
<linearGradient id="paint0_linear_5082_2042" x1="14.9956" y1="5.13965" x2="14.9956" y2="25.8997" gradientUnits="userSpaceOnUse">
<stop stop-color="#7343E5"/>
<stop offset="1" stop-color="#DD5CC4"/>
</linearGradient>
<linearGradient id="paint1_linear_5082_2042" x1="14.9955" y1="4.92627" x2="14.9955" y2="26.1127" gradientUnits="userSpaceOnUse">
<stop stop-color="#7343E5"/>
<stop offset="1" stop-color="#DD5CC4"/>
</linearGradient>
</defs>
</svg>
