<svg width="30" height="30" viewBox="0 0 30 30" fill="none" xmlns="http://www.w3.org/2000/svg">
<path d="M6 11V22C6 24.201 7.794 25 9 25H24V23H9.012C8.55 22.988 8 22.806 8 22C8 21.194 8.55 21.012 9.012 21H24V7C24 5.897 23.103 5 22 5H9C7.794 5 6 5.799 6 8V11ZM9 7H22V19H8V8C8 7.194 8.55 7.012 9 7Z" fill="url(#paint0_linear_5082_2020)"/>
<path d="M14.9968 16.9999L18.3468 13.7109C18.5534 13.5122 18.7177 13.2739 18.83 13.0102C18.9422 12.7466 19.0001 12.4629 19.0001 12.1764C19.0001 11.8898 18.9422 11.6062 18.83 11.3425C18.7177 11.0788 18.5534 10.8405 18.3468 10.6419C17.9304 10.2309 17.3689 10.0004 16.7838 10.0004C16.1988 10.0004 15.6372 10.2309 15.2208 10.6419L14.9968 10.8599L14.7728 10.6409C14.3566 10.2299 13.7952 9.99951 13.2103 9.99951C12.6254 9.99951 12.0641 10.2299 11.6478 10.6409C11.4413 10.8395 11.277 11.0778 11.1647 11.3415C11.0525 11.6052 10.9946 11.8888 10.9946 12.1754C10.9946 12.4619 11.0525 12.7456 11.1647 13.0092C11.277 13.2729 11.4413 13.5112 11.6478 13.7099L14.9968 16.9999Z" fill="url(#paint1_linear_5082_2020)"/>
<defs>
<linearGradient id="paint0_linear_5082_2020" x1="15" y1="5" x2="15" y2="25" gradientUnits="userSpaceOnUse">
<stop stop-color="#7343E4"/>
<stop offset="1" stop-color="#DB5CC5"/>
</linearGradient>
<linearGradient id="paint1_linear_5082_2020" x1="14.9973" y1="9.99951" x2="14.9973" y2="16.9999" gradientUnits="userSpaceOnUse">
<stop stop-color="#7343E4"/>
<stop offset="1" stop-color="#DB5CC5"/>
</linearGradient>
</defs>
</svg>
