<svg width="30" height="30" viewBox="0 0 30 30" fill="none" xmlns="http://www.w3.org/2000/svg">
<path d="M14.9608 13.9108C13.0658 13.8816 11.5206 12.2781 11.608 10.4413C11.6663 8.63373 13.2116 7.11768 14.99 7.11768C16.8559 7.11768 18.4303 8.69204 18.4303 10.558C18.4303 12.4239 16.8559 13.9399 14.9608 13.9108Z" fill="url(#paint0_linear_5082_2073)"/>
<path d="M24.0282 6.00966C23.241 6.12628 22.9786 6.94261 22.9203 7.40909C22.862 7.87557 23.0661 8.42951 23.1535 8.98346C23.5617 12.103 21.6958 14.552 18.7511 14.6104C16.273 14.6687 13.7948 14.6687 11.3166 14.6104C8.75101 14.552 6.85594 12.5695 6.8851 9.97472C6.8851 9.15839 7.23496 8.31289 7.11834 7.52571C7.06003 6.97177 7.06003 6.15543 6.15622 6.03881C5.25242 5.92219 4.8151 6.44698 4.61101 6.91346C3.15327 10.1205 4.37777 14.5229 7.49735 16.0681C9.33411 17.0011 9.97552 18.2256 10.2671 20.004C10.4712 21.2285 10.8502 22.4239 11.0834 23.6484C12.3371 23.9108 13.649 24.0565 14.9902 24.0565C16.4479 24.0565 17.8473 23.8816 19.1593 23.5609C19.2468 22.074 19.48 20.5288 19.9757 18.9836C20.1797 18.3713 20.7337 16.9719 21.6375 16.5637C25.2818 14.9311 27.002 10.4412 25.3985 6.85515C25.2235 6.44698 24.8154 5.92219 24.0282 6.00966ZM15.2526 21.5784C15.1942 21.6075 15.1359 21.6075 15.0776 21.5784C14.9902 21.5201 12.6869 20.1498 12.6869 18.5463C12.6869 17.7008 13.3866 17.0011 14.2321 17.0011C14.582 17.0011 14.9319 17.1177 15.1942 17.3509C15.4566 17.1177 15.8065 17.0011 16.1564 17.0011C17.0019 17.0011 17.7016 17.7008 17.7016 18.5463C17.6724 20.1498 15.3692 21.5201 15.2526 21.5784Z" fill="url(#paint1_linear_5082_2073)"/>
<defs>
<linearGradient id="paint0_linear_5082_2073" x1="15.0174" y1="7.11768" x2="15.0174" y2="13.9112" gradientUnits="userSpaceOnUse">
<stop stop-color="#7243E5"/>
<stop offset="1" stop-color="#DE5CC4"/>
</linearGradient>
<linearGradient id="paint1_linear_5082_2073" x1="15" y1="6" x2="15" y2="24.0565" gradientUnits="userSpaceOnUse">
<stop stop-color="#7243E5"/>
<stop offset="1" stop-color="#DE5CC4"/>
</linearGradient>
</defs>
</svg>
