<svg width="30" height="30" viewBox="0 0 30 30" fill="none" xmlns="http://www.w3.org/2000/svg">
<path d="M22.106 16.333L22.0984 16.3151L22.1026 16.3116L22.0464 16.202L19.0312 10.3415C18.9488 10.1885 18.6624 9.73926 18.1113 9.73926H8.01025C7.39528 9.73926 7.08751 10.3577 7.08069 10.3722L4.11941 16.1278L4.11827 16.1305L4.09726 16.171C4.04758 16.2713 3.93742 16.5437 4.04672 16.8127C4.79911 18.0595 6.14035 18.896 7.68005 18.896C9.18539 18.896 10.4985 18.0946 11.2594 16.8939C11.3758 16.6211 11.2137 16.2794 11.2137 16.2794L8.412 10.8331L8.38474 10.7803C8.34698 10.6916 8.31347 10.5227 8.61386 10.5227H12.2872C12.3914 10.5261 12.6819 10.5789 12.6819 11.0753V23.9777C12.6751 24.1055 12.6276 24.3644 12.3673 24.5284L10.5283 25.6894C10.5283 25.6894 10.046 26.0001 10.5283 26.0001H15.7465C16.1023 26.0001 15.7465 25.7483 15.7465 25.7483L13.8522 24.5646C13.8513 24.564 13.8513 24.5635 13.8505 24.5629C13.539 24.3681 13.4808 24.1229 13.4723 23.9992V11.0203C13.4723 10.5716 13.7875 10.5253 13.8982 10.5227H17.4901C17.584 10.5244 17.8705 10.5563 17.6902 10.9084L14.8774 16.3739C14.8774 16.3739 14.7894 16.589 14.8885 16.8249C15.6417 18.0647 16.9779 18.896 18.5127 18.896C20.0502 18.896 21.3911 18.063 22.1435 16.8191C22.2187 16.6185 22.1341 16.3959 22.106 16.333ZM10.304 16.1609L10.3043 16.1612L10.3429 16.2368C10.4026 16.3626 10.4926 16.602 10.3043 16.602L4.96435 16.6014C4.78719 16.6014 4.82239 16.4359 4.87889 16.3023L4.9635 16.1383L4.96435 16.1368L7.50998 11.189C7.50998 11.189 7.64002 10.9838 7.74563 11.189L10.304 16.1609ZM15.8064 16.2209L15.8442 16.1476C15.8442 16.1473 15.8456 16.1447 15.8456 16.1447L18.3344 11.3072C18.3378 11.302 18.5068 10.9739 18.6788 11.3081L21.1603 16.1305C21.2117 16.2342 21.3687 16.6026 21.0004 16.6026L16.0446 16.6017C16.0438 16.6017 16.0438 16.6017 16.0438 16.6017C15.6826 16.6014 15.7479 16.3504 15.8064 16.2209Z" fill="url(#paint0_linear_5082_2029)"/>
<path d="M20.7389 4C17.8307 4 15.478 6.35269 15.478 9.26087C15.478 12.1691 17.8307 14.5217 20.7389 14.5217C23.6471 14.5217 25.9998 12.1691 25.9998 9.26087C25.9671 6.35269 23.6144 4 20.7389 4Z" fill="url(#paint1_linear_5082_2029)"/>
<path d="M20.3142 8.86889H21.1311C21.8827 8.86889 22.5035 9.48974 22.5035 10.2413C22.5035 10.9928 21.8827 11.6137 21.1311 11.6137V12.2999C21.1311 12.5286 20.9351 12.7574 20.7063 12.7574C20.4776 12.7574 20.2489 12.5613 20.2489 12.3326C20.2489 12.3326 20.2489 12.3326 20.2489 12.2999V11.6137H19.3339C19.1052 11.6137 18.8765 11.4176 18.8765 11.1562C18.8765 10.8948 19.0725 10.6988 19.3339 10.6988H21.1311C21.3925 10.6988 21.6213 10.5027 21.6213 10.2086C21.6213 9.9472 21.4252 9.71847 21.1311 9.71847H20.3142C19.53 9.71847 18.8765 9.06495 18.8765 8.28072C18.8765 7.52916 19.4646 6.87564 20.2489 6.84296V6.22212C20.2489 5.99338 20.4449 5.76465 20.6737 5.76465C20.9024 5.76465 21.1311 5.96071 21.1311 6.18944C21.1311 6.18944 21.1311 6.18944 21.1311 6.22212V6.90832H22.1441C22.3728 6.90832 22.5689 7.10437 22.5689 7.36578C22.5689 7.59452 22.3728 7.79057 22.1441 7.79057H20.3142C20.0201 7.79057 19.7587 8.05198 19.7587 8.34607C19.7587 8.64015 20.0201 8.86889 20.3142 8.86889Z" fill="white"/>
<defs>
<linearGradient id="paint0_linear_5082_2029" x1="13.087" y1="9.73926" x2="13.087" y2="26.0001" gradientUnits="userSpaceOnUse">
<stop stop-color="#7744E2"/>
<stop offset="1" stop-color="#D65AC6"/>
</linearGradient>
<linearGradient id="paint1_linear_5082_2029" x1="20.7389" y1="4" x2="20.7389" y2="14.5217" gradientUnits="userSpaceOnUse">
<stop stop-color="#7E45E0"/>
<stop offset="1" stop-color="#CE58C8"/>
</linearGradient>
</defs>
</svg>
