<svg width="30" height="30" viewBox="0 0 30 30" fill="none" xmlns="http://www.w3.org/2000/svg">
<path d="M18.4852 27C15.2852 27 10.0656 26.9475 10.0131 26.9475H9.96066H9.9082C9.85574 26.9475 8.91148 26.7377 7.96721 26.0033C7.04918 25.3213 6 24.0361 6 21.8328C6 21.3344 6.28852 20.1279 8.64918 15.7738C9.75082 13.7541 10.8525 11.8656 11.1672 11.341V7.40656C11.0361 7.3541 10.9049 7.27541 10.7738 7.17049C10.3803 6.88197 9.9082 6.30492 9.9082 5.28197C9.9082 4.25902 10.3541 3.68197 10.7475 3.39344C11.1672 3.07869 11.5869 3 11.6393 3H11.6918H18.0656C18.1443 3 18.6951 3 19.2459 3.28852C19.5607 3.47213 19.823 3.7082 20.0328 3.99672C20.2689 4.36393 20.3738 4.78361 20.3738 5.28197C20.3738 6.59344 19.7705 7.19672 19.2197 7.43279V11.341C19.5082 11.8393 20.5836 13.6754 21.659 15.6951C22.3934 17.059 22.9967 18.2656 23.4426 19.2098C24.0197 20.4951 24.3082 21.3344 24.3607 21.859C24.4656 23.0393 24.3344 23.9836 24.0197 24.7705C23.7836 25.3213 23.4426 25.7934 22.9967 26.1607C22.4984 26.5803 21.8689 26.8426 21.1082 26.9738C20.977 26.9738 20.8459 27 18.4852 27ZM10.0918 25.8197C10.7213 25.8197 15.4951 25.8721 18.4852 25.8721C20.3738 25.8721 20.7934 25.8459 20.8721 25.8459C22.6295 25.5049 23.3639 24.2721 23.1803 21.9377C23.1541 21.518 22.7607 20.2066 20.6098 16.2197C19.3508 13.9115 18.118 11.8131 18.118 11.7869L18.0393 11.6295V6.33115L18.6426 6.38361C18.6689 6.38361 18.8 6.35738 18.9049 6.27869C19.1148 6.12131 19.2197 5.7541 19.2197 5.25574C19.2197 4.75738 19.0623 4.44262 18.7213 4.25902C18.4328 4.10164 18.118 4.10164 18.0918 4.10164H11.7705C11.6918 4.12787 11.5607 4.18033 11.4033 4.28525C11.1672 4.49508 11.0361 4.80984 11.0361 5.25574C11.0361 5.70164 11.1672 6.04262 11.4295 6.22623C11.6131 6.35738 11.7967 6.38361 11.7967 6.38361L12.2951 6.43607V11.6295L12.2164 11.7607C12.2164 11.7869 10.9049 13.9377 9.6459 16.2721C7.31148 20.6 7.12787 21.623 7.12787 21.8328C7.12787 23.2229 7.62623 24.2984 8.59672 25.059C9.25246 25.5836 9.9082 25.7672 10.0918 25.8197Z" fill="url(#paint0_linear_5082_2003)"/>
<path d="M18.6162 14.6459L11.9539 14.6196C11.9539 14.6196 8.33427 20.0754 8.15066 22.4098C8.01951 24.9016 11.4293 25.1114 11.4293 25.1114C11.4293 25.1114 18.1703 25.1377 19.9277 25.1114C21.6589 25.0852 22.472 23.7475 22.472 22.4885C22.4457 21.2557 18.6162 14.6459 18.6162 14.6459ZM11.6654 18.3967C11.6654 17.7672 12.19 17.2426 12.8195 17.2426C13.449 17.2426 13.9736 17.7672 13.9736 18.3967C13.9736 19.0262 13.449 19.5508 12.8195 19.5508C12.19 19.5508 11.6654 19.0524 11.6654 18.3967ZM13.2654 23.5377C12.7408 23.5377 12.3474 23.118 12.3474 22.6196C12.3474 22.095 12.7671 21.7016 13.2654 21.7016C13.79 21.7016 14.1834 22.1213 14.1834 22.6196C14.1834 23.118 13.7638 23.5377 13.2654 23.5377ZM17.908 22.6196C17.0162 22.6196 16.308 21.8852 16.308 21.0196C16.308 20.1278 17.0425 19.4196 17.908 19.4196C18.7998 19.4196 19.508 20.1541 19.508 21.0196C19.508 21.9114 18.7998 22.6196 17.908 22.6196Z" fill="url(#paint1_linear_5082_2003)"/>
<defs>
<linearGradient id="paint0_linear_5082_2003" x1="15.1981" y1="3" x2="15.1981" y2="27" gradientUnits="userSpaceOnUse">
<stop stop-color="#6D42E7"/>
<stop offset="1" stop-color="#E55EC2"/>
</linearGradient>
<linearGradient id="paint1_linear_5082_2003" x1="15.3095" y1="14.6196" x2="15.3095" y2="25.1231" gradientUnits="userSpaceOnUse">
<stop stop-color="#6D42E7"/>
<stop offset="1" stop-color="#E55EC2"/>
</linearGradient>
</defs>
</svg>
