<svg width="30" height="30" viewBox="0 0 30 30" fill="none" xmlns="http://www.w3.org/2000/svg">
<path d="M17.2357 10.5365C16.9953 9.89138 16.6103 9.30985 16.1103 8.83657C15.6103 8.36328 15.0085 8.01082 14.3511 7.80621C13.6937 7.6016 12.9982 7.55029 12.3179 7.6562C11.6376 7.76212 10.9906 8.02245 10.4266 8.41722C9.86249 8.812 9.39634 9.33073 9.06387 9.93362C8.7314 10.5365 8.54144 11.2076 8.50856 11.8953C8.47568 12.583 8.60076 13.2691 8.8742 13.9009C9.14764 14.5328 9.56218 15.0936 10.086 15.5404C10.2493 15.6801 10.4572 15.7568 10.6721 15.7568C10.8365 15.7554 10.9979 15.7119 11.1409 15.6306C11.3806 15.4825 11.6531 15.3957 11.9343 15.3781C12.1275 15.3658 12.3115 15.2916 12.4593 15.1666C12.607 15.0416 12.7106 14.8723 12.7547 14.6839C12.9453 13.8843 13.3885 13.1674 14.0187 12.6396C14.6488 12.1117 15.4323 11.8011 16.253 11.7537H16.3251C16.481 11.7641 16.6369 11.7339 16.7775 11.6659C16.9182 11.598 17.0388 11.4946 17.1275 11.366C17.2112 11.2468 17.2648 11.109 17.2836 10.9646C17.3025 10.8201 17.286 10.6733 17.2357 10.5365Z" fill="white"/>
<path d="M13.0159 6.7048C12.7767 6.7048 12.5474 6.60981 12.3783 6.44072C12.2092 6.27164 12.1143 6.04232 12.1143 5.8032V4.9016C12.1143 4.66248 12.2092 4.43315 12.3783 4.26407C12.5474 4.09499 12.7767 4 13.0159 4C13.255 4 13.4843 4.09499 13.6534 4.26407C13.8225 4.43315 13.9175 4.66248 13.9175 4.9016V5.8032C13.9175 6.04232 13.8225 6.27164 13.6534 6.44072C13.4843 6.60981 13.255 6.7048 13.0159 6.7048Z" fill="#7443E4"/>
<path d="M8.55348 8.55322C8.43482 8.55391 8.3172 8.53117 8.20735 8.4863C8.0975 8.44143 7.99759 8.37532 7.91334 8.29176L7.28223 7.65162C7.13452 7.47915 7.05734 7.25729 7.0661 7.03037C7.07487 6.80346 7.16893 6.58822 7.3295 6.42765C7.49007 6.26708 7.70532 6.17301 7.93223 6.16425C8.15914 6.15548 8.381 6.23266 8.55348 6.38037L9.19362 7.01149C9.27812 7.0953 9.34519 7.19502 9.39097 7.30489C9.43674 7.41476 9.46031 7.5326 9.46031 7.65162C9.46031 7.77065 9.43674 7.88849 9.39097 7.99836C9.34519 8.10823 9.27812 8.20794 9.19362 8.29176C9.10937 8.37532 9.00946 8.44143 8.89961 8.4863C8.78976 8.53117 8.67214 8.55391 8.55348 8.55322Z" fill="#7443E4"/>
<path d="M6.70505 13.0161H5.80345C5.56434 13.0161 5.33501 12.9211 5.16593 12.752C4.99685 12.5829 4.90186 12.3536 4.90186 12.1145C4.90186 11.8754 4.99685 11.646 5.16593 11.477C5.33501 11.3079 5.56434 11.2129 5.80345 11.2129H6.70505C6.94417 11.2129 7.1735 11.3079 7.34258 11.477C7.51166 11.646 7.60665 11.8754 7.60665 12.1145C7.60665 12.3536 7.51166 12.5829 7.34258 12.752C7.1735 12.9211 6.94417 13.0161 6.70505 13.0161Z" fill="#7443E4"/>
<path d="M17.524 8.55294C17.4054 8.55363 17.2877 8.53089 17.1779 8.48602C17.068 8.44115 16.9681 8.37504 16.8839 8.29148C16.7994 8.20766 16.7323 8.10795 16.6865 7.99808C16.6408 7.88821 16.6172 7.77037 16.6172 7.65134C16.6172 7.53232 16.6408 7.41448 16.6865 7.30461C16.7323 7.19474 16.7994 7.09502 16.8839 7.01121L17.524 6.38009C17.6048 6.28571 17.7043 6.20905 17.8162 6.15494C17.928 6.10082 18.0499 6.07041 18.174 6.06561C18.2982 6.06082 18.422 6.08174 18.5377 6.12707C18.6534 6.17239 18.7585 6.24115 18.8463 6.32901C18.9342 6.41688 19.003 6.52196 19.0483 6.63766C19.0936 6.75335 19.1145 6.87717 19.1097 7.00134C19.1049 7.12551 19.0745 7.24734 19.0204 7.3592C18.9663 7.47106 18.8896 7.57052 18.7953 7.65134L18.1641 8.29148C18.0799 8.37504 17.98 8.44115 17.8701 8.48602C17.7603 8.53089 17.6427 8.55363 17.524 8.55294Z" fill="#7443E4"/>
<path d="M24.7368 26.4317C23.791 26.438 22.8785 26.0833 22.1852 25.4399C22.0026 25.2491 21.7827 25.0979 21.5392 24.9955C21.2958 24.8931 21.0338 24.8419 20.7697 24.8449C20.5044 24.8428 20.2414 24.8944 19.9966 24.9967C19.7518 25.0989 19.5302 25.2497 19.3452 25.4399C18.6501 26.0773 17.7413 26.4309 16.7982 26.4309C15.8551 26.4309 14.9463 26.0773 14.2512 25.4399C14.0662 25.2497 13.8446 25.0989 13.5998 24.9967C13.355 24.8944 13.092 24.8428 12.8267 24.8449C12.5627 24.8429 12.3011 24.8947 12.0578 24.997C11.8144 25.0993 11.5944 25.25 11.4111 25.4399C10.716 26.0773 9.80722 26.4309 8.86413 26.4309C7.92103 26.4309 7.01222 26.0773 6.31711 25.4399C6.13446 25.2491 5.91458 25.0979 5.6711 24.9955C5.42761 24.8931 5.16571 24.8419 4.9016 24.8449C4.66248 24.8449 4.43315 24.7499 4.26407 24.5808C4.09499 24.4117 4 24.1824 4 23.9433C4 23.7041 4.09499 23.4748 4.26407 23.3057C4.43315 23.1366 4.66248 23.0417 4.9016 23.0417C5.84509 23.0331 6.75563 23.3882 7.44411 24.0334C7.62952 24.2218 7.85056 24.3714 8.09435 24.4735C8.33814 24.5756 8.59981 24.6282 8.86413 24.6282C9.12844 24.6282 9.39011 24.5756 9.6339 24.4735C9.87769 24.3714 10.0987 24.2218 10.2841 24.0334C10.9792 23.396 11.8881 23.0424 12.8312 23.0424C13.7743 23.0424 14.6831 23.396 15.3782 24.0334C15.5615 24.2234 15.7815 24.374 16.0248 24.4763C16.2681 24.5786 16.5297 24.6304 16.7937 24.6285C17.059 24.6306 17.322 24.5789 17.5668 24.4767C17.8116 24.3744 18.0332 24.2236 18.2182 24.0334C18.9133 23.396 19.8221 23.0424 20.7652 23.0424C21.7083 23.0424 22.6171 23.396 23.3122 24.0334C23.4972 24.2236 23.7188 24.3744 23.9636 24.4767C24.2085 24.5789 24.4715 24.6306 24.7368 24.6285C24.9759 24.6285 25.2052 24.7235 25.3743 24.8925C25.5434 25.0616 25.6384 25.2909 25.6384 25.5301C25.6384 25.7692 25.5434 25.9985 25.3743 26.1676C25.2052 26.3367 24.9759 26.4317 24.7368 26.4317Z" fill="#D95BC5"/>
<path d="M9.40962 14.7561C8.99233 15.2008 8.68777 15.7391 8.52148 16.3258C8.35519 16.9125 8.33202 17.5306 8.45392 18.1281C8.65045 18.9841 9.13247 19.7478 9.82069 20.2934C10.5089 20.8391 11.3624 21.1343 12.2406 21.1304H21.491C22.1557 21.1306 22.8122 20.9837 23.4135 20.7004C24.0148 20.4171 24.5459 20.0043 24.969 19.4917C25.3921 18.979 25.6965 18.3791 25.8606 17.735C26.0246 17.0909 26.0442 16.4185 25.9179 15.7659C25.7192 14.7394 25.1699 13.8138 24.364 13.1477C23.5581 12.4816 22.5456 12.1163 21.5001 12.1144C21.2959 12.1002 21.0911 12.1002 20.887 12.1144C20.4192 11.5035 19.8301 10.9959 19.1567 10.6235C18.4833 10.2511 17.7402 10.022 16.974 9.9506C16.6949 9.38176 16.2989 8.87817 15.812 8.47268C15.3251 8.06718 14.7582 7.76888 14.1482 7.59724C13.5383 7.4256 12.899 7.38448 12.2721 7.47656C11.6451 7.56864 11.0447 7.79184 10.5098 8.13162C9.97499 8.47139 9.51779 8.92011 9.16804 9.44848C8.8183 9.97686 8.58387 10.573 8.48005 11.1981C8.37624 11.8232 8.40536 12.4631 8.56553 13.0762C8.7257 13.6893 9.01332 14.2617 9.40962 14.7561ZM19.751 13.6201C19.853 13.7922 20.0093 13.9254 20.1954 13.9989C20.3815 14.0723 20.5867 14.0818 20.7788 14.0258C21.0095 13.9548 21.2496 13.9183 21.491 13.9176C22.2084 13.9176 22.8964 14.2026 23.4036 14.7098C23.9109 15.2171 24.1958 15.9051 24.1958 16.6224C24.1958 17.3398 23.9109 18.0278 23.4036 18.535C22.8964 19.0423 22.2084 19.3272 21.491 19.3272H12.2406C11.7703 19.3415 11.3091 19.1946 10.9336 18.9109C10.5582 18.6272 10.2908 18.2238 10.176 17.7675C10.1016 17.37 10.1476 16.9593 10.3083 16.5882C10.4689 16.2171 10.7368 15.9025 11.0776 15.6848L11.1858 15.6307C11.4254 15.4826 11.698 15.3958 11.9792 15.3782C12.1723 15.3659 12.3564 15.2917 12.5042 15.1667C12.6519 15.0417 12.7555 14.8724 12.7996 14.684C12.9902 13.8844 13.4334 13.1675 14.0636 12.6397C14.6937 12.1118 15.4772 11.8012 16.2978 11.7538H16.4872C17.1389 11.7616 17.7777 11.9374 18.3415 12.2644C18.9054 12.5913 19.3754 13.0583 19.7059 13.6201H19.751ZM13.016 9.40964C13.7155 9.41009 14.3877 9.68153 14.8913 10.167L14.6389 10.2571L14.3864 10.3473L13.9176 10.5817L13.7463 10.6629C13.5323 10.7876 13.3246 10.923 13.1242 11.0686L13.016 11.2128C12.8627 11.33 12.7185 11.4653 12.5742 11.6005L12.4029 11.7808L12.0783 12.1595L11.9251 12.3759C11.8234 12.5176 11.7301 12.6651 11.6456 12.8177C11.6032 12.8818 11.5641 12.948 11.5284 13.016C11.4096 13.2397 11.3071 13.4718 11.2218 13.7103L10.9153 13.8004C10.5283 13.3233 10.3153 12.7287 10.3112 12.1144C10.3112 11.3971 10.5962 10.7091 11.1034 10.2019C11.6107 9.69461 12.2987 9.40964 13.016 9.40964Z" fill="url(#paint0_linear_5082_2077)"/>
<defs>
<linearGradient id="paint0_linear_5082_2077" x1="17.1885" y1="7.42871" x2="17.1885" y2="21.1305" gradientUnits="userSpaceOnUse">
<stop stop-color="#7243E5"/>
<stop offset="1" stop-color="#D55AC6"/>
</linearGradient>
</defs>
</svg>
