<svg width="30" height="30" viewBox="0 0 30 30" fill="none" xmlns="http://www.w3.org/2000/svg">
<path fill-rule="evenodd" clip-rule="evenodd" d="M15 4C15.5523 4 16 4.44772 16 5V6C16 6.55228 15.5523 7 15 7C14.4477 7 14 6.55228 14 6V5C14 4.44772 14.4477 4 15 4ZM6.79289 6.79289C7.18342 6.40237 7.81658 6.40237 8.20711 6.79289L9.20711 7.79289C9.59763 8.18342 9.59763 8.81658 9.20711 9.20711C8.81658 9.59763 8.18342 9.59763 7.79289 9.20711L6.79289 8.20711C6.40237 7.81658 6.40237 7.18342 6.79289 6.79289ZM23.2071 6.79289C23.5976 7.18342 23.5976 7.81658 23.2071 8.20711L22.2071 9.20711C21.8166 9.59763 21.1834 9.59763 20.7929 9.20711C20.4024 8.81658 20.4024 8.18342 20.7929 7.79289L21.7929 6.79289C22.1834 6.40237 22.8166 6.40237 23.2071 6.79289ZM9 15C9 11.6863 11.6863 9 15 9C18.3137 9 21 11.6863 21 15C21 17.2222 19.7921 19.1604 18 20.1971V22C18 22.5523 17.5523 23 17 23H13C12.4477 23 12 22.5523 12 22V20.1971C10.2079 19.1604 9 17.2222 9 15ZM15 11C12.7909 11 11 12.7909 11 15C11 16.6387 11.9856 18.0495 13.4004 18.6677C13.7646 18.8268 14 19.1865 14 19.584V21H16V19.584C16 19.1865 16.2354 18.8268 16.5996 18.6677C18.0144 18.0495 19 16.6387 19 15C19 12.7909 17.2091 11 15 11ZM4 15C4 14.4477 4.44772 14 5 14H6C6.55228 14 7 14.4477 7 15C7 15.5523 6.55228 16 6 16H5C4.44772 16 4 15.5523 4 15ZM23 15C23 14.4477 23.4477 14 24 14H25C25.5523 14 26 14.4477 26 15C26 15.5523 25.5523 16 25 16H24C23.4477 16 23 15.5523 23 15ZM12 25C12 24.4477 12.4477 24 13 24H17C17.5523 24 18 24.4477 18 25C18 25.5523 17.5523 26 17 26H13C12.4477 26 12 25.5523 12 25Z" fill="url(#paint0_linear_5082_2086)"/>
<defs>
<linearGradient id="paint0_linear_5082_2086" x1="15" y1="4" x2="15" y2="26" gradientUnits="userSpaceOnUse">
<stop stop-color="#7844E3"/>
<stop offset="1" stop-color="#DF5DC3"/>
</linearGradient>
</defs>
</svg>
