<svg width="30" height="30" viewBox="0 0 30 30" fill="none" xmlns="http://www.w3.org/2000/svg">
<path d="M7.3 26C8.17521 26 9.01458 25.6523 9.63345 25.0335C10.2523 24.4146 10.6 23.5752 10.6 22.7C10.5971 22.2083 10.4843 21.7235 10.27 21.281L12.8 18.773C13.4643 19.1726 14.2248 19.3837 15 19.3837C15.7752 19.3837 16.5357 19.1726 17.2 18.773L18.597 20.17C18.3924 20.6185 18.291 21.1071 18.3 21.6C18.3 22.2527 18.4935 22.8907 18.8561 23.4334C19.2188 23.9761 19.7341 24.399 20.3371 24.6488C20.9401 24.8986 21.6037 24.9639 22.2438 24.8366C22.8839 24.7093 23.4719 24.395 23.9335 23.9335C24.395 23.4719 24.7093 22.8839 24.8366 22.2438C24.9639 21.6037 24.8986 20.9401 24.6488 20.3371C24.399 19.7341 23.9761 19.2188 23.4334 18.8562C22.8907 18.4935 22.2527 18.3 21.6 18.3C21.0955 18.3048 20.5987 18.4252 20.148 18.652L18.773 17.2C19.1726 16.5357 19.3837 15.7752 19.3837 15C19.3837 14.2248 19.1726 13.4643 18.773 12.8L21.281 10.27C21.7235 10.4843 22.2083 10.5971 22.7 10.6C23.3527 10.6 23.9907 10.4065 24.5334 10.0439C25.0761 9.68124 25.499 9.16585 25.7488 8.56286C25.9986 7.95986 26.0639 7.29634 25.9366 6.6562C25.8093 6.01607 25.495 5.42806 25.0335 4.96655C24.5719 4.50504 23.9839 4.19074 23.3438 4.06341C22.7037 3.93608 22.0401 4.00143 21.4371 4.2512C20.8341 4.50097 20.3188 4.92394 19.9561 5.46662C19.5935 6.0093 19.4 6.64732 19.4 7.3C19.4029 7.79168 19.5157 8.27649 19.73 8.719L17.2 11.227C16.5357 10.8274 15.7752 10.6163 15 10.6163C14.2248 10.6163 13.4643 10.8274 12.8 11.227L11.37 9.819C11.5843 9.37649 11.6971 8.89168 11.7 8.4C11.7 7.74732 11.5065 7.1093 11.1438 6.56662C10.7812 6.02394 10.2659 5.60097 9.66285 5.3512C9.05986 5.10143 8.39634 5.03608 7.7562 5.16341C7.11606 5.29074 6.52806 5.60504 6.06655 6.06655C5.60503 6.52806 5.29074 7.11607 5.16341 7.7562C5.03608 8.39634 5.10143 9.05986 5.3512 9.66286C5.60097 10.2659 6.02394 10.7812 6.56662 11.1439C7.1093 11.5065 7.74732 11.7 8.4 11.7C8.89168 11.6971 9.37649 11.5843 9.819 11.37L11.227 12.8C10.8274 13.4643 10.6163 14.2248 10.6163 15C10.6163 15.7752 10.8274 16.5357 11.227 17.2L8.719 19.73C8.27649 19.5157 7.79168 19.4029 7.3 19.4C6.42479 19.4 5.58542 19.7477 4.96655 20.3665C4.34768 20.9854 4 21.8248 4 22.7C4 23.5752 4.34768 24.4146 4.96655 25.0335C5.58542 25.6523 6.42479 26 7.3 26ZM21.6 20.5C21.8176 20.5 22.0302 20.5645 22.2111 20.6854C22.392 20.8063 22.533 20.9781 22.6163 21.179C22.6995 21.38 22.7213 21.6012 22.6789 21.8146C22.6364 22.028 22.5317 22.224 22.3778 22.3778C22.224 22.5317 22.028 22.6364 21.8146 22.6789C21.6012 22.7213 21.38 22.6995 21.179 22.6163C20.978 22.533 20.8062 22.392 20.6854 22.2111C20.5645 22.0302 20.5 21.8176 20.5 21.6C20.5 21.3083 20.6159 21.0285 20.8222 20.8222C21.0285 20.6159 21.3083 20.5 21.6 20.5ZM22.7 6.2C22.9176 6.2 23.1302 6.26452 23.3111 6.38538C23.492 6.50625 23.633 6.67805 23.7163 6.87905C23.7995 7.08005 23.8213 7.30122 23.7789 7.5146C23.7364 7.72798 23.6317 7.92398 23.4778 8.07782C23.324 8.23166 23.128 8.33642 22.9146 8.37887C22.7012 8.42131 22.48 8.39953 22.279 8.31627C22.078 8.23301 21.9062 8.09202 21.7854 7.91113C21.6645 7.73023 21.6 7.51756 21.6 7.3C21.6 7.00826 21.7159 6.72847 21.9222 6.52218C22.1285 6.31589 22.4083 6.2 22.7 6.2ZM17.2 15C17.2 15.4351 17.071 15.8605 16.8292 16.2223C16.5875 16.584 16.2439 16.866 15.8419 17.0325C15.4399 17.199 14.9976 17.2426 14.5708 17.1577C14.144 17.0728 13.752 16.8633 13.4444 16.5556C13.1367 16.248 12.9272 15.856 12.8423 15.4292C12.7574 15.0024 12.801 14.5601 12.9675 14.1581C13.134 13.7561 13.416 13.4125 13.7777 13.1708C14.1395 12.929 14.5649 12.8 15 12.8C15.5835 12.8 16.1431 13.0318 16.5556 13.4444C16.9682 13.8569 17.2 14.4165 17.2 15ZM7.3 8.4C7.3 8.18244 7.36451 7.96977 7.48538 7.78887C7.60625 7.60798 7.77805 7.46699 7.97905 7.38373C8.18005 7.30048 8.40122 7.27869 8.6146 7.32114C8.82798 7.36358 9.02398 7.46835 9.17782 7.62218C9.33165 7.77602 9.43642 7.97202 9.47886 8.1854C9.52131 8.39878 9.49952 8.61995 9.41627 8.82095C9.33301 9.02195 9.19202 9.19375 9.01113 9.31462C8.83023 9.43549 8.61756 9.5 8.4 9.5C8.10826 9.5 7.82847 9.38411 7.62218 9.17782C7.41589 8.97153 7.3 8.69174 7.3 8.4ZM7.3 21.6C7.51756 21.6 7.73023 21.6645 7.91113 21.7854C8.09202 21.9063 8.23301 22.0781 8.31627 22.279C8.39952 22.48 8.42131 22.7012 8.37886 22.9146C8.33642 23.128 8.23165 23.324 8.07782 23.4778C7.92398 23.6317 7.72798 23.7364 7.5146 23.7789C7.30122 23.8213 7.08005 23.7995 6.87905 23.7163C6.67805 23.633 6.50625 23.492 6.38538 23.3111C6.26451 23.1302 6.2 22.9176 6.2 22.7C6.2 22.4083 6.31589 22.1285 6.52218 21.9222C6.72847 21.7159 7.00826 21.6 7.3 21.6Z" fill="url(#paint0_linear_5082_2088)"/>
<defs>
<linearGradient id="paint0_linear_5082_2088" x1="15" y1="4" x2="15" y2="26" gradientUnits="userSpaceOnUse">
<stop stop-color="#7243E5"/>
<stop offset="1" stop-color="#E05DC3"/>
</linearGradient>
</defs>
</svg>
