<svg width="30" height="30" viewBox="0 0 30 30" fill="none" xmlns="http://www.w3.org/2000/svg">
<path d="M14.5119 19.8826C14.3786 19.8826 14.2442 19.8382 14.1335 19.7458L13.9789 19.6185C12.7967 18.6389 11.5743 17.6267 11.4162 15.7043C11.2462 13.6314 12.057 12.0121 13.7663 10.9952C13.5039 8.84477 13.235 6.62145 15.4678 4.92109C16.5007 4.13398 17.6852 3.83726 18.8028 4.08542C19.9257 4.33535 20.8816 5.11476 21.4922 6.2815L21.5408 6.37507C22.0708 7.38664 22.5275 8.26022 23.5538 8.96204C24.906 9.88655 25.6113 11.2304 25.4893 12.6506C25.3419 14.364 24.049 15.9352 22.0323 16.8544C21.7344 16.9894 21.3832 16.8586 21.2476 16.5612C21.112 16.2633 21.2435 15.9121 21.5408 15.7765C23.1635 15.0374 24.1988 13.831 24.309 12.5493C24.3954 11.5531 23.8897 10.6269 22.8858 9.94103C21.6154 9.07279 21.0705 8.02983 20.4919 6.92587L20.4433 6.83229C19.9968 5.98004 19.3228 5.41562 18.5457 5.24327C17.7746 5.07093 16.9366 5.29243 16.1862 5.86455C14.4912 7.15566 14.6908 8.79028 14.9437 10.8596L14.991 11.2529C15.0201 11.4993 14.8927 11.7373 14.6712 11.8499C13.1325 12.6328 12.4538 13.8623 12.5971 15.6083C12.7144 17.0339 13.6508 17.8097 14.7352 18.707L14.8909 18.8367C15.1427 19.0458 15.177 19.4183 14.9679 19.6706C14.8501 19.8092 14.6819 19.8826 14.5119 19.8826Z" fill="url(#paint0_linear_5082_2090)"/>
<path d="M10.1307 21.3206C7.83865 21.3206 5.42404 20.8012 4.20518 19.5764C4.08495 19.4556 4.02276 19.2892 4.03402 19.1192C4.04527 18.9492 4.12937 18.7923 4.26499 18.688L6.85374 16.7052L5.32868 15.7593C5.17233 15.6628 5.06928 15.4987 5.05151 15.3151C5.03315 15.1321 5.10126 14.9503 5.2357 14.8242L7.99501 12.2324L6.41014 11.7018C6.22595 11.6402 6.0844 11.4921 6.02991 11.3062C5.97542 11.1202 6.0157 10.9188 6.1377 10.7684L9.80494 6.22699C10.0069 5.97706 10.3711 5.93383 10.6258 6.12868C11.1446 6.52608 11.4692 7.08576 11.7837 7.62708C12.3664 8.63095 12.7496 9.19892 13.805 9.11009C14.1325 9.08403 14.4162 9.32744 14.4423 9.65378C14.4678 9.97952 14.2249 10.265 13.8986 10.291C12.0377 10.4332 11.3324 9.2084 10.7591 8.22111C10.6086 7.96171 10.4623 7.71 10.3042 7.49383L7.59465 10.8489L9.311 11.424C9.50822 11.4904 9.65687 11.6556 9.70129 11.8587C9.74571 12.0619 9.67997 12.2745 9.52836 12.4172L6.60914 15.1594L8.20704 16.1496C8.37228 16.2527 8.4771 16.4298 8.48658 16.624C8.49606 16.8183 8.40959 17.0048 8.25501 17.1239L5.58691 19.1677C7.95 20.6567 13.1843 20.2415 14.3564 19.2347C14.4458 19.1577 14.5554 19.1091 14.6727 19.0955L16.5922 18.8669C16.9102 18.8296 17.2117 19.0594 17.2502 19.3851C17.2887 19.7097 17.0571 20.004 16.7325 20.0431L14.9765 20.2522C14.0419 20.9238 12.1337 21.3206 10.1307 21.3206Z" fill="url(#paint1_linear_5082_2090)"/>
<path d="M18.9754 20.5438C18.69 20.5438 18.4389 20.3377 18.3915 20.0469C18.3394 19.7241 18.5579 19.4191 18.8807 19.3675L21.727 18.9038C22.9968 17.8567 22.9714 17.8223 22.1339 16.6609C21.9426 16.3962 22.0024 16.026 22.2684 15.8342C22.5331 15.6434 22.9039 15.7033 23.0952 15.9686C24.4307 17.8206 24.1565 18.4401 22.3572 19.9201C22.2767 19.987 22.1795 20.0315 22.0765 20.0474L19.0726 20.5372C19.0388 20.5414 19.0068 20.5438 18.9754 20.5438Z" fill="url(#paint2_linear_5082_2090)"/>
<path d="M16.9916 23.5194C16.6794 23.5194 16.4177 23.2754 16.4005 22.9597L16.1103 17.7011L13.4505 15.2622C13.2094 15.0413 13.1928 14.6664 13.4138 14.4254C13.6353 14.1849 14.0096 14.1677 14.2506 14.3886L17.0881 16.991C17.2018 17.0958 17.2705 17.2403 17.2794 17.3943L17.5832 22.894C17.601 23.2209 17.3511 23.4993 17.0247 23.5182C17.0135 23.5188 17.0022 23.5194 16.9916 23.5194Z" fill="url(#paint3_linear_5082_2090)"/>
<path d="M18.8101 23.6847C18.4992 23.6847 18.2386 23.4418 18.2203 23.1274L18.1669 22.2609C18.1279 21.6106 18.0876 20.9609 18.0556 20.3106C18.0201 19.5886 18.0088 18.8613 17.997 18.1341C17.9733 16.5776 17.9484 14.9685 17.6618 13.4618C17.2987 11.5594 17.1803 9.35922 19.0512 7.4652C19.2816 7.23244 19.6559 7.23007 19.8886 7.45987C20.122 7.68966 20.1238 8.06456 19.8946 8.29731C18.4951 9.71398 18.4554 11.2977 18.8255 13.2397C19.1317 14.8465 19.1578 16.5083 19.1821 18.1157C19.1933 18.8294 19.204 19.5424 19.2389 20.252C19.2715 20.8975 19.3106 21.5431 19.3503 22.1886L19.403 23.0575C19.4219 23.3838 19.1726 23.6639 18.8469 23.6835C18.8344 23.6847 18.822 23.6847 18.8101 23.6847Z" fill="url(#paint4_linear_5082_2090)"/>
<path d="M4.59249 26.0001C4.37039 26.0001 4.15718 25.874 4.0565 25.6602C3.91732 25.3641 4.04406 25.0111 4.34019 24.8725C10.7709 21.8496 17.4379 21.6773 24.1558 24.362C24.4596 24.4834 24.6077 24.8281 24.4863 25.1319C24.3649 25.4363 24.0202 25.5838 23.7164 25.4624C17.3153 22.9044 10.9663 23.0667 4.8442 25.9439C4.76247 25.9818 4.67659 26.0001 4.59249 26.0001Z" fill="url(#paint5_linear_5082_2090)"/>
<path d="M18.6453 15.0878C18.4037 15.0878 18.1756 14.9386 18.0892 14.6981C17.9772 14.3907 18.1354 14.0508 18.4428 13.9388C18.64 13.8672 18.8437 13.805 19.0474 13.7434C19.4508 13.6214 19.8316 13.5065 20.1206 13.3146C20.547 13.0321 20.929 12.6602 21.3335 12.2663C21.516 12.0892 21.6978 11.9122 21.8855 11.7422C22.1272 11.5219 22.5021 11.5396 22.7218 11.7819C22.9415 12.0241 22.9243 12.3984 22.6827 12.6187C22.505 12.7798 22.3327 12.948 22.1597 13.1156C21.7339 13.5302 21.2939 13.9584 20.775 14.3019C20.3415 14.5897 19.8576 14.736 19.3904 14.8776C19.2079 14.9326 19.0255 14.9877 18.849 15.0517C18.7809 15.0766 18.7122 15.0878 18.6453 15.0878Z" fill="url(#paint6_linear_5082_2090)"/>
<path d="M9.5515 24.0152C9.24235 24.0152 8.98175 23.7753 8.96102 23.462L8.79579 20.9823C8.77387 20.6559 9.02084 20.374 9.34717 20.3521C9.6664 20.3213 9.95601 20.5778 9.97733 20.9041L10.1426 23.3839C10.1645 23.7108 9.91751 23.9921 9.59118 24.0134C9.57815 24.0146 9.56453 24.0152 9.5515 24.0152Z" fill="url(#paint7_linear_5082_2090)"/>
<path d="M11.7008 23.5197C11.4166 23.5197 11.1654 23.3136 11.1175 23.0245L10.787 21.0405C10.7331 20.7177 10.951 20.4127 11.2738 20.3594C11.5978 20.3049 11.9016 20.5235 11.9555 20.8462L12.286 22.8297C12.3399 23.1525 12.1219 23.4575 11.7992 23.5114C11.766 23.5167 11.7328 23.5197 11.7008 23.5197Z" fill="url(#paint8_linear_5082_2090)"/>
<defs>
<linearGradient id="paint0_linear_5082_2090" x1="18.4485" y1="4" x2="18.4485" y2="19.8826" gradientUnits="userSpaceOnUse">
<stop stop-color="#7644E4"/>
<stop offset="1" stop-color="#D95BC5"/>
</linearGradient>
<linearGradient id="paint1_linear_5082_2090" x1="10.6435" y1="6.00684" x2="10.6435" y2="21.3206" gradientUnits="userSpaceOnUse">
<stop stop-color="#7644E4"/>
<stop offset="1" stop-color="#D95BC5"/>
</linearGradient>
<linearGradient id="paint2_linear_5082_2090" x1="21.1581" y1="15.7227" x2="21.1581" y2="20.5438" gradientUnits="userSpaceOnUse">
<stop stop-color="#7644E4"/>
<stop offset="1" stop-color="#D95BC5"/>
</linearGradient>
<linearGradient id="paint3_linear_5082_2090" x1="15.4212" y1="14.2334" x2="15.4212" y2="23.5194" gradientUnits="userSpaceOnUse">
<stop stop-color="#7644E4"/>
<stop offset="1" stop-color="#D95BC5"/>
</linearGradient>
<linearGradient id="paint4_linear_5082_2090" x1="18.7549" y1="7.28906" x2="18.7549" y2="23.6847" gradientUnits="userSpaceOnUse">
<stop stop-color="#7644E4"/>
<stop offset="1" stop-color="#D95BC5"/>
</linearGradient>
<linearGradient id="paint5_linear_5082_2090" x1="14.2644" y1="22.4692" x2="14.2644" y2="26.0001" gradientUnits="userSpaceOnUse">
<stop stop-color="#7644E4"/>
<stop offset="1" stop-color="#D95BC5"/>
</linearGradient>
<linearGradient id="paint6_linear_5082_2090" x1="20.4646" y1="11.5879" x2="20.4646" y2="15.0878" gradientUnits="userSpaceOnUse">
<stop stop-color="#7644E4"/>
<stop offset="1" stop-color="#D95BC5"/>
</linearGradient>
<linearGradient id="paint7_linear_5082_2090" x1="9.46918" y1="20.3496" x2="9.46918" y2="24.0152" gradientUnits="userSpaceOnUse">
<stop stop-color="#7644E4"/>
<stop offset="1" stop-color="#D95BC5"/>
</linearGradient>
<linearGradient id="paint8_linear_5082_2090" x1="11.5365" y1="20.3511" x2="11.5365" y2="23.5197" gradientUnits="userSpaceOnUse">
<stop stop-color="#7644E4"/>
<stop offset="1" stop-color="#D95BC5"/>
</linearGradient>
</defs>
</svg>
