<svg width="30" height="30" viewBox="0 0 30 30" fill="none" xmlns="http://www.w3.org/2000/svg">
<path d="M24.1416 10.4077C23.927 10.4077 23.7124 10.4936 23.5408 10.6652L23.2833 10.9227L22.4249 11.7382C21.9099 12.2532 21.1373 12.5536 20.3219 12.5536C19.5064 12.5536 18.8197 12.2103 18.2618 11.6953C17.7468 11.1803 17.4034 10.4506 17.4034 9.63519C17.4034 8.81974 17.7039 8.09013 18.2189 7.53219L19.0343 6.67382L19.2918 6.41631C19.4635 6.28755 19.5923 6.07296 19.5923 5.85837C19.5923 5.38627 19.206 5 18.7768 5H18.691C17.3605 5.08584 16.03 5.64378 15.0429 6.71674C13.5408 8.21888 13.0687 10.3648 13.5408 12.3391L12.6395 13.2403L8.77682 9.37768V8.34764L6.24464 7.103L5 8.34764L6.24464 10.8369H7.27468L11.1373 14.6996L5.81545 19.9785C5.30043 20.4936 5 21.2661 5 22.0815C5 23.7124 6.28755 25 7.91846 25C8.73391 25 9.46352 24.6996 9.97854 24.1845L15.3004 18.8197L16.7167 20.2361C16.5451 20.9227 16.7167 21.7382 17.2747 22.2961L19.3348 24.3562C20.1502 25.1717 21.4807 25.1717 22.2961 24.3562C23.1116 23.5408 23.1116 22.2103 22.2961 21.3948L20.2361 19.3348C19.6781 18.7768 18.9056 18.6052 18.176 18.7768L16.7597 17.3605L17.6609 16.4592C19.5923 16.9313 21.7382 16.4592 23.2833 14.9571C24.3133 13.927 24.9142 12.6395 25 11.309V11.2232C25 10.794 24.6137 10.4077 24.1416 10.4077ZM8.13305 22.897C7.57511 22.897 7.103 22.4249 7.103 21.867C7.103 21.309 7.57511 20.8369 8.13305 20.8369C8.69099 20.8369 9.16309 21.309 9.16309 21.867C9.16309 22.4249 8.69099 22.897 8.13305 22.897Z" fill="url(#paint0_linear_5082_2110)"/>
<defs>
<linearGradient id="paint0_linear_5082_2110" x1="15" y1="5" x2="15" y2="25" gradientUnits="userSpaceOnUse">
<stop stop-color="#7143E5"/>
<stop offset="1" stop-color="#DA5BC5"/>
</linearGradient>
</defs>
</svg>
