<svg width="30" height="30" viewBox="0 0 30 30" fill="none" xmlns="http://www.w3.org/2000/svg">
<path d="M22.0455 6H7.95449C7.95449 6 4 6.42548 4 10.43C4 14.4346 7.02844 14.0842 7.65415 14.0842C8.27986 14.0842 11.033 13.959 11.033 10.9807C11.033 8.00228 6.77816 7.47668 6.47782 10.5051C6.47782 11.6564 8.02958 11.9818 8.02958 10.5051C8.02958 9.02844 9.43117 9.62912 9.4562 10.405C9.48123 11.1809 9.35609 12.5074 7.67918 12.5324C6.00228 12.5575 5.47668 11.3811 5.47668 10.4551C5.47668 9.52901 5.97725 7.47668 8.73038 7.47668C11.4835 7.47668 12.1342 9.05347 12.0842 9.92947C12.3345 9.95449 17.6655 9.95449 17.9158 9.92947C17.8658 9.10353 18.5165 7.52673 21.2696 7.52673C24.0228 7.52673 24.5233 9.57907 24.5233 10.5051C24.5233 11.4312 23.9977 12.6075 22.3208 12.5825C20.6439 12.5575 20.5188 11.2309 20.5438 10.4551C20.5688 9.67918 21.9704 9.05347 21.9704 10.5552C21.9704 12.0319 23.5222 11.7065 23.5222 10.5552C23.2218 7.47668 18.967 8.00228 18.967 10.9807C18.967 13.959 21.7201 14.0842 22.3458 14.0842C22.9716 14.0842 26 14.4346 26 10.43C26 6.42548 22.0455 6 22.0455 6Z" fill="url(#paint0_linear_5082_2144)"/>
<path d="M17.8406 11.2808H15.0875H14.9123H12.1592C12.1592 11.2808 11.984 14.6346 9.83154 15.2853C9.83154 16.6869 9.83154 24.8462 9.83154 24.8462H11.6586V16.812C11.6586 16.812 12.1091 15.6357 12.5847 16.8371C12.5847 18.0635 12.5847 24.8462 12.5847 24.8462H14.4618V16.787C14.4618 16.787 14.662 16.3365 14.9123 16.3615H15.0875C15.3628 16.3365 15.538 16.787 15.538 16.787V24.8712H17.4152C17.4152 24.8712 17.4152 18.0885 17.4152 16.8621C17.8907 15.6607 18.3412 16.8371 18.3412 16.8371V24.8712H20.1683C20.1683 24.8712 20.1683 16.6869 20.1683 15.3103C18.0158 14.6095 17.8406 11.2808 17.8406 11.2808Z" fill="url(#paint1_linear_5082_2144)"/>
<defs>
<linearGradient id="paint0_linear_5082_2144" x1="15" y1="6" x2="15" y2="14.092" gradientUnits="userSpaceOnUse">
<stop stop-color="#7443E4"/>
<stop offset="1" stop-color="#DB5BC5"/>
</linearGradient>
<linearGradient id="paint1_linear_5082_2144" x1="14.9999" y1="11.2808" x2="14.9999" y2="24.8712" gradientUnits="userSpaceOnUse">
<stop stop-color="#7443E4"/>
<stop offset="1" stop-color="#DB5BC5"/>
</linearGradient>
</defs>
</svg>
