<svg width="30" height="30" viewBox="0 0 30 30" fill="none" xmlns="http://www.w3.org/2000/svg">
<path d="M15 5C9.47778 5 5 9.47778 5 15C5 20.5222 9.47778 25 15 25C15.9222 25 16.6667 24.2556 16.6667 23.3333C16.6667 22.9 16.5056 22.5111 16.2333 22.2167C15.9722 21.9222 15.8167 21.5389 15.8167 21.1111C15.8167 20.1889 16.5611 19.4444 17.4833 19.4444H19.4444C22.5111 19.4444 25 16.9556 25 13.8889C25 8.97778 20.5222 5 15 5ZM8.88889 15C7.96667 15 7.22222 14.2556 7.22222 13.3333C7.22222 12.4111 7.96667 11.6667 8.88889 11.6667C9.81111 11.6667 10.5556 12.4111 10.5556 13.3333C10.5556 14.2556 9.81111 15 8.88889 15ZM12.2222 10.5556C11.3 10.5556 10.5556 9.81111 10.5556 8.88889C10.5556 7.96667 11.3 7.22222 12.2222 7.22222C13.1444 7.22222 13.8889 7.96667 13.8889 8.88889C13.8889 9.81111 13.1444 10.5556 12.2222 10.5556ZM17.7778 10.5556C16.8556 10.5556 16.1111 9.81111 16.1111 8.88889C16.1111 7.96667 16.8556 7.22222 17.7778 7.22222C18.7 7.22222 19.4444 7.96667 19.4444 8.88889C19.4444 9.81111 18.7 10.5556 17.7778 10.5556ZM21.1111 15C20.1889 15 19.4444 14.2556 19.4444 13.3333C19.4444 12.4111 20.1889 11.6667 21.1111 11.6667C22.0333 11.6667 22.7778 12.4111 22.7778 13.3333C22.7778 14.2556 22.0333 15 21.1111 15Z" fill="url(#paint0_linear_5082_2112)"/>
<defs>
<linearGradient id="paint0_linear_5082_2112" x1="15" y1="5" x2="15" y2="25" gradientUnits="userSpaceOnUse">
<stop stop-color="#6D42E7"/>
<stop offset="1" stop-color="#E55EC2"/>
</linearGradient>
</defs>
</svg>
