<svg width="30" height="30" viewBox="0 0 30 30" fill="none" xmlns="http://www.w3.org/2000/svg">
<path d="M16.2632 21.2333C18.2799 23.8367 20.7732 24.4233 22.5698 24.46H22.6065C24.3299 24.46 26.8598 23.91 28.9499 21.38C26.9332 18.7767 24.3665 18.19 22.6065 18.1533C20.8099 18.1533 18.3165 18.7033 16.2632 21.2333Z" fill="url(#paint0_linear_5082_2008)"/>
<path d="M18.4998 10.1967C18.1698 7.88667 17.1432 5.68667 15.4932 4C13.4398 6.09 12.3398 8.87667 12.3398 11.7733C12.3398 14.34 13.2198 16.76 14.7965 18.74C14.9065 15.7333 16.0065 12.8733 18.0598 10.6367C18.2065 10.49 18.3532 10.3433 18.4998 10.1967Z" fill="url(#paint1_linear_5082_2008)"/>
<path d="M16.3735 18.8869C18.5002 17.0169 20.8835 16.5769 22.6069 16.5769C22.8269 16.5769 23.0469 16.5769 23.2669 16.6136C23.4869 16.3936 23.7069 16.2102 23.8902 15.9902C25.8335 13.8269 26.8602 11.0402 26.7502 8.14355H26.6769C23.7802 8.32689 21.1402 9.61022 19.1969 11.7369C17.4002 13.6802 16.4102 16.2102 16.3735 18.8869Z" fill="url(#paint2_linear_5082_2008)"/>
<path d="M13.2931 19.4002C11.6431 17.2002 10.7265 14.5602 10.7265 11.7735C10.7265 11.4802 10.7631 11.1868 10.7631 10.8935C8.78315 9.20684 6.39982 8.29018 4.08982 8.18018V8.32684C4.05315 11.1868 5.07982 13.9002 7.02315 15.9902C8.70982 17.8235 10.9098 18.9968 13.2931 19.4002Z" fill="url(#paint3_linear_5082_2008)"/>
<path d="M15.4931 26.0002L16.9965 24.6068C16.4831 24.3135 15.9698 23.9468 15.4931 23.5068C14.9798 23.9468 14.4665 24.3135 13.9531 24.6068L15.4931 26.0002Z" fill="url(#paint4_linear_5082_2008)"/>
<path d="M8.34333 24.4598C10.1033 24.4598 12.5233 23.9099 14.6133 21.3799C14.5767 21.3065 14.5033 21.2698 14.4667 21.2332C13.6967 21.0132 10.4333 21.0132 7.09667 18.2632C5.52 18.4832 3.61333 19.2532 2 21.2332C4.01667 23.8365 6.54667 24.4232 8.34333 24.4598Z" fill="url(#paint5_linear_5082_2008)"/>
<defs>
<linearGradient id="paint0_linear_5082_2008" x1="22.6065" y1="18.1533" x2="22.6065" y2="24.46" gradientUnits="userSpaceOnUse">
<stop stop-color="#7042E6"/>
<stop offset="1" stop-color="#DF5CC3"/>
</linearGradient>
<linearGradient id="paint1_linear_5082_2008" x1="15.4198" y1="4" x2="15.4198" y2="18.74" gradientUnits="userSpaceOnUse">
<stop stop-color="#7042E6"/>
<stop offset="1" stop-color="#DF5CC3"/>
</linearGradient>
<linearGradient id="paint2_linear_5082_2008" x1="21.5659" y1="8.14355" x2="21.5659" y2="18.8869" gradientUnits="userSpaceOnUse">
<stop stop-color="#7042E6"/>
<stop offset="1" stop-color="#DF5CC3"/>
</linearGradient>
<linearGradient id="paint3_linear_5082_2008" x1="8.69101" y1="8.18018" x2="8.69101" y2="19.4002" gradientUnits="userSpaceOnUse">
<stop stop-color="#7042E6"/>
<stop offset="1" stop-color="#DF5CC3"/>
</linearGradient>
<linearGradient id="paint4_linear_5082_2008" x1="15.4748" y1="23.5068" x2="15.4748" y2="26.0002" gradientUnits="userSpaceOnUse">
<stop stop-color="#7042E6"/>
<stop offset="1" stop-color="#DF5CC3"/>
</linearGradient>
<linearGradient id="paint5_linear_5082_2008" x1="8.30667" y1="18.2632" x2="8.30667" y2="24.4598" gradientUnits="userSpaceOnUse">
<stop stop-color="#7042E6"/>
<stop offset="1" stop-color="#DF5CC3"/>
</linearGradient>
</defs>
</svg>
