<svg width="30" height="30" viewBox="0 0 30 30" fill="none" xmlns="http://www.w3.org/2000/svg">
<path d="M8.54952 18.0154C8.54952 18.0154 12.0142 8.16086 14.485 7.73487C14.5986 8.50165 15.0814 9.66602 15.6493 9.49563C15.9333 8.78564 15.4789 6.5705 16.2457 5.74692C16.8989 4.72454 20.7044 1.74261 25.1631 2.67979C24.5383 5.43452 22.1812 14.4655 16.2457 16.5387C14.5986 16.5955 13.3774 16.2547 13.3774 16.9362C13.3206 17.7598 15.0246 17.5326 15.0246 17.987C14.4282 18.8106 12.3266 20.0318 9.68549 19.7478C8.91871 20.543 7.49874 22.1049 7.49874 22.1049C7.49874 22.1049 6.61836 21.5369 7.72594 20.401C9.0891 18.981 18.4609 7.70647 20.5908 7.19528C21.6416 6.3717 20.7612 5.88891 20.1932 6.2581C19.0857 7.02488 11.3042 15.4879 10.2535 16.9646C9.51509 17.9018 8.57792 18.2426 8.54952 18.0154Z" fill="url(#paint0_linear_5082_1999)"/>
<path d="M13.6046 5.88867H3.75V26.4498C3.75 26.4498 4.09079 27.6993 6.02194 27.4722C7.35671 27.245 18.1485 25.541 19.0288 25.1718C20.3352 24.5186 20.7612 24.0074 20.7612 22.8999C20.7896 22.3603 20.7612 15.0333 20.7612 15.0333L19.1424 16.652V22.3603C19.1424 22.3603 17.8361 24.7742 16.9273 23.1555C16.3025 21.7355 15.5641 21.8775 14.7973 22.1047C14.0022 22.5307 5.65275 25.1718 5.65275 25.1718V8.07542H11.9858L13.6046 5.88867Z" fill="url(#paint1_linear_5082_1999)"/>
<defs>
<linearGradient id="paint0_linear_5082_1999" x1="16.1651" y1="2.5" x2="16.1651" y2="22.1049" gradientUnits="userSpaceOnUse">
<stop stop-color="#7343E4"/>
<stop offset="1" stop-color="#DF5DC3"/>
</linearGradient>
<linearGradient id="paint1_linear_5082_1999" x1="12.2619" y1="5.88867" x2="12.2619" y2="27.4998" gradientUnits="userSpaceOnUse">
<stop stop-color="#7343E4"/>
<stop offset="1" stop-color="#DF5DC3"/>
</linearGradient>
</defs>
</svg>
