<svg width="30" height="30" viewBox="0 0 30 30" fill="none" xmlns="http://www.w3.org/2000/svg">
<path d="M20.6785 6.332C19.1385 4.836 17.1585 4 15.0025 4C12.8465 4 10.8665 4.836 9.32649 6.332C6.55449 9.148 6.20249 14.428 8.57849 17.596L15.0025 26L21.4265 17.64C23.8025 14.428 23.4945 9.148 20.6785 6.332Z" fill="url(#paint0_linear_5082_2037)"/>
<path d="M11 13.5328V9.68412C11 9.30491 11.3545 8.99686 11.793 9.02013C12.1835 9.04085 12.6454 9.08181 13 9.16258C13.4197 9.25819 13.9184 9.46181 14.3129 9.64187C14.4357 9.69794 14.5663 9.73683 14.7 9.75875L14.7 15C14.5788 14.9769 14.4606 14.9397 14.349 14.8884C13.9492 14.7044 13.4326 14.4911 13 14.3925C12.6493 14.3127 12.1937 14.2717 11.8059 14.2508C11.3624 14.2268 11 13.9164 11 13.5328Z" fill="white"/>
<path d="M15.3 15C15.4212 14.9769 15.5394 14.9397 15.651 14.8884C16.0508 14.7044 16.5674 14.4911 17 14.3925C17.3507 14.3127 17.8063 14.2717 18.1941 14.2508C18.6376 14.2268 19 13.9164 19 13.5328V9.66181C19 9.29149 18.6615 8.9875 18.2328 9.0004C17.7814 9.01397 17.2188 9.05436 16.8 9.16258C16.4369 9.25641 16.0141 9.44461 15.6695 9.61677C15.5529 9.67502 15.4283 9.7178 15.3 9.74493L15.3 15Z" fill="white"/>
<defs>
<linearGradient id="paint0_linear_5082_2037" x1="15.0098" y1="4" x2="15.0098" y2="26" gradientUnits="userSpaceOnUse">
<stop stop-color="#7543E3"/>
<stop offset="1" stop-color="#D65AC6"/>
</linearGradient>
</defs>
</svg>
