<svg width="30" height="30" viewBox="0 0 30 30" fill="none" xmlns="http://www.w3.org/2000/svg">
<path d="M5 19.127V7.9812C5 6.88303 5.8863 5.99092 6.9824 6.05829C7.95877 6.11829 9.11349 6.23691 10 6.47084C11.0492 6.74771 12.2961 7.33741 13.2823 7.85886C13.5893 8.02122 13.9158 8.13384 14.25 8.19733L14.25 23.376C13.9471 23.3092 13.6515 23.2014 13.3724 23.0526C12.3729 22.5199 11.0815 21.9021 10 21.6168C9.12329 21.3854 7.98428 21.2668 7.01486 21.2062C5.90605 21.1369 5 20.238 5 19.127Z" fill="url(#paint0_linear_5082_2035)"/>
<path d="M15.75 23.376C16.0529 23.3092 16.3485 23.2014 16.6276 23.0526C17.6271 22.5199 18.9185 21.9021 20 21.6168C20.8767 21.3854 22.0157 21.2668 22.9851 21.2062C24.094 21.1369 25 20.238 25 19.127V7.91659C25 6.84414 24.1538 5.96381 23.082 6.00115C21.9534 6.04046 20.5469 6.15743 19.5 6.47084C18.5924 6.74256 17.5353 7.28758 16.6738 7.78615C16.3824 7.95485 16.0708 8.07875 15.75 8.15731L15.75 23.376Z" fill="url(#paint1_linear_5082_2035)"/>
<defs>
<linearGradient id="paint0_linear_5082_2035" x1="15" y1="6" x2="15" y2="23.376" gradientUnits="userSpaceOnUse">
<stop stop-color="#7042E6"/>
<stop offset="1" stop-color="#DA5BC5"/>
</linearGradient>
<linearGradient id="paint1_linear_5082_2035" x1="15" y1="6" x2="15" y2="23.376" gradientUnits="userSpaceOnUse">
<stop stop-color="#7042E6"/>
<stop offset="1" stop-color="#DA5BC5"/>
</linearGradient>
</defs>
</svg>
