<svg width="30" height="30" viewBox="0 0 30 30" fill="none" xmlns="http://www.w3.org/2000/svg">
<path d="M6 4C6 7.02344 7.15312 9.375 8.78437 11.2188C10.0781 12.6836 11.6496 13.8867 13.2562 15C9.50508 17.6328 6 20.5117 6 26H7.8C7.8 21.3047 11.2031 18.7422 14.9719 16.1562C15.8684 16.7695 16.7437 17.3672 17.5594 18H14.2688C13.3687 18.6016 12.5742 19.3008 11.7656 20H19.7812C19.827 20.0508 19.8762 20.1055 19.9219 20.1562C20.4352 20.7344 20.8887 21.3477 21.2437 22H10.1344C9.68437 22.6016 9.4207 23.3008 9.15 24H21.975C22.1156 24.6172 22.2 25.2734 22.2 26H24C24 22.9766 22.8469 20.625 21.2156 18.7812C19.5844 16.9375 17.5031 15.5312 15.4781 14.1562C13.4531 12.7812 11.4844 11.4375 10.0781 9.84375C8.67188 8.25 7.8 6.47656 7.8 4H6ZM22.2 4C22.2 4.71875 22.0945 5.37891 21.9469 6H9.15C9.4207 6.69922 9.68437 7.39844 10.1344 8H21.1875C20.7937 8.72266 20.2945 9.37891 19.725 10H11.7656C12.5742 10.6992 13.3687 11.3984 14.2688 12H17.5875C17.0461 12.4375 16.4766 12.8789 15.9 13.3125C16.4414 13.7109 16.9898 14.0078 17.5312 14.4062C20.952 11.9062 24 9 24 4H22.2Z" fill="url(#paint0_linear_5082_2051)"/>
<defs>
<linearGradient id="paint0_linear_5082_2051" x1="15" y1="4" x2="15" y2="26" gradientUnits="userSpaceOnUse">
<stop stop-color="#7343E5"/>
<stop offset="1" stop-color="#DE5CC4"/>
</linearGradient>
</defs>
</svg>
