<svg width="30" height="30" viewBox="0 0 30 30" fill="none" xmlns="http://www.w3.org/2000/svg">
<path d="M12.5059 16.5533C13.0858 15.6253 13.6763 14.6869 14.2563 13.759C14.7624 12.9576 15.2896 12.1667 15.7747 11.3548C15.9539 11.0596 16.1227 10.9963 16.4495 11.0912C17.6305 11.4286 18.8115 11.766 20.0031 12.0507C21.184 12.3354 22.3967 12.5674 23.3457 12.8205C24.1892 13.0419 26.0029 12.947 25.9502 13.2739C25.4968 15.8784 26.4458 17.5655 25.7077 19.2105C25.5917 19.4636 24.3263 19.2738 23.5249 19.2105C22.6919 19.1894 22.1647 19.7272 21.5953 20.3071C20.9099 20.9925 19.2017 21.3827 19.2017 21.3827C19.2017 21.3827 18.0945 21.5725 16.2808 21.5303C15.7852 21.5303 14.8362 21.2878 14.3301 21.235C12.1685 20.9714 10.0174 20.7184 7.85574 20.4864C6.91728 20.3809 6.31624 19.8326 6.34787 19.0101C6.3795 18.2088 6.99109 17.6921 7.91901 17.6604C9.32143 17.6288 10.7239 17.555 12.1368 17.555C13.1175 17.555 14.0138 17.3546 14.8151 16.7642C15.1842 16.5005 15.606 16.3002 15.9645 16.0155C16.091 15.91 16.0699 15.6359 16.1227 15.4355C15.9223 15.3934 15.6692 15.2563 15.5322 15.3301C14.9839 15.6148 14.4988 15.9944 13.9505 16.2686C13.5392 16.4795 13.0647 16.5744 12.6219 16.722C12.5692 16.6693 12.5375 16.6165 12.5059 16.5533Z" fill="url(#paint0_linear_5121_1999)"/>
<path d="M11.9472 10.0898C11.8417 10.2902 11.7784 10.4273 11.6941 10.5538C10.5026 12.4729 9.30048 14.392 8.10894 16.3217C7.91914 16.6169 7.71879 16.7856 7.34973 16.8594C5.97894 17.1125 5.15647 18.4728 5.62043 19.7592C5.84187 20.3602 5.40954 20.9929 5.24083 21.0456C5.07211 21.0983 4.8085 21.0878 4.66088 21.0034C4.19692 20.7715 3.95439 20.3813 4.00711 19.8541C4.0282 19.6643 4.11256 19.485 4.19692 19.3163C4.92449 17.7452 5.64152 16.1635 6.40073 14.5924C6.59053 14.2022 6.8436 13.8332 7.14939 13.5274C8.06676 12.5889 9.02632 11.6821 9.96478 10.7541C10.4815 10.2058 11.1247 9.99494 11.9472 10.0898Z" fill="url(#paint1_linear_5121_1999)"/>
<path d="M14.1193 8.28662C14.7731 8.66622 15.3741 9.01419 16.0068 9.3938C15.2054 10.6802 14.4146 11.9245 13.6343 13.1687C12.9805 14.2127 12.3057 15.2355 11.6625 16.2794C11.4727 16.5957 11.2618 16.7117 10.9033 16.7012C10.26 16.6801 9.60628 16.6906 8.86816 16.6906C10.6186 13.8963 12.3584 11.1126 14.1193 8.28662Z" fill="url(#paint2_linear_5121_1999)"/>
<path d="M16.4815 8.66608C15.8278 8.28648 15.2267 7.93851 14.5835 7.5589C14.8787 7.10549 15.1529 6.68371 15.4271 6.25138C15.4481 6.21975 15.4692 6.18811 15.5009 6.17757C16.1757 5.68197 16.5553 6.35683 17.0298 6.58881C17.4094 6.76806 17.4516 7.12658 17.2407 7.48509C17.0087 7.85415 16.7662 8.22321 16.4815 8.66608Z" fill="#7743E2"/>
<path d="M6.1897 20.9609C7.03326 21.1402 7.7292 21.2878 8.53059 21.4671C8.27752 21.794 7.96118 22.2052 7.71866 22.5215C7.47613 22.8379 7.00163 23.5233 6.34787 23.4284C5.70465 23.3229 5.96826 21.678 6.1897 20.9609Z" fill="#D75AC6"/>
<defs>
<linearGradient id="paint0_linear_5121_1999" x1="16.1733" y1="11.0503" x2="16.1733" y2="21.5364" gradientUnits="userSpaceOnUse">
<stop stop-color="#7544E3"/>
<stop offset="1" stop-color="#DD5CC4"/>
</linearGradient>
<linearGradient id="paint1_linear_5121_1999" x1="7.97358" y1="10.0679" x2="7.97358" y2="21.0779" gradientUnits="userSpaceOnUse">
<stop stop-color="#7544E3"/>
<stop offset="1" stop-color="#DD5CC4"/>
</linearGradient>
<linearGradient id="paint2_linear_5121_1999" x1="12.4375" y1="8.28662" x2="12.4375" y2="16.7018" gradientUnits="userSpaceOnUse">
<stop stop-color="#7544E3"/>
<stop offset="1" stop-color="#DD5CC4"/>
</linearGradient>
</defs>
</svg>
