<svg width="30" height="30" viewBox="0 0 30 30" fill="none" xmlns="http://www.w3.org/2000/svg">
<mask id="path-1-outside-1_5121_1997" maskUnits="userSpaceOnUse" x="4" y="5" width="22" height="19" fill="black">
<rect fill="white" x="4" y="5" width="22" height="19"/>
<path d="M24.6387 20.4982H23.459C23.4022 20.4983 23.3464 20.5122 23.2962 20.5388C23.2461 20.5654 23.2032 20.6039 23.1713 20.6509C22.1443 22.1744 21.1547 22.4212 21.1723 22.4258H19.8927C19.913 22.3232 19.9182 22.2183 19.908 22.1143C19.8241 21.3199 19.2158 20.9794 18.6728 20.8523C18.7365 20.6336 18.7389 20.4015 18.6796 20.1816C18.5735 19.8037 18.3119 19.3531 17.7019 19.0967L17.7382 19.0587C17.775 19.0192 17.8018 18.9715 17.8165 18.9196C18.9092 19.0851 20.0221 19.0636 21.1076 18.8561C21.1961 18.837 21.2736 18.7841 21.3236 18.7086C21.3736 18.6331 21.3921 18.5411 21.3751 18.4522C21.3581 18.3633 21.307 18.2845 21.2328 18.2327C21.1585 18.181 21.0669 18.1603 20.9777 18.1752C17.6026 18.8186 15.0492 17.4171 13.676 16.6686C12.9554 16.2714 12.519 16.0343 12.2699 16.4417C11.2616 18.0986 10.0002 18.4027 9.1394 18.3664C9.10878 18.3652 9.07896 18.3563 9.05268 18.3405C9.02641 18.3247 9.00452 18.3026 8.98903 18.2762C8.97074 18.2472 8.95998 18.2141 8.9577 18.1799C8.95542 18.1458 8.9617 18.1115 8.97598 18.0804L10.5415 14.5799C10.6591 14.318 10.8435 14.0916 11.0763 13.9235C11.3091 13.7553 11.582 13.6514 11.8676 13.6221L18.4066 13.0972C18.4521 13.0937 18.4963 13.0812 18.5369 13.0605C18.5775 13.0397 18.6136 13.0112 18.6432 12.9766C18.6728 12.9419 18.6952 12.9017 18.7092 12.8584C18.7233 12.815 18.7286 12.7693 18.725 12.7239C18.718 12.6431 18.6825 12.5675 18.6247 12.5106C18.567 12.4537 18.4909 12.4193 18.41 12.4135L19.6351 11.1879L22.8167 12.7358C22.864 12.759 22.916 12.771 22.9688 12.771H24.6387C24.6854 12.7729 24.7321 12.7653 24.7758 12.7487C24.8196 12.7321 24.8595 12.7069 24.8933 12.6745C24.927 12.6421 24.9539 12.6032 24.9722 12.5601C24.9905 12.5171 25 12.4708 25 12.424C25 12.3772 24.9905 12.3309 24.9722 12.2879C24.9539 12.2448 24.927 12.2059 24.8933 12.1735C24.8595 12.1411 24.8196 12.1159 24.7758 12.0993C24.7321 12.0827 24.6854 12.0751 24.6387 12.077H23.0499L20.156 10.6692L21.5746 9.24782C21.9329 8.88869 22.1341 8.4021 22.1341 7.89478C22.1341 7.38747 21.9329 6.90088 21.5746 6.54175C20.8523 5.81942 19.5914 5.81942 18.8691 6.54175L16.4575 8.95275C16.1104 8.87359 15.7502 8.86992 15.4015 8.94197L9.9633 10.6687C9.54962 10.8009 9.17289 11.0286 8.86364 11.3336C8.55439 11.6385 8.32131 12.0119 8.18328 12.4237L6.56157 17.2866C6.54452 17.3377 6.53963 17.3922 6.54728 17.4456C6.55493 17.499 6.57491 17.5498 6.60563 17.5942C6.63636 17.6385 6.67699 17.675 6.7243 17.7009C6.77161 17.7268 6.8243 17.7414 6.8782 17.7434C6.88727 17.7434 6.92472 17.7434 6.98487 17.7434C7.22964 17.7407 7.47404 17.7238 7.71685 17.6929L6.67733 18.7324C6.64491 18.7647 6.61942 18.8033 6.60242 18.8459L5.02611 22.6374C5.00002 22.7009 4.9933 22.7707 5.00678 22.838C5.02026 22.9053 5.05335 22.9671 5.10188 23.0156C5.15041 23.0641 5.21221 23.0972 5.2795 23.1107C5.34679 23.1242 5.41657 23.1175 5.48005 23.0914L9.27331 21.5133C9.31558 21.4959 9.35411 21.4704 9.3868 21.4384L11.0891 19.7362C11.1458 19.785 11.2026 19.8423 11.2633 19.886C11.2758 20.5101 11.6202 21.4645 12.8214 21.8765C12.8434 22.2598 12.9878 22.626 13.2334 22.9211C13.5909 23.3348 14.1373 23.5544 14.8568 23.5748L15.2597 23.5873C15.7375 23.6026 16.1914 23.6134 16.6164 23.6134C17.8647 23.6134 18.86 23.5141 19.4269 23.1209L21.2358 23.1152C21.2863 23.1061 22.4501 22.8712 23.6395 21.1939H24.6387C24.6854 21.1958 24.7321 21.1882 24.7758 21.1716C24.8196 21.155 24.8595 21.1298 24.8933 21.0974C24.927 21.065 24.9539 21.0261 24.9722 20.983C24.9905 20.94 25 20.8937 25 20.8469C25 20.8001 24.9905 20.7538 24.9722 20.7108C24.9539 20.6677 24.927 20.6288 24.8933 20.5964C24.8595 20.564 24.8196 20.5388 24.7758 20.5222C24.7321 20.5056 24.6854 20.498 24.6387 20.4999V20.4982ZM19.3616 7.03315C19.8224 6.57239 20.6253 6.57239 21.0866 7.03315C21.315 7.26217 21.4433 7.57244 21.4433 7.89592C21.4433 8.2194 21.315 8.52967 21.0866 8.75869L17.358 12.4867L13.6073 12.788L19.3616 7.03315ZM7.37867 17.0352L8.84263 12.6439C8.9461 12.336 9.12058 12.0569 9.35193 11.829C9.58329 11.6011 9.86503 11.4308 10.1744 11.332L15.5763 9.61494C15.657 9.60152 15.7385 9.59431 15.8203 9.59338L12.5389 12.8777L11.8057 12.9344C11.3972 12.9749 11.0066 13.1225 10.6734 13.3623C10.3403 13.6021 10.0763 13.9256 9.90826 14.3002L8.93115 16.4837L8.69397 16.7197C8.27293 16.9234 7.75317 17.0074 7.37867 17.0352ZM8.94307 20.9011L5.99244 22.1296L7.21865 19.1761L8.2718 18.123C8.26057 18.3048 8.30511 18.4857 8.39947 18.6416C8.47469 18.7644 8.57879 18.867 8.70271 18.9403C8.82663 19.0137 8.96661 19.0557 9.11046 19.0626C9.15869 19.0626 9.20862 19.0626 9.26196 19.0626C9.8623 19.0626 10.7464 18.9026 11.6191 18.2234L8.94307 20.9011ZM11.5748 19.251L13.4757 17.3496C14.2661 17.7814 15.4906 18.4231 17.0505 18.7761L16.9177 18.9134C16.5752 19.2702 16.1104 19.484 15.6166 19.512L12.8816 19.6754C12.4087 19.6988 11.9437 19.5478 11.5748 19.251ZM12.018 20.2542C12.259 20.3293 12.5095 20.3695 12.7619 20.3734C12.8156 20.3734 12.8695 20.3717 12.9236 20.3683L15.6591 20.2049C16.1921 20.1714 16.7023 19.9771 17.1225 19.6476C17.6043 19.7492 17.9028 19.9813 18.0111 20.3694C18.032 20.4433 18.0371 20.5208 18.0262 20.5969C18.0152 20.6729 17.9885 20.7458 17.9476 20.8109C17.9057 20.8785 17.8503 20.9368 17.7849 20.9821C17.7195 21.0274 17.6455 21.0587 17.5674 21.0742C16.5364 21.2739 14.6168 21.5695 13.3713 21.321C12.464 21.1394 12.1354 20.6429 12.018 20.2542ZM19.1346 22.4672C18.6393 23.0006 16.6209 22.9342 15.2863 22.8933L14.8806 22.8803C14.37 22.8661 13.9926 22.7288 13.7673 22.4717C13.6618 22.3487 13.5873 22.2022 13.55 22.0445C13.8665 22.0873 14.1856 22.1091 14.505 22.1097C15.6614 22.1097 16.9245 21.9066 17.703 21.7562C17.9104 21.7136 18.1038 21.6195 18.2653 21.4827C18.5269 21.4997 19.159 21.6002 19.2215 22.1886C19.2297 22.2386 19.2262 22.2898 19.2111 22.3382C19.1961 22.3866 19.1699 22.4308 19.1346 22.4672Z"/>
</mask>
<path d="M24.6387 20.4982H23.459C23.4022 20.4983 23.3464 20.5122 23.2962 20.5388C23.2461 20.5654 23.2032 20.6039 23.1713 20.6509C22.1443 22.1744 21.1547 22.4212 21.1723 22.4258H19.8927C19.913 22.3232 19.9182 22.2183 19.908 22.1143C19.8241 21.3199 19.2158 20.9794 18.6728 20.8523C18.7365 20.6336 18.7389 20.4015 18.6796 20.1816C18.5735 19.8037 18.3119 19.3531 17.7019 19.0967L17.7382 19.0587C17.775 19.0192 17.8018 18.9715 17.8165 18.9196C18.9092 19.0851 20.0221 19.0636 21.1076 18.8561C21.1961 18.837 21.2736 18.7841 21.3236 18.7086C21.3736 18.6331 21.3921 18.5411 21.3751 18.4522C21.3581 18.3633 21.307 18.2845 21.2328 18.2327C21.1585 18.181 21.0669 18.1603 20.9777 18.1752C17.6026 18.8186 15.0492 17.4171 13.676 16.6686C12.9554 16.2714 12.519 16.0343 12.2699 16.4417C11.2616 18.0986 10.0002 18.4027 9.1394 18.3664C9.10878 18.3652 9.07896 18.3563 9.05268 18.3405C9.02641 18.3247 9.00452 18.3026 8.98903 18.2762C8.97074 18.2472 8.95998 18.2141 8.9577 18.1799C8.95542 18.1458 8.9617 18.1115 8.97598 18.0804L10.5415 14.5799C10.6591 14.318 10.8435 14.0916 11.0763 13.9235C11.3091 13.7553 11.582 13.6514 11.8676 13.6221L18.4066 13.0972C18.4521 13.0937 18.4963 13.0812 18.5369 13.0605C18.5775 13.0397 18.6136 13.0112 18.6432 12.9766C18.6728 12.9419 18.6952 12.9017 18.7092 12.8584C18.7233 12.815 18.7286 12.7693 18.725 12.7239C18.718 12.6431 18.6825 12.5675 18.6247 12.5106C18.567 12.4537 18.4909 12.4193 18.41 12.4135L19.6351 11.1879L22.8167 12.7358C22.864 12.759 22.916 12.771 22.9688 12.771H24.6387C24.6854 12.7729 24.7321 12.7653 24.7758 12.7487C24.8196 12.7321 24.8595 12.7069 24.8933 12.6745C24.927 12.6421 24.9539 12.6032 24.9722 12.5601C24.9905 12.5171 25 12.4708 25 12.424C25 12.3772 24.9905 12.3309 24.9722 12.2879C24.9539 12.2448 24.927 12.2059 24.8933 12.1735C24.8595 12.1411 24.8196 12.1159 24.7758 12.0993C24.7321 12.0827 24.6854 12.0751 24.6387 12.077H23.0499L20.156 10.6692L21.5746 9.24782C21.9329 8.88869 22.1341 8.4021 22.1341 7.89478C22.1341 7.38747 21.9329 6.90088 21.5746 6.54175C20.8523 5.81942 19.5914 5.81942 18.8691 6.54175L16.4575 8.95275C16.1104 8.87359 15.7502 8.86992 15.4015 8.94197L9.9633 10.6687C9.54962 10.8009 9.17289 11.0286 8.86364 11.3336C8.55439 11.6385 8.32131 12.0119 8.18328 12.4237L6.56157 17.2866C6.54452 17.3377 6.53963 17.3922 6.54728 17.4456C6.55493 17.499 6.57491 17.5498 6.60563 17.5942C6.63636 17.6385 6.67699 17.675 6.7243 17.7009C6.77161 17.7268 6.8243 17.7414 6.8782 17.7434C6.88727 17.7434 6.92472 17.7434 6.98487 17.7434C7.22964 17.7407 7.47404 17.7238 7.71685 17.6929L6.67733 18.7324C6.64491 18.7647 6.61942 18.8033 6.60242 18.8459L5.02611 22.6374C5.00002 22.7009 4.9933 22.7707 5.00678 22.838C5.02026 22.9053 5.05335 22.9671 5.10188 23.0156C5.15041 23.0641 5.21221 23.0972 5.2795 23.1107C5.34679 23.1242 5.41657 23.1175 5.48005 23.0914L9.27331 21.5133C9.31558 21.4959 9.35411 21.4704 9.3868 21.4384L11.0891 19.7362C11.1458 19.785 11.2026 19.8423 11.2633 19.886C11.2758 20.5101 11.6202 21.4645 12.8214 21.8765C12.8434 22.2598 12.9878 22.626 13.2334 22.9211C13.5909 23.3348 14.1373 23.5544 14.8568 23.5748L15.2597 23.5873C15.7375 23.6026 16.1914 23.6134 16.6164 23.6134C17.8647 23.6134 18.86 23.5141 19.4269 23.1209L21.2358 23.1152C21.2863 23.1061 22.4501 22.8712 23.6395 21.1939H24.6387C24.6854 21.1958 24.7321 21.1882 24.7758 21.1716C24.8196 21.155 24.8595 21.1298 24.8933 21.0974C24.927 21.065 24.9539 21.0261 24.9722 20.983C24.9905 20.94 25 20.8937 25 20.8469C25 20.8001 24.9905 20.7538 24.9722 20.7108C24.9539 20.6677 24.927 20.6288 24.8933 20.5964C24.8595 20.564 24.8196 20.5388 24.7758 20.5222C24.7321 20.5056 24.6854 20.498 24.6387 20.4999V20.4982ZM19.3616 7.03315C19.8224 6.57239 20.6253 6.57239 21.0866 7.03315C21.315 7.26217 21.4433 7.57244 21.4433 7.89592C21.4433 8.2194 21.315 8.52967 21.0866 8.75869L17.358 12.4867L13.6073 12.788L19.3616 7.03315ZM7.37867 17.0352L8.84263 12.6439C8.9461 12.336 9.12058 12.0569 9.35193 11.829C9.58329 11.6011 9.86503 11.4308 10.1744 11.332L15.5763 9.61494C15.657 9.60152 15.7385 9.59431 15.8203 9.59338L12.5389 12.8777L11.8057 12.9344C11.3972 12.9749 11.0066 13.1225 10.6734 13.3623C10.3403 13.6021 10.0763 13.9256 9.90826 14.3002L8.93115 16.4837L8.69397 16.7197C8.27293 16.9234 7.75317 17.0074 7.37867 17.0352ZM8.94307 20.9011L5.99244 22.1296L7.21865 19.1761L8.2718 18.123C8.26057 18.3048 8.30511 18.4857 8.39947 18.6416C8.47469 18.7644 8.57879 18.867 8.70271 18.9403C8.82663 19.0137 8.96661 19.0557 9.11046 19.0626C9.15869 19.0626 9.20862 19.0626 9.26196 19.0626C9.8623 19.0626 10.7464 18.9026 11.6191 18.2234L8.94307 20.9011ZM11.5748 19.251L13.4757 17.3496C14.2661 17.7814 15.4906 18.4231 17.0505 18.7761L16.9177 18.9134C16.5752 19.2702 16.1104 19.484 15.6166 19.512L12.8816 19.6754C12.4087 19.6988 11.9437 19.5478 11.5748 19.251ZM12.018 20.2542C12.259 20.3293 12.5095 20.3695 12.7619 20.3734C12.8156 20.3734 12.8695 20.3717 12.9236 20.3683L15.6591 20.2049C16.1921 20.1714 16.7023 19.9771 17.1225 19.6476C17.6043 19.7492 17.9028 19.9813 18.0111 20.3694C18.032 20.4433 18.0371 20.5208 18.0262 20.5969C18.0152 20.6729 17.9885 20.7458 17.9476 20.8109C17.9057 20.8785 17.8503 20.9368 17.7849 20.9821C17.7195 21.0274 17.6455 21.0587 17.5674 21.0742C16.5364 21.2739 14.6168 21.5695 13.3713 21.321C12.464 21.1394 12.1354 20.6429 12.018 20.2542ZM19.1346 22.4672C18.6393 23.0006 16.6209 22.9342 15.2863 22.8933L14.8806 22.8803C14.37 22.8661 13.9926 22.7288 13.7673 22.4717C13.6618 22.3487 13.5873 22.2022 13.55 22.0445C13.8665 22.0873 14.1856 22.1091 14.505 22.1097C15.6614 22.1097 16.9245 21.9066 17.703 21.7562C17.9104 21.7136 18.1038 21.6195 18.2653 21.4827C18.5269 21.4997 19.159 21.6002 19.2215 22.1886C19.2297 22.2386 19.2262 22.2898 19.2111 22.3382C19.1961 22.3866 19.1699 22.4308 19.1346 22.4672Z" fill="url(#paint0_linear_5121_1997)"/>
<path d="M24.6387 20.4982H23.459C23.4022 20.4983 23.3464 20.5122 23.2962 20.5388C23.2461 20.5654 23.2032 20.6039 23.1713 20.6509C22.1443 22.1744 21.1547 22.4212 21.1723 22.4258H19.8927C19.913 22.3232 19.9182 22.2183 19.908 22.1143C19.8241 21.3199 19.2158 20.9794 18.6728 20.8523C18.7365 20.6336 18.7389 20.4015 18.6796 20.1816C18.5735 19.8037 18.3119 19.3531 17.7019 19.0967L17.7382 19.0587C17.775 19.0192 17.8018 18.9715 17.8165 18.9196C18.9092 19.0851 20.0221 19.0636 21.1076 18.8561C21.1961 18.837 21.2736 18.7841 21.3236 18.7086C21.3736 18.6331 21.3921 18.5411 21.3751 18.4522C21.3581 18.3633 21.307 18.2845 21.2328 18.2327C21.1585 18.181 21.0669 18.1603 20.9777 18.1752C17.6026 18.8186 15.0492 17.4171 13.676 16.6686C12.9554 16.2714 12.519 16.0343 12.2699 16.4417C11.2616 18.0986 10.0002 18.4027 9.1394 18.3664C9.10878 18.3652 9.07896 18.3563 9.05268 18.3405C9.02641 18.3247 9.00452 18.3026 8.98903 18.2762C8.97074 18.2472 8.95998 18.2141 8.9577 18.1799C8.95542 18.1458 8.9617 18.1115 8.97598 18.0804L10.5415 14.5799C10.6591 14.318 10.8435 14.0916 11.0763 13.9235C11.3091 13.7553 11.582 13.6514 11.8676 13.6221L18.4066 13.0972C18.4521 13.0937 18.4963 13.0812 18.5369 13.0605C18.5775 13.0397 18.6136 13.0112 18.6432 12.9766C18.6728 12.9419 18.6952 12.9017 18.7092 12.8584C18.7233 12.815 18.7286 12.7693 18.725 12.7239C18.718 12.6431 18.6825 12.5675 18.6247 12.5106C18.567 12.4537 18.4909 12.4193 18.41 12.4135L19.6351 11.1879L22.8167 12.7358C22.864 12.759 22.916 12.771 22.9688 12.771H24.6387C24.6854 12.7729 24.7321 12.7653 24.7758 12.7487C24.8196 12.7321 24.8595 12.7069 24.8933 12.6745C24.927 12.6421 24.9539 12.6032 24.9722 12.5601C24.9905 12.5171 25 12.4708 25 12.424C25 12.3772 24.9905 12.3309 24.9722 12.2879C24.9539 12.2448 24.927 12.2059 24.8933 12.1735C24.8595 12.1411 24.8196 12.1159 24.7758 12.0993C24.7321 12.0827 24.6854 12.0751 24.6387 12.077H23.0499L20.156 10.6692L21.5746 9.24782C21.9329 8.88869 22.1341 8.4021 22.1341 7.89478C22.1341 7.38747 21.9329 6.90088 21.5746 6.54175C20.8523 5.81942 19.5914 5.81942 18.8691 6.54175L16.4575 8.95275C16.1104 8.87359 15.7502 8.86992 15.4015 8.94197L9.9633 10.6687C9.54962 10.8009 9.17289 11.0286 8.86364 11.3336C8.55439 11.6385 8.32131 12.0119 8.18328 12.4237L6.56157 17.2866C6.54452 17.3377 6.53963 17.3922 6.54728 17.4456C6.55493 17.499 6.57491 17.5498 6.60563 17.5942C6.63636 17.6385 6.67699 17.675 6.7243 17.7009C6.77161 17.7268 6.8243 17.7414 6.8782 17.7434C6.88727 17.7434 6.92472 17.7434 6.98487 17.7434C7.22964 17.7407 7.47404 17.7238 7.71685 17.6929L6.67733 18.7324C6.64491 18.7647 6.61942 18.8033 6.60242 18.8459L5.02611 22.6374C5.00002 22.7009 4.9933 22.7707 5.00678 22.838C5.02026 22.9053 5.05335 22.9671 5.10188 23.0156C5.15041 23.0641 5.21221 23.0972 5.2795 23.1107C5.34679 23.1242 5.41657 23.1175 5.48005 23.0914L9.27331 21.5133C9.31558 21.4959 9.35411 21.4704 9.3868 21.4384L11.0891 19.7362C11.1458 19.785 11.2026 19.8423 11.2633 19.886C11.2758 20.5101 11.6202 21.4645 12.8214 21.8765C12.8434 22.2598 12.9878 22.626 13.2334 22.9211C13.5909 23.3348 14.1373 23.5544 14.8568 23.5748L15.2597 23.5873C15.7375 23.6026 16.1914 23.6134 16.6164 23.6134C17.8647 23.6134 18.86 23.5141 19.4269 23.1209L21.2358 23.1152C21.2863 23.1061 22.4501 22.8712 23.6395 21.1939H24.6387C24.6854 21.1958 24.7321 21.1882 24.7758 21.1716C24.8196 21.155 24.8595 21.1298 24.8933 21.0974C24.927 21.065 24.9539 21.0261 24.9722 20.983C24.9905 20.94 25 20.8937 25 20.8469C25 20.8001 24.9905 20.7538 24.9722 20.7108C24.9539 20.6677 24.927 20.6288 24.8933 20.5964C24.8595 20.564 24.8196 20.5388 24.7758 20.5222C24.7321 20.5056 24.6854 20.498 24.6387 20.4999V20.4982ZM19.3616 7.03315C19.8224 6.57239 20.6253 6.57239 21.0866 7.03315C21.315 7.26217 21.4433 7.57244 21.4433 7.89592C21.4433 8.2194 21.315 8.52967 21.0866 8.75869L17.358 12.4867L13.6073 12.788L19.3616 7.03315ZM7.37867 17.0352L8.84263 12.6439C8.9461 12.336 9.12058 12.0569 9.35193 11.829C9.58329 11.6011 9.86503 11.4308 10.1744 11.332L15.5763 9.61494C15.657 9.60152 15.7385 9.59431 15.8203 9.59338L12.5389 12.8777L11.8057 12.9344C11.3972 12.9749 11.0066 13.1225 10.6734 13.3623C10.3403 13.6021 10.0763 13.9256 9.90826 14.3002L8.93115 16.4837L8.69397 16.7197C8.27293 16.9234 7.75317 17.0074 7.37867 17.0352ZM8.94307 20.9011L5.99244 22.1296L7.21865 19.1761L8.2718 18.123C8.26057 18.3048 8.30511 18.4857 8.39947 18.6416C8.47469 18.7644 8.57879 18.867 8.70271 18.9403C8.82663 19.0137 8.96661 19.0557 9.11046 19.0626C9.15869 19.0626 9.20862 19.0626 9.26196 19.0626C9.8623 19.0626 10.7464 18.9026 11.6191 18.2234L8.94307 20.9011ZM11.5748 19.251L13.4757 17.3496C14.2661 17.7814 15.4906 18.4231 17.0505 18.7761L16.9177 18.9134C16.5752 19.2702 16.1104 19.484 15.6166 19.512L12.8816 19.6754C12.4087 19.6988 11.9437 19.5478 11.5748 19.251ZM12.018 20.2542C12.259 20.3293 12.5095 20.3695 12.7619 20.3734C12.8156 20.3734 12.8695 20.3717 12.9236 20.3683L15.6591 20.2049C16.1921 20.1714 16.7023 19.9771 17.1225 19.6476C17.6043 19.7492 17.9028 19.9813 18.0111 20.3694C18.032 20.4433 18.0371 20.5208 18.0262 20.5969C18.0152 20.6729 17.9885 20.7458 17.9476 20.8109C17.9057 20.8785 17.8503 20.9368 17.7849 20.9821C17.7195 21.0274 17.6455 21.0587 17.5674 21.0742C16.5364 21.2739 14.6168 21.5695 13.3713 21.321C12.464 21.1394 12.1354 20.6429 12.018 20.2542ZM19.1346 22.4672C18.6393 23.0006 16.6209 22.9342 15.2863 22.8933L14.8806 22.8803C14.37 22.8661 13.9926 22.7288 13.7673 22.4717C13.6618 22.3487 13.5873 22.2022 13.55 22.0445C13.8665 22.0873 14.1856 22.1091 14.505 22.1097C15.6614 22.1097 16.9245 21.9066 17.703 21.7562C17.9104 21.7136 18.1038 21.6195 18.2653 21.4827C18.5269 21.4997 19.159 21.6002 19.2215 22.1886C19.2297 22.2386 19.2262 22.2898 19.2111 22.3382C19.1961 22.3866 19.1699 22.4308 19.1346 22.4672Z" stroke="url(#paint1_linear_5121_1997)" stroke-width="0.6" mask="url(#path-1-outside-1_5121_1997)"/>
<defs>
<linearGradient id="paint0_linear_5121_1997" x1="15" y1="6" x2="15" y2="23.6134" gradientUnits="userSpaceOnUse">
<stop stop-color="#7643E3"/>
<stop offset="1" stop-color="#D55AC6"/>
</linearGradient>
<linearGradient id="paint1_linear_5121_1997" x1="15" y1="6" x2="15" y2="23.6134" gradientUnits="userSpaceOnUse">
<stop stop-color="#7944E2"/>
<stop offset="1" stop-color="#D35AC7"/>
</linearGradient>
</defs>
</svg>
