<svg width="30" height="30" viewBox="0 0 30 30" fill="none" xmlns="http://www.w3.org/2000/svg">
<path fill-rule="evenodd" clip-rule="evenodd" d="M18.5553 5.9498C16.6254 5.9498 15.0609 7.51433 15.0609 9.44425C15.0609 11.3742 16.6254 12.9387 18.5553 12.9387C20.4853 12.9387 22.0498 11.3742 22.0498 9.44425C22.0498 7.51431 20.4853 5.9498 18.5553 5.9498ZM13.1609 9.44425C13.1609 6.46497 15.5761 4.0498 18.5553 4.0498C21.5347 4.0498 23.9498 6.46499 23.9498 9.44425C23.9498 12.4235 21.5347 14.8387 18.5553 14.8387C15.5761 14.8387 13.1609 12.4235 13.1609 9.44425ZM5.38314 6.66647C5.38314 6.1418 5.80847 5.71647 6.33314 5.71647H10.7776C11.3023 5.71647 11.7276 6.1418 11.7276 6.66647C11.7276 7.19114 11.3023 7.61647 10.7776 7.61647H6.33314C5.80847 7.61647 5.38314 7.19114 5.38314 6.66647ZM2.0498 9.9998C2.0498 9.47513 2.47513 9.0498 2.9998 9.0498H6.33314C6.85781 9.0498 7.28314 9.47513 7.28314 9.9998C7.28314 10.5245 6.85781 10.9498 6.33314 10.9498H2.9998C2.47513 10.9498 2.0498 10.5245 2.0498 9.9998ZM24.44 11.7702C25.4654 10.6516 27.2937 10.9076 27.9723 12.2649C28.3256 12.9718 28.2659 13.8153 27.8159 14.4653C27.8159 14.4653 27.8159 14.4653 27.8159 14.4653L24.1012 19.831C23.3752 20.8796 22.181 21.5054 20.9056 21.5054H19.1109C18.5862 21.5054 18.1609 21.08 18.1609 20.5554C18.1609 20.0307 18.5862 19.6054 19.1109 19.6054H20.9056C21.5575 19.6054 22.1679 19.2855 22.539 18.7495C22.539 18.7495 22.539 18.7495 22.539 18.7495L26.2537 13.3838C26.3087 13.3044 26.3161 13.2012 26.2728 13.1145C26.1898 12.9486 25.9661 12.9172 25.8406 13.0541L22.892 16.2707C22.892 16.2707 22.892 16.2707 22.892 16.2707C21.4397 17.8552 19.1583 18.3752 17.1628 17.5771L13.1363 15.9665C12.4249 15.6819 11.6189 15.7658 10.9814 16.1908L6.71832 19.0329C6.7183 19.0329 6.71835 19.0329 6.71832 19.0329C6.56317 19.1364 6.50938 19.3391 6.59269 19.5057C6.68398 19.6883 6.906 19.7624 7.08858 19.6711M7.08858 19.6711L10.6279 17.9015C10.6279 17.9015 10.6279 17.9015 10.6279 17.9015C12.0932 17.1687 13.693 18.6216 13.1051 20.1504L11.1087 25.3408C10.9204 25.8305 10.3707 26.0748 9.88099 25.8865C9.3913 25.6981 9.147 25.1485 9.33535 24.6588L11.2338 19.7227L7.93828 21.3705C6.81715 21.931 5.45383 21.4766 4.89328 20.3554C4.38138 19.3316 4.71201 18.087 5.66426 17.4521L9.9275 14.6099C11.0856 13.8378 12.5496 13.6855 13.8419 14.2024C13.8419 14.2024 13.842 14.2024 13.8419 14.2024L17.8685 15.813C19.1304 16.3177 20.573 15.9888 21.4913 14.9869L24.44 11.7702M11.4777 19.6008C11.4777 19.6008 11.4778 19.6008 11.4777 19.6008V19.6008Z" fill="url(#paint0_linear_5082_2053)"/>
<defs>
<linearGradient id="paint0_linear_5082_2053" x1="15.1253" y1="4.0498" x2="15.1253" y2="25.9501" gradientUnits="userSpaceOnUse">
<stop stop-color="#7444E4"/>
<stop offset="1" stop-color="#E15DC3"/>
</linearGradient>
</defs>
</svg>
