<svg width="30" height="30" viewBox="0 0 30 30" fill="none" xmlns="http://www.w3.org/2000/svg">
<path d="M22.134 24.0042C27.2423 20.4122 28.3614 13.2462 24.4986 8.24622C20.9788 3.71556 14.4806 2.65059 9.69729 5.82746C5.43739 8.67943 3.81285 13.9321 5.36518 18.5169H5.34713L3.03668 23.553C2.91033 23.8237 3.12693 24.1306 3.43379 24.1125L8.95722 23.6252V23.6071C12.6756 26.5674 18.0366 26.8743 22.134 24.0042Z" fill="url(#paint0_linear_5082_2067)"/>
<path d="M10.7509 19.0001L9.51782 13.0151C9.47271 12.8046 9.4276 12.6542 9.36745 12.549C9.3073 12.4437 9.187 12.3685 9.03662 12.3084V11.0151H11.8035V12.3084C11.6532 12.3384 11.5629 12.3836 11.4877 12.4587C11.4276 12.5189 11.3975 12.6242 11.3975 12.7445C11.3975 12.8347 11.4126 12.9249 11.4276 13.0001L12.2998 17.4963L13.0968 13.0602C13.1118 12.9851 13.1118 12.8798 13.1118 12.7595C13.1118 12.6242 13.0817 12.5189 13.0216 12.4587C12.9614 12.3836 12.8562 12.3384 12.6908 12.3234V11.0302H15.1419V12.3084C14.9163 12.4136 14.7659 12.6392 14.6908 13.0001L13.5178 19.0001H10.7509Z" fill="white"/>
<path d="M15.7886 19V17.6617C15.969 17.6466 16.0743 17.5714 16.1194 17.4511C16.1645 17.3308 16.1946 17.1353 16.1946 16.8496V12.985C16.1946 12.7744 16.1645 12.609 16.1194 12.5038C16.0743 12.3985 15.954 12.3383 15.7886 12.2932V11H17.8788L19.8788 15.5113V13.1053C19.8788 12.8346 19.8487 12.6391 19.7886 12.5188C19.7284 12.3985 19.6232 12.3233 19.4427 12.2932V11H21.9841V12.3083C21.8487 12.3534 21.7435 12.4135 21.6833 12.4737C21.6232 12.5489 21.5931 12.6241 21.578 12.7293C21.563 12.8346 21.563 12.985 21.563 13.1955V19H19.8788L17.8788 14.4586V16.8346C17.8788 17.1203 17.9089 17.3158 17.954 17.4361C18.0141 17.5564 18.1194 17.6316 18.2999 17.6466V18.985H15.7886V19Z" fill="white"/>
<defs>
<linearGradient id="paint0_linear_5082_2067" x1="14.9032" y1="4" x2="14.9032" y2="26" gradientUnits="userSpaceOnUse">
<stop stop-color="#7B45E1"/>
<stop offset="1" stop-color="#D158C7"/>
</linearGradient>
</defs>
</svg>
