<svg width="30" height="30" viewBox="0 0 30 30" fill="none" xmlns="http://www.w3.org/2000/svg">
<path d="M22.134 24.0042C27.2423 20.4122 28.3614 13.2462 24.4986 8.24622C20.9788 3.71556 14.4806 2.65059 9.69729 5.82746C5.43739 8.67943 3.81285 13.9321 5.36518 18.5169H5.34713L3.03668 23.553C2.91033 23.8237 3.12693 24.1306 3.43379 24.1125L8.95722 23.6252V23.6071C12.6756 26.5674 18.0366 26.8743 22.134 24.0042Z" fill="url(#paint0_linear_5082_2055)"/>
<path d="M9.10889 19.0001V17.6618C9.22919 17.6317 9.31941 17.5866 9.37956 17.5264C9.43971 17.4663 9.48483 17.376 9.49986 17.2858C9.5149 17.1956 9.52994 17.0452 9.52994 16.8347V13.1354C9.52994 12.8497 9.49986 12.6542 9.45475 12.5339C9.40964 12.4136 9.28934 12.3384 9.10889 12.3084V11.0151H14.7329V13.4512H13.0036V13.361C13.0036 13.0452 12.9284 12.8347 12.7931 12.7144C12.6578 12.5941 12.4021 12.5339 12.0412 12.5339H11.3645V14.2031H13.545V15.5415H11.3645V17.4663H12.1766C12.4923 17.4663 12.7179 17.4061 12.8382 17.2708C12.9585 17.1505 13.0187 16.9249 13.0187 16.5941V16.3084H14.748V18.9851H9.10889V19.0001Z" fill="white"/>
<path d="M15.7402 19V17.6617C15.9207 17.6466 16.0259 17.5714 16.0711 17.4511C16.1162 17.3308 16.1462 17.1353 16.1462 16.8496V12.985C16.1462 12.7744 16.1162 12.609 16.0711 12.5038C16.0259 12.3985 15.9056 12.3383 15.7402 12.2932V11H17.8305L19.8455 15.4962V13.1053C19.8455 12.8346 19.8154 12.6391 19.7553 12.5188C19.6951 12.3985 19.5899 12.3233 19.4094 12.2932V11H21.9508V12.3083C21.8154 12.3534 21.7102 12.4135 21.65 12.4737C21.5899 12.5489 21.5598 12.6241 21.5447 12.7293C21.5297 12.8346 21.5297 12.985 21.5297 13.1955V19H19.8305L17.8154 14.4586V16.8346C17.8154 17.1203 17.8455 17.3158 17.8906 17.4361C17.9508 17.5564 18.056 17.6316 18.2365 17.6466V18.985H15.7402V19Z" fill="white"/>
<defs>
<linearGradient id="paint0_linear_5082_2055" x1="14.9032" y1="4" x2="14.9032" y2="26" gradientUnits="userSpaceOnUse">
<stop stop-color="#7A45E2"/>
<stop offset="1" stop-color="#D75AC6"/>
</linearGradient>
</defs>
</svg>
