<svg width="30" height="30" viewBox="0 0 30 30" fill="none" xmlns="http://www.w3.org/2000/svg">
<path d="M22.134 24.0042C27.2423 20.4122 28.3614 13.2462 24.4986 8.24622C20.9788 3.71556 14.4806 2.65059 9.69729 5.82746C5.43739 8.67943 3.81285 13.9321 5.36518 18.5169H5.34713L3.03668 23.553C2.91033 23.8237 3.12693 24.1306 3.43379 24.1125L8.95722 23.6252V23.6071C12.6756 26.5674 18.0366 26.8743 22.134 24.0042Z" fill="url(#paint0_linear_5082_2061)"/>
<path d="M13.5478 16.3037C13.5478 16.837 13.533 17.237 13.5182 17.5037C13.5034 17.7704 13.4441 17.9926 13.3701 18.1556C13.0886 18.7185 12.5849 19 11.8738 19C11.5478 19 11.2219 18.9407 10.896 18.8222V17.6519C10.9404 17.6519 11.0145 17.6667 11.1034 17.6667C11.3553 17.6667 11.5182 17.5926 11.5923 17.4444C11.6664 17.2963 11.7108 17.0593 11.7108 16.7037V13.0889C11.7108 12.7926 11.696 12.6 11.6516 12.4963C11.6071 12.3926 11.5034 12.3185 11.3256 12.2741V11H13.9478V12.2741C13.8293 12.3037 13.7404 12.3481 13.6812 12.4074C13.6219 12.4667 13.5923 12.5556 13.5775 12.6444C13.5627 12.7333 13.5478 12.8815 13.5478 13.0889V16.3037Z" fill="white"/>
<path d="M18.148 16.7185C18.148 16.9259 18.148 17.0741 18.1628 17.1778C18.1776 17.2667 18.2073 17.3556 18.2665 17.4148C18.3258 17.4741 18.4147 17.5185 18.5332 17.5481V18.8667H15.9258V17.5481C16.0443 17.5185 16.1332 17.4741 16.1924 17.4148C16.2517 17.3556 16.2962 17.2667 16.311 17.1778C16.3258 17.0889 16.3406 16.9407 16.3406 16.7333V13.0889C16.3406 12.8074 16.311 12.6148 16.2665 12.4963C16.2221 12.3778 16.1036 12.3037 15.9258 12.2741V11H19.0517C19.6739 11 20.1628 11.0889 20.5332 11.2519C20.9036 11.4296 21.185 11.6963 21.348 12.0667C21.5258 12.437 21.5999 12.9259 21.5999 13.5333C21.5999 14.2593 21.5258 14.8222 21.3776 15.237C21.2295 15.6519 20.9776 15.9481 20.6073 16.1407C20.2369 16.3333 19.7184 16.4222 19.0369 16.4222H18.148V16.7185ZM18.148 14.7333H18.8295C19.0813 14.7333 19.2739 14.7037 19.4073 14.6593C19.5406 14.6148 19.6443 14.5111 19.7036 14.363C19.7628 14.2148 19.7924 14.0074 19.7924 13.7259C19.7924 13.3111 19.7184 13.0296 19.585 12.8815C19.4517 12.7333 19.1999 12.6593 18.8295 12.6593H18.1332V14.7333H18.148Z" fill="white"/>
<defs>
<linearGradient id="paint0_linear_5082_2061" x1="14.9032" y1="4" x2="14.9032" y2="26" gradientUnits="userSpaceOnUse">
<stop stop-color="#7B45E1"/>
<stop offset="1" stop-color="#D158C7"/>
</linearGradient>
</defs>
</svg>
