<svg width="30" height="30" viewBox="0 0 30 30" fill="none" xmlns="http://www.w3.org/2000/svg">
<path d="M23.5909 6H6.40909C6.18297 6 6 6.18297 6 6.40909V8.86364C6 9.08976 6.18297 9.27273 6.40909 9.27273H9.27153C9.25075 13.0336 8.94793 21.8079 7.72585 23.3352C7.62757 23.4583 7.6088 23.6265 7.67671 23.7683C7.74503 23.9097 7.88805 24 8.04545 24H10.5C10.6242 24 10.7417 23.9437 10.8196 23.8466C12.3817 21.8934 12.5311 11.7209 12.5443 9.27273H17.4545V21.1364C17.4545 22.7152 18.7393 24 20.3182 24H22.7727C22.9042 24 23.0276 23.9369 23.1047 23.8302C23.1814 23.7235 23.2026 23.5861 23.1606 23.4615L22.3425 21.0069C22.2869 20.8399 22.1307 20.7273 21.9545 20.7273L21.1376 20.7277C20.9122 20.7277 20.7281 20.5443 20.7281 20.319L20.7273 9.27273H23.5909C23.817 9.27273 24 9.08976 24 8.86364V6.40909C24 6.18297 23.817 6 23.5909 6Z" fill="url(#paint0_linear_5082_1997)"/>
<defs>
<linearGradient id="paint0_linear_5082_1997" x1="15" y1="6" x2="15" y2="24" gradientUnits="userSpaceOnUse">
<stop stop-color="#6D42E7"/>
<stop offset="1" stop-color="#E55EC2"/>
</linearGradient>
</defs>
</svg>
