<svg width="30" height="30" viewBox="0 0 30 30" fill="none" xmlns="http://www.w3.org/2000/svg">
<path fill-rule="evenodd" clip-rule="evenodd" d="M20.746 13.3598C21.1429 13.1746 21.5926 12.9894 22.0952 12.8307C21.4868 8.4127 17.7037 5 13.1005 5C8.07407 5 4 9.07407 4 14.1005C4 19.127 8.07407 23.2011 13.1005 23.2011C13.709 23.2011 14.3968 23.1217 15.0317 23.0159C14.9788 22.9101 14.9524 22.8042 14.9524 22.6984C14.9524 22.5661 15.0053 22.4339 15.0847 22.328C14.3439 22.3016 13.3122 21.9048 12.4392 20.5556C11.963 20.0529 11.5397 19.4974 11.1693 18.8889H12.0688C11.8836 18.4921 11.7249 18.0159 11.5397 17.5132H10.5079C10.164 16.6667 9.89947 15.7407 9.79365 14.7884H16.4339C16.3545 15.4762 16.1958 16.164 15.9841 16.7989C16.037 16.8254 16.0899 16.8254 16.1429 16.8519C16.4074 16.9577 16.672 17.0635 16.9101 17.1958C17.0159 17.2487 17.1217 17.328 17.2011 17.4074C17.4921 16.5873 17.7037 15.7143 17.7831 14.7884H18.6561C19.1058 14.3122 19.7407 13.8624 20.6138 13.4127H17.8889C17.8889 12.4603 17.7831 11.5608 17.5714 10.6878H19.9788C20.4021 11.5079 20.6667 12.4074 20.746 13.3598ZM12.2804 6.45503C12.545 6.42857 12.8095 6.40212 13.1005 6.40212C13.3651 6.40212 13.6561 6.42857 13.9206 6.45503C14.6614 7.27513 15.2698 8.22751 15.7196 9.31217H10.4815C10.9312 8.22751 11.5397 7.27513 12.2804 6.45503ZM10.1905 6.98413C9.74074 7.69841 9.34392 8.46561 9.02645 9.31217H7.09524C7.88889 8.30688 8.94709 7.48677 10.1905 6.98413ZM6.22222 10.6878H8.62963C8.41799 11.5608 8.31217 12.4868 8.31217 13.4127H5.45503C5.53439 12.4339 5.79894 11.5079 6.22222 10.6878ZM6.22222 17.5132C5.79894 16.6667 5.53439 15.7672 5.45503 14.7884H8.41799C8.52381 15.7407 8.73545 16.6667 9.05291 17.5132H6.22222ZM11.619 21.6402C9.79365 21.2963 8.17989 20.291 7.06878 18.8889H9.60847C10.164 19.9206 10.8254 20.8466 11.619 21.6402ZM9.68783 13.4127C9.68783 12.4603 9.82011 11.5344 10.0317 10.6878H16.1693C16.4074 11.5608 16.5397 12.4603 16.5397 13.4127H9.68783ZM17.1746 9.31217C16.8836 8.46561 16.4868 7.69841 16.0106 6.98413C17.2275 7.48677 18.2857 8.28042 19.1058 9.31217H17.1746Z" fill="#7243E5"/>
<path d="M19.238 24.6822C19.238 24.6822 18.1798 23.3859 18.6295 20.2378C18.6295 20.2378 16.2486 22.46 18.1798 24.9997L19.238 24.6822Z" fill="url(#paint0_linear_5082_2127)"/>
<path d="M18.8413 19.3119C18.8413 19.3119 14.5556 14.2325 26.4604 12.7246C26.4604 12.7246 25.8784 24.3648 19.5556 20.1585L22.9154 16.2696L18.8413 19.3119Z" fill="url(#paint1_linear_5082_2127)"/>
<path d="M17.0953 21.2433C17.0953 21.2433 14.3175 24.603 11.9365 17.0898C11.9365 17.0898 19.5291 16.111 17.545 20.6877L14.6349 18.9681L17.0953 21.2433Z" fill="url(#paint2_linear_5082_2127)"/>
<defs>
<linearGradient id="paint0_linear_5082_2127" x1="18.3311" y1="20.2378" x2="18.3311" y2="24.9997" gradientUnits="userSpaceOnUse">
<stop stop-color="#7243E5"/>
<stop offset="1" stop-color="#DC5CC4"/>
</linearGradient>
<linearGradient id="paint1_linear_5082_2127" x1="22.2753" y1="12.7246" x2="22.2753" y2="21.0748" gradientUnits="userSpaceOnUse">
<stop stop-color="#7243E5"/>
<stop offset="1" stop-color="#DC5CC4"/>
</linearGradient>
<linearGradient id="paint2_linear_5082_2127" x1="14.9061" y1="17.002" x2="14.9061" y2="21.9921" gradientUnits="userSpaceOnUse">
<stop stop-color="#7243E5"/>
<stop offset="1" stop-color="#DC5CC4"/>
</linearGradient>
</defs>
</svg>
