<svg width="30" height="30" viewBox="0 0 30 30" fill="none" xmlns="http://www.w3.org/2000/svg">
<path d="M17.2557 15.3004C17.2557 16.5482 16.2469 17.557 14.9992 17.557C13.7515 17.557 12.7427 16.5482 12.7427 15.3004C12.7427 14.0527 13.7515 13.0439 14.9992 13.0439C16.2469 13.0439 17.2557 14.0527 17.2557 15.3004Z" fill="url(#paint0_radial_5082_2114)"/>
<path d="M23.3884 6.96469C23.3884 7.68146 22.8043 8.23895 22.1141 8.23895C21.3973 8.23895 20.8398 7.65491 20.8398 6.96469C20.8398 6.24792 21.4239 5.69043 22.1141 5.69043C22.8309 5.69043 23.3884 6.24792 23.3884 6.96469Z" fill="#7243E5"/>
<path d="M23.3351 23.7157C23.3351 24.4324 22.7511 24.9899 22.0609 24.9899C21.3441 24.9899 20.7866 24.4059 20.7866 23.7157C20.7866 22.9989 21.3707 22.4414 22.0609 22.4414C22.7511 22.4414 23.3351 23.0254 23.3351 23.7157Z" fill="#7243E5"/>
<path d="M7.11493 17.4773C7.11493 18.1941 6.53089 18.7515 5.84067 18.7515C5.1239 18.7515 4.56641 18.1675 4.56641 17.4773C4.56641 16.7605 5.15044 16.203 5.84067 16.203C6.55744 16.1765 7.11493 16.7605 7.11493 17.4773Z" fill="#7243E5"/>
<path d="M25.9898 13.4155C25.3792 12.8845 24.5032 12.4332 23.3882 12.0085C21.1582 11.212 18.1849 10.7607 15.0258 10.7607C11.8667 10.7607 8.89346 11.212 6.6635 12.0085C5.54852 12.4067 4.67247 12.8845 4.06188 13.4155C3.34511 13.9995 3 14.6366 3 15.3003C3 15.7781 3.18583 16.2294 3.50439 16.6542C3.58404 16.4153 3.71677 16.1764 3.87605 15.964C3.74332 15.7516 3.69022 15.5127 3.69022 15.2737C3.69022 14.3181 4.8583 13.3624 6.87588 12.619C9.05274 11.8492 11.9198 11.3979 14.9993 11.3979C18.0788 11.3979 20.9724 11.8226 23.1227 12.619C25.1403 13.3358 26.3084 14.3181 26.3084 15.2737C26.3084 16.2294 25.1403 17.1851 23.1227 17.9285C20.9458 18.6983 18.0788 19.1496 14.9993 19.1496C12.5039 19.1496 10.1146 18.8576 8.15014 18.3267C8.0705 18.539 7.93776 18.7514 7.80503 18.9372C9.8757 19.4947 12.3711 19.8133 14.9993 19.8133C18.1584 19.8133 21.1317 19.362 23.3616 18.5656C24.4766 18.1674 25.3527 17.6895 25.9632 17.1586C26.6535 16.5746 26.9986 15.9374 26.9986 15.2737C27.0251 14.6366 26.68 13.9995 25.9898 13.4155Z" fill="url(#paint1_linear_5082_2114)"/>
<path d="M22.2203 9.38009C22.1141 9.38009 22.0079 9.38009 21.8752 9.35354C21.8221 9.56592 21.7955 9.80484 21.7159 10.0172C21.1584 12.2472 19.8841 14.8753 18.1851 17.4504C16.7516 19.6007 15.0791 21.5387 13.4597 22.8926C11.8935 24.1934 10.513 24.9101 9.50422 24.9101C9.18565 24.9101 8.92018 24.8305 8.68126 24.6978C7.88484 24.1668 7.75211 22.6536 8.2565 20.583C8.81399 18.353 10.0883 15.7248 11.7873 13.1498C13.2474 10.9995 14.9198 9.06153 16.5392 7.70762C17.7073 6.72538 18.7957 6.08825 19.6718 5.82278C19.7779 5.53076 19.9107 5.26529 20.0965 5.02637C18.9815 5.1591 17.6011 5.90242 16.0879 7.17668C14.4154 8.58368 12.7164 10.5216 11.2032 12.7781C9.47767 15.3797 8.20341 18.0875 7.61937 20.3971C7.32735 21.5387 7.22117 22.5209 7.32735 23.3439C7.43354 24.2465 7.75211 24.8836 8.3096 25.2553C8.65471 25.4676 9.05292 25.6004 9.50422 25.6004C10.6723 25.6004 12.212 24.857 13.911 23.4235C15.5835 22.0165 17.2825 20.0786 18.7957 17.8221C20.5478 15.1939 21.8486 12.4861 22.4327 10.1765C22.5123 9.88449 22.5654 9.59247 22.6185 9.327C22.4592 9.38009 22.353 9.38009 22.2203 9.38009Z" fill="url(#paint2_linear_5082_2114)"/>
<path d="M19.7515 24.8041C18.8489 24.5387 17.7604 23.9015 16.5658 22.8927C14.9464 21.5388 13.274 19.6009 11.8139 17.4506C10.0883 14.9021 8.84061 12.2739 8.28312 10.0439C7.75218 7.94673 7.91146 6.46009 8.70787 5.92915C8.92025 5.76987 9.21227 5.71677 9.53083 5.71677C10.5396 5.71677 11.9466 6.43354 13.4864 7.73435C15.1057 9.08825 16.7782 11.0262 18.2383 13.1765C19.9638 15.725 21.2116 18.3532 21.769 20.6097C21.8221 20.8221 21.8487 21.0079 21.9018 21.1937C22.008 21.1672 22.1407 21.1672 22.2469 21.1672C22.3531 21.1672 22.4858 21.1672 22.592 21.1937C22.5389 20.9548 22.4858 20.7159 22.4327 20.4504C21.8487 18.1408 20.5479 15.433 18.7958 12.8048C17.2826 10.5749 15.6101 8.63695 13.9111 7.20341C12.2121 5.74332 10.6724 5 9.50429 5C9.05298 5 8.65478 5.10619 8.30967 5.34511C7.75218 5.71677 7.40706 6.3539 7.32742 7.2565C7.24778 8.05292 7.32742 9.06171 7.61944 10.2032C8.20348 12.5128 9.50429 15.2206 11.2564 17.8488C12.7696 20.0788 14.442 22.0167 16.1411 23.4502C17.7073 24.751 19.1143 25.4944 20.2559 25.6005C20.0169 25.3616 19.8577 25.0962 19.7515 24.8041Z" fill="url(#paint3_linear_5082_2114)"/>
<defs>
<radialGradient id="paint0_radial_5082_2114" cx="0" cy="0" r="1" gradientUnits="userSpaceOnUse" gradientTransform="translate(14.9992 15.3004) rotate(90) scale(2.2565)">
<stop stop-color="#DA5BC5"/>
<stop offset="0.345" stop-color="#D159C8"/>
<stop offset="1" stop-color="#8648DF"/>
</radialGradient>
<linearGradient id="paint1_linear_5082_2114" x1="15" y1="10.7607" x2="15" y2="19.8133" gradientUnits="userSpaceOnUse">
<stop stop-color="#7243E5"/>
<stop offset="1" stop-color="#DA5BC5"/>
</linearGradient>
<linearGradient id="paint2_linear_5082_2114" x1="14.9528" y1="5.02637" x2="14.9528" y2="25.6004" gradientUnits="userSpaceOnUse">
<stop stop-color="#7243E5"/>
<stop offset="1" stop-color="#DA5BC5"/>
</linearGradient>
<linearGradient id="paint3_linear_5082_2114" x1="14.9452" y1="5" x2="14.9452" y2="25.6005" gradientUnits="userSpaceOnUse">
<stop stop-color="#7243E5"/>
<stop offset="1" stop-color="#DA5BC5"/>
</linearGradient>
</defs>
</svg>
