<svg width="24" height="24" viewBox="0 0 24 24" fill="none" xmlns="http://www.w3.org/2000/svg">
    <path
        d="M11.3 15.7C11.4 15.8 11.5 15.9 11.6 15.9C11.7 16 11.9 16 12 16C12.1 16 12.3 16 12.4 15.9C12.5 15.8 12.6 15.8 12.7 15.7L16.7 11.7C17.1 11.3 17.1 10.7 16.7 10.3C16.3 9.9 15.7 9.9 15.3 10.3L13 12.6V5C13 4.4 12.6 4 12 4C11.4 4 11 4.4 11 5V12.6L8.7 10.3C8.3 9.9 7.7 9.9 7.3 10.3C6.9 10.7 6.9 11.3 7.3 11.7L11.3 15.7Z"
        fill="currentColor" />
    <path
        d="M19 13C18.4 13 18 13.4 18 14V16C18 17.1 17.1 18 16 18H8C6.9 18 6 17.1 6 16V14C6 13.4 5.6 13 5 13C4.4 13 4 13.4 4 14V16C4 18.2 5.8 20 8 20H16C18.2 20 20 18.2 20 16V14C20 13.4 19.6 13 19 13Z"
        fill="currentColor" />
</svg>
    