<svg width="24" height="24" viewBox="0 0 24 24" fill="none" xmlns="http://www.w3.org/2000/svg">
<path d="M10.7764 19.7636L4.31575 13.9468C3.90942 13.5782 3.90942 13.0047 4.23449 12.595L11.7922 4.07469C11.9547 3.91084 12.1579 3.78795 12.4017 3.74699L18.9435 3.00965C19.5124 2.92772 20 3.37832 20 3.9518L19.9187 10.5059C19.9187 10.7517 19.8375 10.9565 19.6749 11.1204L12.1172 19.6817C11.7515 20.0913 11.1421 20.0913 10.7764 19.7636Z" stroke="currentColor" stroke-width="1.5" stroke-miterlimit="10"/>
<path d="M15.0836 10.3832C16.2057 10.3832 17.1153 9.46619 17.1153 8.33503C17.1153 7.20386 16.2057 6.28687 15.0836 6.28687C13.9616 6.28687 13.052 7.20386 13.052 8.33503C13.052 9.46619 13.9616 10.3832 15.0836 10.3832Z" stroke="currentColor" stroke-width="1.5" stroke-miterlimit="10"/>
</svg>
