<svg width="36" height="24" viewBox="0 0 36 24" fill="none" xmlns="http://www.w3.org/2000/svg">
<path opacity="0.15" d="M31.9687 24H2.34375C1.03125 24 0 22.9727 0 21.6653V4.20231C0 2.89491 1.03125 1.86768 2.34375 1.86768H31.9687C33.2812 1.86768 34.3125 2.89491 34.3125 4.20231V21.6653C34.3125 22.9727 33.2812 24 31.9687 24Z" fill="black"/>
<path d="M33.6563 22.1323H4.03125C2.71875 22.1323 1.6875 21.1051 1.6875 19.7977V2.33463C1.6875 1.02724 2.71875 0 4.03125 0H33.6563C34.9688 0 36 1.02724 36 2.33463V19.7977C36 21.1051 34.9688 22.1323 33.6563 22.1323Z" fill="white"/>
<path d="M34.4063 1.40088V20.825V20.9184H3.28125V1.40088H34.4063Z" fill="#2E4593"/>
<path d="M34.4063 18.8639V20.825V20.9184H31.2187L21.5625 14.8483L20.625 14.288L19.5 13.6343L19.125 13.3542L18 12.6071L17.5313 12.3269L17.1562 12.1402L16.5 11.6733L16.2187 11.5799L15.8437 11.2997L12.4688 9.15185L10.9687 8.218L3.28125 3.45535V1.40088H6.46875L16.2187 7.47092L17.1562 8.12461L17.4375 8.218L18.9375 9.15185L19.125 9.33862L19.6875 9.61878L20.625 10.2725L20.8125 10.3659L21.5625 10.8328L22.4062 11.2997L24.4688 12.6071L25.9688 13.6343L34.4063 18.8639Z" fill="#FCF5FF"/>
<path d="M34.4063 20.8249V20.9183H32.3438L21.5625 14.1945L20.7188 13.6342L20.625 13.5408L19.6875 12.9805L19.125 12.607L18.1875 11.9533L17.1562 11.393L17.0625 11.2996L16.5 10.9261L16.2187 10.8327L13.6875 9.15173L12.0937 8.21788L3.28125 2.70815V1.30737V1.40076L14.25 8.21788L15.8437 9.15173L16.2187 9.43189L17.1562 10.0856L17.5313 10.2724L18.1875 10.6459L19.2188 11.2996L20.625 12.2334L20.8125 12.3268L21.2813 12.607L21.5625 12.7938L22.875 13.6342L34.4063 20.8249Z" fill="#F42525"/>
<path d="M34.4063 1.77442V3.82889L27.2813 8.218L25.7812 9.15185L22.4062 11.2997L21.5625 11.7666L20.8125 12.3269L20.625 12.4203L20.25 12.6071L19.6875 12.9806L19.125 13.3542L18.75 13.6343L17.1562 14.5682L16.2187 15.1285L7.125 20.9184H3.28125V19.2375L12.2813 13.6343L13.7812 12.6071L15.8437 11.2997L16.2187 11.1129L16.5 10.9262L17.1562 10.4592L17.5313 10.2725L19.125 9.33862L19.3125 9.15185L20.625 8.31138L20.8125 8.218L21.5625 7.75107L31.7813 1.40088H34.2188L34.4063 1.77442Z" fill="#FCF5FF"/>
<path d="M34.3125 1.8678L24.1875 8.218L22.5938 9.15185L21.5625 9.80555L20.8125 10.3659L20.625 10.4592L19.2188 11.2997L18.1875 11.9534L17.5313 12.3269L17.1562 12.6071L16.2187 13.1674L15.5625 13.6343L3.9375 20.9184H3.28125V19.9845L13.4063 13.6343L15 12.6071L16.2187 11.86L16.5 11.6733L17.0625 11.2997L17.1562 11.2063L18.1875 10.646L19.6875 9.61878L20.4375 9.15185L20.625 9.05847L21.5625 8.49816L22.0312 8.218L33 1.40088H34.0312H34.4063V1.77442L34.3125 1.8678Z" fill="#F42525"/>
<path d="M34.4062 8.21777H3.1875V13.5407H34.4062V8.21777Z" fill="white"/>
<path d="M34.4062 9.15161H3.1875V12.6069H34.4062V9.15161Z" fill="#F42525"/>
<path d="M20.625 1.40088H17.1562V20.9184H20.625V1.40088Z" fill="#CD002A"/>
<path d="M20.625 13.6343H21.5625V20.9184H16.2188V13.6343H17.1562V8.218H16.2188V1.40088H21.5625V8.218H20.625V13.6343Z" fill="white"/>
<path d="M20.625 1.40088H17.1562V20.9184H20.625V1.40088Z" fill="#F42525"/>
</svg>
