<svg width="205" height="100" viewBox="0 0 205 100" fill="none" xmlns="http://www.w3.org/2000/svg">
<g clip-path="url(#clip0_5112_2015)">
<path d="M82.8268 73.7103H56.8905L53.8516 65.7951H29.682L35.1943 49.9647H47.7032L28.4099 0H53.4982L53.7102 0.4947L82.8268 73.7103ZM57.9505 72.2261H80.7067L52.4382 1.4841H30.53L49.8233 51.5194H36.2544L31.8021 64.3816H54.9117L57.9505 72.2261ZM24.8763 73.7103H0L26.8551 1.90813L38.3039 32.7208L38.2332 32.9329L24.8763 73.7103ZM2.12014 72.2261H23.7456L36.7491 32.7208L26.8551 6.14841L2.12014 72.2261Z" fill="url(#paint0_linear_5112_2015)"/>
<path d="M115.053 73.7101H89.4697V55.4062H115.053V73.7101ZM91.0245 72.226H113.569V56.8903H91.0245V72.226Z" fill="url(#paint1_linear_5112_2015)"/>
<path d="M166.855 73.7103H126.855V56.8198H134.063V16.8198H126.855V0H166.855V16.8198H159.646V56.8198H166.855V73.7103ZM128.339 72.2261H165.371V58.3039H158.162V15.3357H165.371V1.4841H128.339V15.3357H135.548V58.3039H128.339V72.2261Z" fill="url(#paint2_linear_5112_2015)"/>
<path d="M204.24 73.7101H178.657V55.4062H204.24V73.7101ZM180.141 72.226H202.685V56.8903H180.141V72.226Z" fill="url(#paint3_linear_5112_2015)"/>
<path d="M0.848145 84.311H3.03896V99.8587H0.848145V84.311ZM2.26157 91.1662H10.8835V93.2156H2.26157V91.1662ZM9.68207 84.311H11.8729V99.8587H9.68207V84.311Z" fill="black"/>
<path d="M18.5162 99.2934C17.6682 98.7987 17.0321 98.1627 16.6081 97.3146C16.1841 96.4665 15.9014 95.4771 15.9014 94.2757V89.8941C15.9014 88.7634 16.1134 87.774 16.6081 86.8552C17.0321 86.0072 17.6682 85.3005 18.5162 84.8764C19.3643 84.3817 20.283 84.1697 21.4137 84.1697C22.4738 84.1697 23.4632 84.3817 24.3113 84.8764C25.1593 85.3711 25.7954 86.0072 26.2194 86.8552C26.6434 87.7033 26.9261 88.6927 26.9261 89.8941V94.2757C26.9261 95.4065 26.7141 96.3959 26.2194 97.3146C25.7954 98.1627 25.1593 98.8694 24.3113 99.2934C23.4632 99.7881 22.5445 100 21.4137 100C20.283 100 19.3643 99.7881 18.5162 99.2934ZM23.0392 97.4559C23.5339 97.1733 23.8872 96.7492 24.1699 96.2545C24.4526 95.6892 24.5939 95.1238 24.5939 94.4171V89.8941C24.5939 89.1874 24.4526 88.5513 24.1699 88.0566C23.8872 87.4913 23.5339 87.1379 23.0392 86.8552C22.5445 86.5726 21.9791 86.4312 21.3431 86.4312C20.707 86.4312 20.1416 86.5726 19.6469 86.8552C19.1522 87.1379 18.7989 87.5619 18.5162 88.0566C18.2335 88.622 18.0922 89.1874 18.0922 89.8941V94.4171C18.0922 95.1238 18.2335 95.7598 18.5162 96.2545C18.7989 96.8199 19.1522 97.1733 19.6469 97.4559C20.1416 97.7386 20.707 97.88 21.3431 97.88C21.9791 97.88 22.6151 97.7386 23.0392 97.4559ZM23.2512 79.2934C23.6752 79.5761 23.8872 80.0001 23.8872 80.6362C23.8872 81.1309 23.6752 81.5549 23.3219 81.7669C22.9685 82.0496 22.3325 82.1203 21.6257 82.1203L20.707 81.2722C21.131 81.2722 21.4844 81.2015 21.6964 81.1309C21.9084 81.0602 22.0498 80.9188 22.0498 80.7775C22.0498 80.6362 21.9791 80.4948 21.8378 80.4241C21.6964 80.3535 21.4137 80.2828 21.131 80.2828C20.707 80.2828 20.283 80.2828 19.9296 80.3535L19.7883 78.8694C20.2123 78.7987 20.7777 78.728 21.4137 78.728C22.1911 78.8694 22.8272 79.0107 23.2512 79.2934ZM20.495 81.2722H22.2618V82.5443H20.495V81.2722Z" fill="black"/>
<path d="M32.7914 99.8587H30.6006V84.311H32.7914V99.8587Z" fill="black"/>
<path d="M49.6113 91.166V93.0035H42.4028V91.166H49.6113ZM44.0283 84.3109H46.2191V99.8586H44.0283V84.3109ZM45.5124 97.8091H49.0459C50.1767 97.8091 51.0954 97.5265 51.7315 96.8904C52.3675 96.325 52.6502 95.477 52.6502 94.3462V89.7526C52.6502 88.6925 52.3675 87.8445 51.7315 87.2084C51.0954 86.6431 50.1767 86.2897 49.0459 86.2897H45.5124V84.2402H48.9753C50.2474 84.2402 51.3074 84.4522 52.1555 84.8763C53.0742 85.3003 53.7103 85.9364 54.205 86.7844C54.6996 87.6325 54.9117 88.6219 54.9117 89.8233V94.2049C54.9117 95.4063 54.6996 96.3957 54.205 97.2438C53.7103 98.0918 53.0742 98.7279 52.1555 99.1519C51.2368 99.5759 50.1767 99.7879 48.9753 99.7879H45.5124V97.8091Z" fill="black"/>
<path d="M62.6858 84.3109H64.5233L70.2476 99.8586H67.9155L63.6045 87.3498L59.2936 99.9293H56.9614L62.6858 84.3109ZM59.5763 94.4169H67.7741V96.4664H59.5763V94.4169ZM62.6151 81.2721L65.5833 78.6572L66.9968 80.1413L63.8166 82.5442L62.6151 81.2721Z" fill="black"/>
<path d="M73.145 84.311H75.3358V99.8587H73.145V84.311ZM74.2758 91.7315H79.2228C79.7175 91.7315 80.1415 91.5902 80.4948 91.3782C80.8482 91.1662 81.1309 90.8128 81.3429 90.4594C81.5549 90.0354 81.6256 89.6114 81.6256 89.046C81.6256 88.4806 81.5549 88.0566 81.3429 87.6326C81.1309 87.2086 80.8482 86.9259 80.4948 86.7139C80.1415 86.5018 79.7175 86.3605 79.2228 86.3605H74.2758V84.311H79.1521C80.0708 84.311 80.9189 84.523 81.6256 84.8764C82.3323 85.3004 82.8977 85.7951 83.251 86.5725C83.6044 87.3499 83.8164 88.1273 83.8164 89.046C83.8164 89.9647 83.6044 90.8128 83.251 91.5195C82.8977 92.2262 82.3323 92.7916 81.6256 93.2156C80.9189 93.6397 80.0708 93.781 79.1521 93.781H74.2758V91.7315Z" fill="black"/>
<path d="M93.6396 84.311H95.8305V99.8587H93.6396V84.311ZM95.3358 93.0743L102.191 84.311H104.876L94.9824 96.3252L95.3358 93.0743ZM97.8799 91.5902L99.576 89.9647L105.442 99.8587H102.756L97.8799 91.5902Z" fill="black"/>
<path d="M110.53 99.8587H108.339V84.311H110.53V99.8587Z" fill="black"/>
<path d="M114.912 84.3109H117.102V99.8586H114.912V84.3109ZM115.972 84.3109H124.876V86.3603H115.972V84.3109ZM115.972 91.0953H123.746V93.1448H115.972V91.0953ZM115.972 97.8091H124.876V99.8586H115.972V97.8091ZM123.392 81.4133L122.12 82.6148L120 80.9893L117.88 82.6148L116.608 81.4133L120 78.7985L123.392 81.4133ZM121.413 78.3038L124.382 75.689L125.795 77.1731L122.615 79.5759L121.413 78.3038Z" fill="black"/>
<path d="M128.48 84.311H130.459L138.092 96.3252L137.809 96.6078V84.311H140V99.8587H138.021L130.459 87.9859L130.742 87.7033V99.7881H128.551V84.311H128.48Z" fill="black"/>
<path d="M148.48 84.311H159.435V86.3605H148.48V84.311ZM152.933 85.5831H155.124V99.8587H152.933V85.5831Z" fill="black"/>
<path d="M162.12 84.311H164.311V99.8587H162.12V84.311ZM163.463 91.1662H172.085V93.2156H163.463V91.1662ZM170.954 84.311H173.145V99.8587H170.954V84.311Z" fill="black"/>
<path d="M179.718 99.3638C178.87 98.9397 178.304 98.233 177.88 97.385C177.456 96.5369 177.244 95.4768 177.244 94.2754V84.3814H179.435V94.4168C179.435 95.5475 179.718 96.3956 180.283 97.0316C180.848 97.6677 181.626 97.9503 182.686 97.9503C183.746 97.9503 184.523 97.6677 185.089 97.0316C185.654 96.3956 185.937 95.5475 185.937 94.4168V84.3814H188.128V94.2754C188.128 95.4768 187.916 96.5369 187.491 97.385C187.067 98.233 186.431 98.9397 185.654 99.3638C184.806 99.7878 183.817 100.07 182.686 100.07C181.555 99.9998 180.566 99.7878 179.718 99.3638ZM181.696 81.9786L184.665 79.3638L186.078 80.8479L182.898 83.2507L181.696 81.9786ZM186.078 85.8655V84.3108H187.774C188.198 84.3108 188.552 84.1694 188.764 83.8867C188.976 83.604 189.117 83.2507 189.117 82.756V81.9786H191.237V82.968C191.237 83.8867 190.954 84.5228 190.389 85.0175C189.824 85.5122 189.046 85.7242 188.057 85.7242H186.078V85.8655Z" fill="black"/>
<path d="M196.608 99.9998C196.608 99.9998 196.184 99.7878 195.406 99.2931C194.558 98.7984 193.922 98.1624 193.498 97.2436C193.074 96.3956 192.792 95.3355 192.792 94.2048V89.9645C192.792 88.8337 193.004 87.7737 193.498 86.9256C193.922 86.0776 194.558 85.3708 195.406 84.8761C196.254 84.3814 197.173 84.1694 198.233 84.1694C199.152 84.1694 199.929 84.3814 200.707 84.7348C201.484 85.0882 202.049 85.6535 202.615 86.3602C203.11 87.067 203.463 87.8443 203.604 88.7631H201.413C201.272 88.2684 201.06 87.8443 200.707 87.491C200.424 87.1376 200 86.7843 199.576 86.6429C199.152 86.4309 198.728 86.3602 198.233 86.3602C197.597 86.3602 197.032 86.5016 196.537 86.8549C196.042 87.1376 195.689 87.5617 195.406 88.127C195.124 88.6924 194.982 89.3284 194.982 90.0352V94.2754C194.982 94.9822 195.124 95.6182 195.406 96.1836C195.689 96.7489 196.042 97.173 196.537 97.4556C197.032 97.7383 197.597 97.8797 198.233 97.8797C198.728 97.8797 199.152 97.809 199.576 97.597C200 97.385 200.353 97.1023 200.707 96.7489C200.989 96.3956 201.272 95.9009 201.413 95.4062H203.675C203.463 96.3249 203.18 97.1023 202.615 97.809C202.12 98.5157 201.484 99.0811 200.707 99.4345C199.929 99.7878 199.152 99.9998 198.233 99.9998C197.173 99.9998 196.608 99.9998 196.608 99.9998Z" fill="black"/>
</g>
<defs>
<linearGradient id="paint0_linear_5112_2015" x1="41.4256" y1="0" x2="41.4256" y2="73.7322" gradientUnits="userSpaceOnUse">
<stop stop-color="#EA5FC1"/>
<stop offset="0.1694" stop-color="#E75DC2"/>
<stop offset="0.2929" stop-color="#DE57C6"/>
<stop offset="0.402" stop-color="#CE4DCD"/>
<stop offset="0.5027" stop-color="#B73FD6"/>
<stop offset="0.5976" stop-color="#9A2DE2"/>
<stop offset="0.687" stop-color="#7716F0"/>
<stop offset="0.761" stop-color="#5400FF"/>
<stop offset="1" stop-color="#4300B3"/>
</linearGradient>
<linearGradient id="paint1_linear_5112_2015" x1="102.278" y1="55.4217" x2="102.278" y2="73.732" gradientUnits="userSpaceOnUse">
<stop stop-color="#EA5FC1"/>
<stop offset="0.1694" stop-color="#E75DC2"/>
<stop offset="0.2929" stop-color="#DE57C6"/>
<stop offset="0.402" stop-color="#CE4DCD"/>
<stop offset="0.5027" stop-color="#B73FD6"/>
<stop offset="0.5976" stop-color="#9A2DE2"/>
<stop offset="0.687" stop-color="#7716F0"/>
<stop offset="0.761" stop-color="#5400FF"/>
<stop offset="1" stop-color="#4300B3"/>
</linearGradient>
<linearGradient id="paint2_linear_5112_2015" x1="146.866" y1="0" x2="146.866" y2="73.7322" gradientUnits="userSpaceOnUse">
<stop stop-color="#EA5FC1"/>
<stop offset="0.1694" stop-color="#E75DC2"/>
<stop offset="0.2929" stop-color="#DE57C6"/>
<stop offset="0.402" stop-color="#CE4DCD"/>
<stop offset="0.5027" stop-color="#B73FD6"/>
<stop offset="0.5976" stop-color="#9A2DE2"/>
<stop offset="0.687" stop-color="#7716F0"/>
<stop offset="0.761" stop-color="#5400FF"/>
<stop offset="1" stop-color="#4300B3"/>
</linearGradient>
<linearGradient id="paint3_linear_5112_2015" x1="191.453" y1="55.4217" x2="191.453" y2="73.732" gradientUnits="userSpaceOnUse">
<stop stop-color="#EA5FC1"/>
<stop offset="0.1694" stop-color="#E75DC2"/>
<stop offset="0.2929" stop-color="#DE57C6"/>
<stop offset="0.402" stop-color="#CE4DCD"/>
<stop offset="0.5027" stop-color="#B73FD6"/>
<stop offset="0.5976" stop-color="#9A2DE2"/>
<stop offset="0.687" stop-color="#7716F0"/>
<stop offset="0.761" stop-color="#5400FF"/>
<stop offset="1" stop-color="#4300B3"/>
</linearGradient>
<clipPath id="clip0_5112_2015">
<rect width="204.24" height="100" fill="white"/>
</clipPath>
</defs>
</svg>
