<svg width="61" height="61" viewBox="0 0 61 61" fill="none" xmlns="http://www.w3.org/2000/svg">
<path d="M30.5027 57.2871C15.7 57.2871 3.62109 45.2082 3.62109 30.2871C3.62109 15.3661 15.7 3.28711 30.6211 3.28711C45.5421 3.28711 57.6211 15.3661 57.6211 30.2871C57.5027 45.2082 45.4237 57.2871 30.5027 57.2871Z" fill="url(#paint0_linear_4626_2828)"/>
<path d="M41.631 30.4054C41.1614 30.288 40.6918 30.5228 40.457 30.9924C38.931 35.2184 34.9396 38.0358 30.4788 38.0358C26.1353 38.0358 22.144 35.3358 20.6179 31.3445C20.5005 30.875 19.9136 30.6402 19.444 30.875C18.9744 30.9924 18.7396 31.5793 18.9744 32.0489C20.7353 36.5098 24.9614 39.5619 29.657 39.9141C29.657 40.0315 29.657 40.0315 29.657 40.1489V44.2576C29.657 44.7271 30.0092 45.0793 30.4788 45.0793C30.9483 45.0793 31.3005 44.7271 31.3005 44.2576V40.1489C31.3005 40.0315 31.3005 40.0315 31.3005 39.9141C36.1136 39.5619 40.457 36.3924 42.1005 31.6967C42.3353 31.1098 42.1005 30.6402 41.631 30.4054Z" fill="white"/>
<path d="M30.5965 33.6916C34.0008 33.6916 36.8182 30.8742 36.8182 27.4698V21.2481C36.8182 17.8438 34.0008 15.0264 30.5965 15.0264C27.1921 15.0264 24.3748 17.8438 24.3748 21.2481V27.4698C24.3748 30.8742 27.0748 33.6916 30.5965 33.6916Z" fill="white"/>
<defs>
<linearGradient id="paint0_linear_4626_2828" x1="17.0644" y1="53.6576" x2="44.04" y2="6.93448" gradientUnits="userSpaceOnUse">
<stop stop-color="#DB0055"/>
<stop offset="1" stop-color="#FF9D70"/>
</linearGradient>
</defs>
</svg>
