<svg width="61" height="61" viewBox="0 0 61 61" fill="none" xmlns="http://www.w3.org/2000/svg">
<path d="M48.043 18.454C48.0451 18.3977 48.0538 18.3434 48.0538 18.2871C48.0538 10.0034 40.3043 3.28711 30.7461 3.28711C22.4946 3.28711 15.6062 8.29523 13.8711 14.9909C7.39802 16.4834 2.62109 21.5815 2.62109 27.6621C2.62109 34.9109 9.40138 40.7871 17.7653 40.7871H45.8903C53.06 40.7871 58.8711 35.7509 58.8711 29.5371C58.8711 23.9609 54.185 19.3446 48.043 18.454Z" fill="#5F6CE1"/>
<circle cx="30.7461" cy="39.4121" r="17" fill="#A14ED7" fill-opacity="0.3"/>
<path d="M36.0412 34.2314C36.4811 34.6592 36.4811 35.3505 36.0412 35.7782C35.6014 36.2059 34.8904 36.2059 34.4505 35.7782L31.871 33.2699V52.8182C31.871 53.422 31.3671 53.9121 30.7461 53.9121C30.1251 53.9121 29.6212 53.422 29.6212 52.8182V33.2699L27.0417 35.7782C26.6018 36.2059 25.8908 36.2059 25.451 35.7782C25.0111 35.3505 25.0111 34.6592 25.451 34.2314L29.9508 29.8558C30.3895 29.4292 31.1072 29.4325 31.5426 29.8558L36.0412 34.2314Z" fill="white"/>
</svg>
