<svg width="36" height="24" viewBox="0 0 36 24" fill="none" xmlns="http://www.w3.org/2000/svg">
<path opacity="0.15" d="M31.9688 24H2.34375C1.03125 24 0 22.9727 0 21.6653V4.20231C0 2.89491 1.03125 1.86768 2.34375 1.86768H31.9688C33.2813 1.86768 34.3125 2.89491 34.3125 4.20231V21.6653C34.3125 22.9727 33.2813 24 31.9688 24Z" fill="black"/>
<path d="M33.6563 22.1323H4.03125C2.71875 22.1323 1.6875 21.1051 1.6875 19.7977V2.33463C1.6875 1.02724 2.71875 0 4.03125 0H33.6563C34.9688 0 36 1.02724 36 2.33463V19.7977C36 21.1051 34.9688 22.1323 33.6563 22.1323Z" fill="white"/>
<path d="M34.4062 1.40088V20.825V20.9184H3.28125V1.40088H34.4062Z" fill="#C8172B"/>
<path d="M16.7507 12.5284L15.3686 16.8093L18.9944 14.1648L22.6203 16.8093L21.2381 12.5284L24.864 9.88392H20.3828L18.9944 5.60303L17.6061 9.88392H13.1249L16.7507 12.5284Z" fill="#FCFF2C"/>
</svg>
