<svg width="64" height="64" viewBox="0 0 64 64" fill="none" xmlns="http://www.w3.org/2000/svg">
<path d="M42.1096 30.2323C41.9512 31.1161 41.1007 31.7164 40.2169 31.558L15.9204 27.2723C15.0366 27.1139 14.4363 26.2635 14.5947 25.3797L18.4718 3.35109C18.6302 2.46728 19.4807 1.86696 20.3645 2.02538L44.661 6.31103C45.5448 6.46944 46.1451 7.3199 45.9867 8.20371L42.1096 30.2323Z" fill="url(#paint0_linear_5011_2883)"/>
<path fill-rule="evenodd" clip-rule="evenodd" d="M44.3191 8.28614L20.0226 4.00049L16.2539 25.362L40.5504 29.6477L44.3191 8.28614Z" fill="url(#paint1_linear_5011_2883)"/>
<path d="M39.6499 29.4898L16.2539 25.3626L16.5791 23.5366L28.1687 15.4156C28.9024 14.8986 29.928 15.082 30.4449 15.8158L34.8223 22.0692L40.0251 27.2219C40.542 27.9557 40.3669 28.9645 39.6499 29.4898Z" fill="url(#paint2_linear_5011_2883)"/>
<path d="M41.8504 22.2365L40.5414 29.6405L25.5166 26.9974L38.1318 19.7685C38.8655 19.2516 39.891 19.435 40.408 20.1687C40.3996 20.1687 41.8504 22.2365 41.8504 22.2365Z" fill="url(#paint3_linear_5011_2883)"/>
<path fill-rule="evenodd" clip-rule="evenodd" d="M36.9397 9.1206C38.0236 9.31237 38.7407 10.3463 38.5489 11.4218C38.3571 12.5058 37.3232 13.2228 36.2476 13.031C35.1637 12.8393 34.4467 11.8054 34.6384 10.7298C34.8219 9.65422 35.8558 8.92883 36.9397 9.1206Z" fill="#FFE6A6"/>
<path d="M23.1745 7.69538C23.608 6.71151 24.667 6.08617 25.7675 6.27794C26.9515 6.48639 27.777 7.52028 27.7353 8.68758C27.777 8.69592 27.8187 8.75428 27.8603 8.76262C28.7108 8.9127 29.3695 9.38796 29.4279 10.4719L21.4902 9.07112C21.6737 8.02889 22.3907 7.58698 23.1745 7.69538Z" fill="white"/>
<path d="M26.4672 46.0322C26.734 47.041 27.7846 47.6414 28.7935 47.3746L55.5496 40.204C56.5585 39.9372 57.1588 38.8866 56.892 37.8778L52.5897 21.8107C52.3229 20.8019 51.2723 20.2015 50.2634 20.4684L23.5073 27.6389C22.4984 27.9057 21.8981 28.9563 22.1649 29.9652L26.4672 46.0322Z" fill="url(#paint4_linear_5011_2883)"/>
<path d="M34.555 35.251C35.2887 37.9941 38.1069 39.62 40.8501 38.8862C43.5932 38.1525 45.2191 35.3343 44.4854 32.5912C43.7516 29.848 40.9335 28.2222 38.1903 28.9559C35.4472 29.6896 33.8213 32.5078 34.555 35.251Z" fill="#E6F3FB"/>
<path d="M37.5647 31.7585C37.2895 31.6668 37.1311 31.8252 37.1978 32.1003L38.4151 36.6528C38.4902 36.9279 38.707 36.9863 38.8987 36.7695L41.7503 33.6095C41.942 33.3927 41.8753 33.1509 41.6002 33.0592L37.5647 31.7585Z" fill="url(#paint5_linear_5011_2883)"/>
<path d="M26.6755 29.332C26.7338 29.5488 26.6004 29.774 26.3836 29.8323L24.6994 30.2826C24.4826 30.3409 24.2575 30.2075 24.1991 29.9907L24.0157 29.2987C23.9573 29.0819 24.0907 28.8568 24.3075 28.7984L25.9918 28.3482C26.2085 28.2898 26.4337 28.4232 26.492 28.64L26.6755 29.332Z" fill="#E6F3FB"/>
<path d="M31.529 28.0311C31.5873 28.2478 31.4539 28.473 31.2371 28.5313L29.5529 28.9816C29.3361 29.0399 29.111 28.9065 29.0526 28.6898L28.8692 27.9977C28.8108 27.7809 28.9442 27.5558 29.161 27.4974L30.8453 27.0472C31.062 26.9888 31.2872 27.1222 31.3455 27.339L31.529 28.0311Z" fill="#E6F3FB"/>
<path d="M36.3815 26.7305C36.4399 26.9473 36.3065 27.1724 36.0897 27.2308L34.4055 27.681C34.1887 27.7394 33.9635 27.606 33.9052 27.3892L33.7218 26.6971C33.6634 26.4803 33.7968 26.2552 34.0136 26.1969L35.6978 25.7466C35.9146 25.6883 36.1397 25.8217 36.1981 26.0384L36.3815 26.7305Z" fill="#E6F3FB"/>
<path d="M41.234 25.4295C41.2924 25.6463 41.159 25.8714 40.9422 25.9298L39.258 26.38C39.0412 26.4384 38.8161 26.305 38.7577 26.0882L38.5743 25.3962C38.5159 25.1794 38.6493 24.9542 38.8661 24.8959L40.5503 24.4456C40.7671 24.3873 40.9922 24.5207 41.0506 24.7375L41.234 25.4295Z" fill="#E6F3FB"/>
<path d="M46.0866 24.1289C46.145 24.3457 46.0115 24.5708 45.7948 24.6292L44.1105 25.0794C43.8937 25.1378 43.6686 25.0044 43.6103 24.7876L43.4268 24.0956C43.3685 23.8788 43.5019 23.6537 43.7186 23.5953L45.4029 23.1451C45.6197 23.0867 45.8448 23.2201 45.9032 23.4369L46.0866 24.1289Z" fill="#E6F3FB"/>
<path d="M50.9391 22.8281C50.9975 23.0449 50.8641 23.27 50.6473 23.3284L48.9631 23.7787C48.7463 23.837 48.5212 23.7036 48.4628 23.4868L48.2794 22.7948C48.221 22.578 48.3544 22.3529 48.5712 22.2945L50.2554 21.8443C50.4722 21.7859 50.6973 21.9193 50.7557 22.1361L50.9391 22.8281Z" fill="#E6F3FB"/>
<path d="M30.82 44.8072C30.8784 45.024 30.7449 45.2491 30.5282 45.3075L28.8439 45.7577C28.6271 45.8161 28.402 45.6827 28.3436 45.4659L28.1602 44.7738C28.1019 44.5571 28.2353 44.3319 28.452 44.2736L30.1363 43.8233C30.3531 43.765 30.5782 43.8984 30.6366 44.1151L30.82 44.8072Z" fill="#E6F3FB"/>
<path d="M35.6725 43.5064C35.7309 43.7232 35.5975 43.9483 35.3807 44.0067L33.6965 44.4569C33.4797 44.5153 33.2546 44.3819 33.1962 44.1651L33.0128 43.4731C32.9544 43.2563 33.0878 43.0311 33.3046 42.9728L34.9888 42.5225C35.2056 42.4642 35.4307 42.5976 35.4891 42.8144L35.6725 43.5064Z" fill="#E6F3FB"/>
<path d="M40.5251 42.2047C40.5834 42.4215 40.45 42.6466 40.2332 42.7049L38.549 43.1552C38.3322 43.2135 38.1071 43.0801 38.0487 42.8634L37.8653 42.1713C37.8069 41.9545 37.9403 41.7294 38.1571 41.671L39.8414 41.2208C40.0581 41.1624 40.2833 41.2958 40.3416 41.5126L40.5251 42.2047Z" fill="#E6F3FB"/>
<path d="M45.3786 40.905C45.437 41.1218 45.3036 41.3469 45.0868 41.4053L43.4025 41.8556C43.1857 41.9139 42.9606 41.7805 42.9023 41.5637L42.7188 40.8717C42.6605 40.6549 42.7939 40.4298 43.0106 40.3714L44.6949 39.9212C44.9117 39.8628 45.1368 39.9962 45.1952 40.213L45.3786 40.905Z" fill="#E6F3FB"/>
<path d="M50.2301 39.6041C50.2885 39.8208 50.1551 40.046 49.9383 40.1043L48.2541 40.5546C48.0373 40.6129 47.8122 40.4795 47.7538 40.2628L47.5704 39.5707C47.512 39.3539 47.6454 39.1288 47.8622 39.0704L49.5464 38.6202C49.7632 38.5618 49.9883 38.6952 50.0467 38.912L50.2301 39.6041Z" fill="#E6F3FB"/>
<path d="M55.0827 38.3035C55.141 38.5203 55.0076 38.7454 54.7908 38.8038L53.1066 39.254C52.8898 39.3124 52.6647 39.179 52.6063 38.9622L52.4229 38.2701C52.3645 38.0533 52.4979 37.8282 52.7147 37.7699L54.399 37.3196C54.6158 37.2613 54.8409 37.3947 54.8992 37.6114L55.0827 38.3035Z" fill="#E6F3FB"/>
<path d="M21.4231 23.3706L29.9444 36.5027C30.378 37.1614 30.1862 38.0619 29.5192 38.4871L18.7967 45.4492C18.138 45.8828 17.2375 45.691 16.8123 45.024L7.23213 30.266C6.79857 29.6073 6.99034 28.7068 7.65736 28.2816L16.7539 22.3784L21.4231 23.3706Z" fill="url(#paint6_linear_5011_2883)"/>
<path fill-rule="evenodd" clip-rule="evenodd" d="M12.3689 32.242L17.8969 28.6234C18.097 28.49 18.1554 28.2232 18.022 28.0314C17.8886 27.8313 17.6218 27.7729 17.43 27.9063L11.902 31.525C11.7019 31.6584 11.6435 31.9252 11.7769 32.1169C11.902 32.3171 12.1688 32.3754 12.3689 32.242Z" fill="url(#paint7_linear_5011_2883)"/>
<path fill-rule="evenodd" clip-rule="evenodd" d="M13.5428 34.0509L19.0707 30.4323C19.2708 30.2989 19.3292 30.0321 19.1958 29.8403C19.0624 29.6402 18.7956 29.5818 18.6038 29.7152L13.0758 33.3339C12.8757 33.4673 12.8174 33.7341 12.9508 33.9342C13.0758 34.126 13.3427 34.1843 13.5428 34.0509Z" fill="url(#paint8_linear_5011_2883)"/>
<path fill-rule="evenodd" clip-rule="evenodd" d="M21.932 33.9839L16.0371 37.911L18.3467 41.4629L24.2415 37.5358L21.932 33.9839Z" fill="url(#paint9_linear_5011_2883)"/>
<path d="M21.4989 23.4619L18.5806 25.3462L16.6963 22.428L21.4989 23.4619Z" fill="white"/>
<path d="M31.7042 59.7063C31.7042 59.7063 30.17 58.6725 29.4196 58.0888C25.0089 54.662 20.1813 52.1106 14.5866 51.2935C13.1525 51.085 11.7017 51.0183 10.2259 50.9349C9.62557 50.9016 9.16699 50.4013 9.16699 49.801V45.2986C23.283 47.7415 31.7042 59.7063 31.7042 59.7063Z" fill="#3836BD"/>
<path d="M31.0541 62C25.5761 58.6232 19.7647 56.5053 13.3278 56.547C12.6942 56.547 12.1855 56.0468 12.1855 55.4131V52.7617C19.6813 53.6371 25.918 56.7138 31.0541 62Z" fill="#3836BD"/>
<path d="M32.2539 59.7064C32.2539 59.7064 33.7881 58.6725 34.5385 58.0888C38.9492 54.662 43.7768 52.1106 49.3715 51.2935C50.8056 51.085 52.2564 51.0183 53.7322 50.935C54.3325 50.9016 54.7911 50.4013 54.7911 49.801V45.2986C40.6751 47.7416 32.2539 59.7064 32.2539 59.7064Z" fill="#3836BD"/>
<path d="M32.9043 62C38.3823 58.6232 44.1937 56.5054 50.6305 56.5471C51.2642 56.5471 51.7728 56.0468 51.7728 55.4131V52.7617C44.2771 53.6372 38.0404 56.7138 32.9043 62Z" fill="#3836BD"/>
<defs>
<linearGradient id="paint0_linear_5011_2883" x1="16.5335" y1="14.3664" x2="44.0477" y2="19.2179" gradientUnits="userSpaceOnUse">
<stop stop-color="#EEFBF4"/>
<stop offset="1" stop-color="#D0D9F2"/>
</linearGradient>
<linearGradient id="paint1_linear_5011_2883" x1="18.1371" y1="14.6817" x2="42.4327" y2="18.9657" gradientUnits="userSpaceOnUse">
<stop stop-color="#D1F0E7"/>
<stop offset="1" stop-color="#A9E9E7"/>
</linearGradient>
<linearGradient id="paint2_linear_5011_2883" x1="17.3245" y1="19.2896" x2="41.1708" y2="23.4944" gradientUnits="userSpaceOnUse">
<stop stop-color="#8EE77F"/>
<stop offset="1" stop-color="#07BCDF"/>
</linearGradient>
<linearGradient id="paint3_linear_5011_2883" x1="26.3643" y1="22.1776" x2="41.3982" y2="24.8284" gradientUnits="userSpaceOnUse">
<stop stop-color="#8EE77F"/>
<stop offset="1" stop-color="#07BCDF"/>
</linearGradient>
<linearGradient id="paint4_linear_5011_2883" x1="23.9967" y1="38.0791" x2="54.7257" y2="29.8456" gradientUnits="userSpaceOnUse">
<stop stop-color="#F7B286"/>
<stop offset="1" stop-color="#F76494"/>
</linearGradient>
<linearGradient id="paint5_linear_5011_2883" x1="41.9723" y1="33.2637" x2="37.6601" y2="34.4191" gradientUnits="userSpaceOnUse">
<stop stop-color="#F76494"/>
<stop offset="1" stop-color="#F7B286"/>
</linearGradient>
<linearGradient id="paint6_linear_5011_2883" x1="12.0156" y1="37.6403" x2="25.1472" y2="29.1183" gradientUnits="userSpaceOnUse">
<stop stop-color="#5EB4FA"/>
<stop offset="1" stop-color="#4677F1"/>
</linearGradient>
<linearGradient id="paint7_linear_5011_2883" x1="11.7699" y1="32.1095" x2="18.0373" y2="28.0421" gradientUnits="userSpaceOnUse">
<stop stop-color="white"/>
<stop offset="1" stop-color="#E6F3FB"/>
</linearGradient>
<linearGradient id="paint8_linear_5011_2883" x1="12.9409" y1="33.916" x2="19.2082" y2="29.8486" gradientUnits="userSpaceOnUse">
<stop stop-color="white"/>
<stop offset="1" stop-color="#E6F3FB"/>
</linearGradient>
<linearGradient id="paint9_linear_5011_2883" x1="17.1759" y1="39.6453" x2="23.1141" y2="35.7915" gradientUnits="userSpaceOnUse">
<stop stop-color="white"/>
<stop offset="1" stop-color="#E6F3FB"/>
</linearGradient>
</defs>
</svg>
