<svg width="606" height="200" viewBox="0 0 606 200" fill="none" xmlns="http://www.w3.org/2000/svg">
<path d="M45.1674 177.966V50.1853H17.179C11.3884 50.1853 7.14185 48.4481 4.2465 44.9737C1.35116 41.4993 0 37.2528 0 32.4272C0 27.7947 1.54418 23.7412 4.63255 20.2668C7.72092 16.7924 11.7744 15.0552 17.179 15.0552H110.795C116.007 15.0552 120.253 16.7924 123.342 20.2668C126.43 23.7412 127.974 27.7947 127.974 32.4272C127.974 37.4458 126.623 41.4993 123.728 44.9737C120.832 48.4481 116.586 50.1853 110.795 50.1853H83.1929V177.966C83.1929 184.336 81.4557 189.162 77.9813 192.636C74.5068 196.111 69.8743 197.848 63.8906 197.848C58.2929 197.848 53.6604 196.111 50.186 192.636C46.9046 188.969 45.1674 184.143 45.1674 177.966Z" fill="#311A8C"/>
<path d="M230.082 83.1947V173.722C230.082 180.864 229.31 185.883 227.959 188.971C225.256 194.762 220.045 197.657 212.131 197.657C207.112 197.657 203.252 196.306 200.742 193.797C198.233 191.288 196.303 187.234 194.952 181.829C190.126 187.427 184.721 191.674 178.931 194.762C173.14 197.657 166.77 199.201 159.821 199.201C142.642 199.201 128.359 192.639 116.777 179.32C105.196 166.002 99.4053 149.016 99.4053 128.555C99.4053 108.481 105.196 91.6877 116.97 78.1761C128.745 64.6645 143.028 57.9087 160.014 57.9087C167.349 57.9087 173.912 59.2598 179.896 61.9622C185.88 64.6645 190.898 68.911 194.952 74.7017C195.531 70.0691 197.461 66.4017 200.742 63.6994C204.024 60.804 207.884 59.4529 212.324 59.4529C220.045 59.4529 225.256 62.1552 227.766 67.5598C229.31 70.6482 230.082 75.8598 230.082 83.1947ZM135.887 128.555C135.887 138.592 138.203 146.892 142.835 153.841C148.24 161.755 155.575 165.809 165.033 165.809C174.105 165.809 181.054 161.948 186.459 154.034C191.284 146.892 193.6 138.399 193.6 128.555C193.6 118.904 191.284 110.604 186.652 103.655C181.247 95.5482 174.105 91.4947 165.033 91.4947C155.961 91.4947 148.626 95.5482 143.221 103.462C138.203 110.411 135.887 118.904 135.887 128.555Z" fill="#311A8C"/>
<path d="M248.48 177.388V20.4604C248.48 14.2837 250.218 9.45812 253.499 5.59766C256.973 1.93023 261.22 0 266.818 0C272.222 0 276.662 1.93023 280.136 5.59766C283.611 9.2651 285.155 14.2837 285.155 20.4604V70.4534C294.613 61.9604 306.194 57.7138 319.706 57.7138C338.429 57.7138 353.099 65.2417 363.908 80.2975C373.752 94.0022 378.578 110.602 378.578 129.904C378.578 148.049 373.173 163.876 362.364 177.581C350.783 192.058 336.306 199.2 318.548 199.2C311.599 199.2 305.036 197.848 298.859 194.953C292.683 192.058 288.05 188.004 284.769 182.407C283.418 187.425 281.294 191.286 278.399 193.795C275.504 196.304 271.45 197.655 266.432 197.655C261.027 197.655 256.587 195.725 253.113 192.058C250.025 188.39 248.48 183.372 248.48 177.388ZM284.962 127.395C284.962 137.625 287.085 146.118 291.525 153.067C296.736 161.367 304.071 165.614 313.336 165.614C322.408 165.614 329.357 161.56 334.762 153.646C339.587 146.504 341.904 138.204 341.904 128.36C341.904 118.516 339.587 110.409 334.955 103.46C329.55 95.3533 322.408 91.2998 313.336 91.2998C304.264 91.2998 297.315 94.7742 292.297 101.916C287.471 109.251 284.962 117.744 284.962 127.395Z" fill="#311A8C"/>
<path d="M469.879 80.6844C469.879 84.9309 468.528 88.9844 466.018 92.8449C463.509 96.7053 460.228 98.6355 456.174 98.6355C453.665 98.6355 447.874 97.0914 439.188 94.003C434.363 92.2658 430.309 91.4937 427.221 91.4937C417.377 91.4937 409.656 95.3542 403.865 102.882C398.846 109.638 396.144 118.324 396.144 128.554C396.144 138.591 398.846 147.084 404.058 154.033C410.042 161.754 417.763 165.808 427.221 165.808C430.309 165.808 434.17 165.035 438.995 163.298C443.821 161.754 448.839 160.017 454.051 158.087C458.49 158.087 462.158 159.631 465.246 162.719C468.335 165.808 469.879 169.475 469.879 173.914C469.879 182.214 464.088 188.777 452.507 193.796C443.628 197.463 434.556 199.394 425.098 199.394C405.795 199.394 389.967 192.638 377.807 178.933C365.646 165.228 359.47 148.435 359.47 128.747C359.47 109.638 365.646 93.0379 378 78.9472C390.353 64.8565 405.988 57.9077 425.098 57.9077C435.521 57.9077 444.786 59.4519 452.893 62.5403C464.281 66.5937 469.879 72.7705 469.879 80.6844Z" fill="url(#paint0_linear_5228_2845)"/>
<path d="M605.443 83.1937V173.721C605.443 180.863 604.671 185.882 603.32 188.97C600.618 194.761 595.406 197.656 587.492 197.656C582.473 197.656 578.613 196.305 576.104 193.796C573.594 191.287 571.664 187.233 570.313 181.828C565.487 187.426 560.083 191.673 554.292 194.761C548.501 197.656 542.132 199.2 535.183 199.2C518.004 199.2 503.72 192.638 492.139 179.319C480.557 166.001 474.767 149.015 474.767 128.554C474.767 108.48 480.557 91.6867 492.332 78.1751C504.106 64.6635 518.39 57.9077 535.376 57.9077C542.711 57.9077 549.273 59.2589 555.257 61.9612C561.241 64.6635 566.259 68.91 570.313 74.7007C570.892 70.0682 572.822 66.4007 576.104 63.6984C579.385 60.8031 583.245 59.4519 587.685 59.4519C595.406 59.4519 600.618 62.1542 603.127 67.5589C604.671 70.6472 605.443 75.8588 605.443 83.1937ZM511.248 128.554C511.248 138.591 513.564 146.891 518.197 153.84C523.601 161.754 530.936 165.808 540.394 165.808C549.466 165.808 556.415 161.947 561.82 154.033C566.646 146.891 568.962 138.398 568.962 128.554C568.962 118.903 566.645 110.603 562.013 103.654C556.608 95.5472 549.466 91.4937 540.394 91.4937C531.322 91.4937 523.987 95.5472 518.583 103.461C513.564 110.41 511.248 118.903 511.248 128.554Z" fill="url(#paint1_linear_5228_2845)"/>
<path fill-rule="evenodd" clip-rule="evenodd" d="M370.44 93.5802C371.5 93.2706 372.611 93.8791 372.92 94.9394L371 95.5C372.92 94.9394 372.92 94.9393 372.92 94.9394L372.923 94.9487L372.928 94.9663L372.945 95.0267C372.96 95.078 372.98 95.1516 373.006 95.2472C373.057 95.4385 373.13 95.7179 373.22 96.0842C373.4 96.8169 373.648 97.8971 373.927 99.3144L370.003 100.089C369.735 98.7333 369.501 97.7126 369.335 97.0377C369.252 96.7002 369.187 96.4492 369.143 96.2859C369.121 96.2043 369.104 96.1446 369.094 96.107L369.083 96.0672L369.081 96.0606C368.771 95.0004 369.38 93.8898 370.44 93.5802ZM375.287 107.971C375.598 110.516 375.885 113.419 376.105 116.669L372.114 116.939C371.899 113.763 371.619 110.932 371.316 108.457L375.287 107.971ZM376.488 125.375C376.518 126.782 376.534 128.235 376.534 129.733C376.534 131.211 376.512 132.641 376.47 134.024L372.472 133.904C372.512 132.562 372.534 131.171 372.534 129.733C372.534 128.264 372.518 126.839 372.489 125.46L376.488 125.375ZM375.934 142.597C375.623 145.806 375.215 148.652 374.771 151.136L370.833 150.431C371.259 148.052 371.652 145.311 371.953 142.211L375.934 142.597ZM371.323 163.823C371.323 163.824 371.323 163.824 369.5 163L371.323 163.823C370.868 164.83 369.683 165.277 368.677 164.822C367.671 164.368 367.224 163.185 367.677 162.179C367.677 162.179 367.677 162.179 367.677 162.179C367.677 162.179 367.677 162.178 367.677 162.178C367.677 162.178 367.677 162.177 367.677 162.178C367.677 162.178 367.678 162.177 367.678 162.177L367.678 162.175L367.692 162.143C367.706 162.112 367.728 162.06 367.758 161.987C367.819 161.841 367.91 161.612 368.027 161.301C368.26 160.679 368.592 159.726 368.972 158.443L372.808 159.579C372.4 160.954 372.038 161.996 371.773 162.703C371.641 163.057 371.532 163.327 371.455 163.514C371.417 163.608 371.386 163.68 371.363 163.732C371.352 163.758 371.343 163.778 371.336 163.794L371.328 163.813L371.325 163.819L371.324 163.822L371.323 163.823Z" fill="#FB72CA"/>
<defs>
<linearGradient id="paint0_linear_5228_2845" x1="414.674" y1="57.9077" x2="414.674" y2="199.394" gradientUnits="userSpaceOnUse">
<stop stop-color="#DD3B9C"/>
<stop offset="0.901042" stop-color="#5105CF"/>
</linearGradient>
<linearGradient id="paint1_linear_5228_2845" x1="540.105" y1="57.9077" x2="540.105" y2="199.2" gradientUnits="userSpaceOnUse">
<stop stop-color="#DD3B9C"/>
<stop offset="0.901042" stop-color="#5105CF"/>
</linearGradient>
</defs>
</svg>
