<svg width="32" height="32" viewBox="0 0 32 32" fill="none" xmlns="http://www.w3.org/2000/svg">
    <path d="M8.53622 10.0107L11.4835 16.0289H5L8.53622 10.0107Z" fill="#FFECB2"/>
    <path d="M9.00909 10.9762L8.53622 10.0107L5 16.0289H6.04005L9.00909 10.9762Z" fill="#EFD99C"/>
    <path d="M11.4835 16.0293L16.8896 32L13.5241 27.4789L13.3995 27.311L9.67355 22.3067L5 16.0293H11.4835Z" fill="#FFC230"/>
    <path d="M15.075 28.3062L14.9504 28.1383L11.2243 23.1339L6.55076 16.8566H11.7636L11.4835 16.0293H5L9.67355 22.3067L13.3995 27.311L13.5241 27.4789L16.8896 32L16.1096 29.6961L15.075 28.3062Z" fill="#EAAA28"/>
    <path d="M27.9872 16.0293L23.5607 22.3993L20.1589 27.2947L19.9516 27.5935L16.8896 32L21.5035 16.0293H27.9872Z" fill="#FFC230"/>
    <path d="M22.055 16.7601H27.4793L27.9872 16.0293H21.5035L16.8896 32L18.195 30.1214L22.055 16.7601Z" fill="#EAAA28"/>
    <path d="M24.4507 10.0107L27.987 16.0289H21.5034L24.4507 10.0107Z" fill="#FFECB2"/>
    <path d="M24.9153 10.8013L24.4507 10.0107L21.5034 16.0289H22.3551L24.9153 10.8013Z" fill="#EFD99C"/>
    <path d="M24.4515 10.0107L21.5042 16.0289L16.1997 10.0107H24.4515Z" fill="#F78F4B"/>
    <path d="M17.7577 10.7139H24.1071L24.4515 10.0107H16.1997L21.5042 16.0289L21.8393 15.3446L17.7577 10.7139Z" fill="#E27D44"/>
    <path d="M16.1984 10.0107L11.4829 16.0289L8.53564 10.0107H16.1984Z" fill="#F78F4B"/>
    <path d="M9.66625 10.7553H15.615L16.1984 10.0107H8.53564L11.4829 16.0289L11.9543 15.4273L9.66625 10.7553Z" fill="#E27D44"/>
    <path d="M16.1989 10.0107L21.5034 16.0289H11.4834L16.1989 10.0107Z" fill="#FFC230"/>
    <path d="M16.7246 10.6072L16.1989 10.0107L11.4834 16.0289H12.4765L16.7246 10.6072Z" fill="#EAAA28"/>
    <path d="M21.5034 16.0293L16.8895 32L11.4834 16.0293H21.5034Z" fill="#F78F4B"/>
    <path d="M12.5633 16.829H21.2723L21.5034 16.0293H11.4834L16.8895 32L17.262 30.7104L12.5633 16.829Z" fill="#F78F4B"/>
    <path d="M16.116 6.3565C15.8114 6.3565 15.5645 6.10953 15.5645 5.80499V0.551517C15.5645 0.246969 15.8114 0 16.116 0C16.4206 0 16.6675 0.246969 16.6675 0.551517V5.80499C16.6675 6.10953 16.4206 6.3565 16.116 6.3565Z" fill="#FFC230"/>
    <path d="M11.613 7.32446C11.4232 7.32446 11.2385 7.2264 11.136 7.0508L9.34186 4.38508C9.18832 4.122 9.27722 3.78425 9.54029 3.63082C9.80381 3.47739 10.1412 3.56641 10.2947 3.82926L12.0888 6.49498C12.2424 6.75806 12.1535 7.0958 11.8904 7.24924C11.8028 7.3002 11.7072 7.32446 11.613 7.32446Z" fill="#FFC230"/>
    <path d="M19.8297 6.79461C19.7806 6.61125 19.8275 6.40752 19.9706 6.26309L22.0811 3.84009C22.2955 3.6237 22.6447 3.62215 22.861 3.83655C23.0774 4.05138 23.0788 4.40034 22.8646 4.61657L20.7541 7.03956C20.5397 7.25596 20.1905 7.2575 19.9742 7.0431C19.9023 6.9717 19.8541 6.8856 19.8297 6.79461Z" fill="#FFC230"/>
</svg>
    