<svg width="26" height="26" viewBox="0 0 26 26" fill="none" xmlns="http://www.w3.org/2000/svg">
<rect x="9" y="19" width="8" height="2" rx="1" fill="currentColor"/>
<path d="M21.8113 8.66552C21.8113 9.34349 21.2616 9.89317 20.5836 9.89317C20.576 9.89317 20.5696 9.88929 20.562 9.88917L19.0115 15.8469C18.9263 16.3113 18.5212 16.6519 18.0454 16.6519C18.0454 16.6519 15.3477 15.5389 12.9722 15.5389C10.5967 15.5389 7.89891 16.6519 7.89891 16.6519C7.42442 16.6519 7.01746 16.3125 6.93275 15.8457L5.38253 9.89011C5.37486 9.89011 5.36841 9.89317 5.33312 9.89317C4.65515 9.89317 4.10547 9.34349 4.10547 8.66552C4.10547 7.98755 4.68277 7.43787 5.33312 7.43787C5.98347 7.43787 6.56077 7.98755 6.56077 8.66552C6.56077 8.94168 6.45271 9.1839 6.29876 9.38892L9.04962 11.5895C9.53791 11.9802 10.2619 11.821 10.5415 11.2617L12.3093 7.72606C11.9624 7.50969 11.7169 7.1414 11.7169 6.70128C11.7169 6.02331 12.2939 5.47363 12.9722 5.47363C13.6505 5.47363 14.1722 6.02331 14.1722 6.70128C14.1722 7.1414 13.9278 7.50969 13.5799 7.72637L15.3477 11.262C15.6273 11.8212 16.3516 11.9802 16.8396 11.5898L19.5904 9.38922C19.4634 9.18421 19.356 8.91412 19.356 8.66552C19.356 7.98725 19.9053 7.43787 20.5836 7.43787C21.2619 7.43787 21.8113 7.98725 21.8113 8.66552Z" fill="currentColor"/>
</svg>
