<?xml version="1.0" encoding="utf-8"?>
<!-- Generator: Adobe Illustrator 23.0.1, SVG Export Plug-In . SVG Version: 6.00 Build 0)  -->
<svg version="1.2" baseProfile="tiny" id="Layer_1" xmlns="http://www.w3.org/2000/svg" xmlns:xlink="http://www.w3.org/1999/xlink"
	 x="0px" y="0px" viewBox="0 0 1024 1024" xml:space="preserve">
<linearGradient id="SVGID_1_" gradientUnits="userSpaceOnUse" x1="512" y1="974.9565" x2="512" y2="49.0435">
	<stop  offset="0" style="stop-color:#5359E6"/>
	<stop  offset="0.5053" style="stop-color:#7814C0"/>
	<stop  offset="0.9348" style="stop-color:#D8399F"/>
	<stop  offset="1" style="stop-color:#FF7061"/>
</linearGradient>
<path fill="url(#SVGID_1_)" d="M294,920.5L49,975l54.4-245C67.6,662.9,48.9,588,49,512C49,256.3,256.3,49,512,49s463,207.3,463,463
	S767.7,975,512,975C436,975.1,361.1,956.4,294,920.5z M307.4,822.7l30.2,16.2c53.6,28.7,113.5,43.6,174.3,43.5
	c204.5,0,370.4-165.8,370.4-370.4S716.5,141.6,512,141.6S141.6,307.5,141.6,512c0,61.8,15,121.2,43.5,174.3l16.2,30.2L171,853
	C171,853,307.4,822.7,307.4,822.7z M280.5,512h92.6c0,76.7,62.2,138.9,138.9,138.9S650.9,588.7,650.9,512h92.6
	c0,127.8-103.6,231.5-231.5,231.5S280.5,639.8,280.5,512z"/>
</svg>
