<svg width="512" height="512" viewBox="0 0 512 512" fill="none" xmlns="http://www.w3.org/2000/svg">
<path d="M135.211 417.053V25.5202L118.958 14.6357C49.8526 42.3771 1 109.872 1 188.895V323.105C1 426.877 85.1232 511 188.895 511H323.105C386.48 511 442.325 479.487 476.333 431.4V417.053H135.211Z" fill="#2962FF"/>
<path d="M323.105 1H188.894C164.132 1 140.565 5.91211 118.917 14.6089C74.1845 58.0395 41.2627 128.876 41.2627 188.895C41.2627 279.769 53.8248 332.97 91.0817 384.936C93.9806 388.976 95.873 393.7 96.128 398.652C96.7051 409.859 94.3967 430.393 74.198 448.874C72.0238 450.86 73.4061 454.497 76.3453 454.618C88.988 455.168 114.501 454.43 140.726 442.848C148.202 439.546 156.711 440.124 163.931 443.962C208.395 467.57 260.469 470.737 309.684 470.737C372.441 470.737 435.023 456.779 476.333 431.601C498.089 400.934 511 363.556 511 323.105V188.895C511 85.1232 426.876 1 323.105 1Z" fill="#EEEEEE"/>
<path d="M427.119 296.263C399.378 296.263 376.79 273.675 376.79 245.934C376.79 218.193 399.378 195.605 427.119 195.605C454.86 195.605 477.448 218.193 477.448 245.934C477.448 273.675 454.86 296.263 427.119 296.263ZM427.119 215.737C410.477 215.737 396.922 229.292 396.922 245.934C396.922 262.576 410.477 276.132 427.119 276.132C443.761 276.132 457.316 262.576 457.316 245.934C457.316 229.292 443.761 215.737 427.119 215.737Z" fill="#2962FF"/>
<path d="M356.658 296.263H343.237C339.533 296.263 336.526 293.257 336.526 289.553V175.474H356.658V296.263Z" fill="#2962FF"/>
<path d="M296.264 198.96V205.926C287.822 199.538 277.434 195.605 266.066 195.605C238.325 195.605 215.737 218.193 215.737 245.934C215.737 273.675 238.325 296.263 266.066 296.263C277.434 296.263 287.822 292.331 296.264 285.942V289.553C296.264 293.257 299.27 296.263 302.974 296.263H316.395V198.96H296.264ZM266.066 276.132C249.424 276.132 235.869 262.576 235.869 245.934C235.869 229.292 249.424 215.737 266.066 215.737C282.708 215.737 296.264 229.292 296.264 245.934C296.264 262.576 282.708 276.132 266.066 276.132Z" fill="#2962FF"/>
<path d="M219.093 175.474H111.724V195.605H183.138L108.369 282.842H108.718C106.53 285.674 105.014 289.056 105.014 292.908V296.263H205.672C209.376 296.263 212.382 293.257 212.382 289.553V276.132H140.969L215.737 188.895H215.388C217.576 186.063 219.093 182.681 219.093 178.829V175.474Z" fill="#2962FF"/>
</svg>
