<svg width="23" height="23" viewBox="0 0 23 23" fill="none" xmlns="http://www.w3.org/2000/svg">
<path d="M13.125 6.5625C13.125 6.8111 13.0262 7.0496 12.8504 7.2254C12.6746 7.4012 12.4361 7.5 12.1875 7.5C10.9443 7.5 9.752 7.9939 8.8729 8.8729C7.9939 9.752 7.5 10.9443 7.5 12.1875C7.5 12.4361 7.4012 12.6746 7.2254 12.8504C7.0496 13.0262 6.8111 13.125 6.5625 13.125C6.3139 13.125 6.0754 13.0262 5.89959 12.8504C5.72377 12.6746 5.625 12.4361 5.625 12.1875C5.625 10.9443 5.13114 9.752 4.25206 8.8729C3.37299 7.9939 2.1807 7.5 0.9375 7.5C0.68886 7.5 0.4504 7.4012 0.27459 7.2254C0.09877 7.0496 0 6.8111 0 6.5625C0 6.3139 0.09877 6.0754 0.27459 5.89959C0.4504 5.72377 0.68886 5.625 0.9375 5.625C2.1807 5.625 3.37299 5.13114 4.25206 4.25206C5.13114 3.37299 5.625 2.1807 5.625 0.9375C5.625 0.68886 5.72377 0.4504 5.89959 0.27459C6.0754 0.09877 6.3139 0 6.5625 0C6.8111 0 7.0496 0.09877 7.2254 0.27459C7.4012 0.4504 7.5 0.68886 7.5 0.9375C7.5 2.1807 7.9939 3.37299 8.8729 4.25206C9.752 5.13114 10.9443 5.625 12.1875 5.625C12.4361 5.625 12.6746 5.72377 12.8504 5.89959C13.0262 6.0754 13.125 6.3139 13.125 6.5625Z" fill="url(#paint0_linear_5238_2459)"/>
<path d="M14.0625 18.75C14.0625 18.9986 13.9637 19.2371 13.7879 19.4129C13.6121 19.5887 13.3736 19.6875 13.125 19.6875C12.6277 19.6875 12.1508 19.885 11.7992 20.2367C11.4475 20.5883 11.25 21.0652 11.25 21.5625C11.25 21.8111 11.1512 22.0496 10.9754 22.2254C10.7996 22.4012 10.5611 22.5 10.3125 22.5C10.0639 22.5 9.8254 22.4012 9.6496 22.2254C9.4738 22.0496 9.375 21.8111 9.375 21.5625C9.375 21.0652 9.1775 20.5883 8.8258 20.2367C8.4742 19.885 7.9973 19.6875 7.5 19.6875C7.2514 19.6875 7.0129 19.5887 6.8371 19.4129C6.6613 19.2371 6.5625 18.9986 6.5625 18.75C6.5625 18.5014 6.6613 18.2629 6.8371 18.0871C7.0129 17.9113 7.2514 17.8125 7.5 17.8125C7.9973 17.8125 8.4742 17.615 8.8258 17.2633C9.1775 16.9117 9.375 16.4348 9.375 15.9375C9.375 15.6889 9.4738 15.4504 9.6496 15.2746C9.8254 15.0988 10.0639 15 10.3125 15C10.5611 15 10.7996 15.0988 10.9754 15.2746C11.1512 15.4504 11.25 15.6889 11.25 15.9375C11.25 16.4348 11.4475 16.9117 11.7992 17.2633C12.1508 17.615 12.6277 17.8125 13.125 17.8125C13.3736 17.8125 13.6121 17.9113 13.7879 18.0871C13.9637 18.2629 14.0625 18.5014 14.0625 18.75Z" fill="url(#paint1_linear_5238_2459)"/>
<path d="M22.5 12.1875C22.5 12.4361 22.4012 12.6746 22.2254 12.8504C22.0496 13.0262 21.8111 13.125 21.5625 13.125C20.5679 13.125 19.6141 13.5201 18.9109 14.2234C18.2076 14.9266 17.8125 15.8804 17.8125 16.875C17.8125 17.1236 17.7137 17.3621 17.5379 17.5379C17.3621 17.7137 17.1236 17.8125 16.875 17.8125C16.6264 17.8125 16.3879 17.7137 16.2121 17.5379C16.0363 17.3621 15.9375 17.1236 15.9375 16.875C15.9375 15.8804 15.5424 14.9266 14.8391 14.2234C14.1359 13.5201 13.1821 13.125 12.1875 13.125C11.9389 13.125 11.7004 13.0262 11.5246 12.8504C11.3488 12.6746 11.25 12.4361 11.25 12.1875C11.25 11.9389 11.3488 11.7004 11.5246 11.5246C11.7004 11.3488 11.9389 11.25 12.1875 11.25C13.1821 11.25 14.1359 10.8549 14.8391 10.1517C15.5424 9.4484 15.9375 8.4946 15.9375 7.5C15.9375 7.2514 16.0363 7.0129 16.2121 6.8371C16.3879 6.6613 16.6264 6.5625 16.875 6.5625C17.1236 6.5625 17.3621 6.6613 17.5379 6.8371C17.7137 7.0129 17.8125 7.2514 17.8125 7.5C17.8125 8.4946 18.2076 9.4484 18.9109 10.1517C19.6141 10.8549 20.5679 11.25 21.5625 11.25C21.8111 11.25 22.0496 11.3488 22.2254 11.5246C22.4012 11.7004 22.5 11.9389 22.5 12.1875Z" fill="url(#paint2_linear_5238_2459)"/>
<defs>
<linearGradient id="paint0_linear_5238_2459" x1="6.5625" y1="0" x2="6.5625" y2="13.125" gradientUnits="userSpaceOnUse">
<stop stop-color="#6D42E7"/>
<stop offset="1" stop-color="#E45DC2"/>
</linearGradient>
<linearGradient id="paint1_linear_5238_2459" x1="10.3125" y1="15" x2="10.3125" y2="22.5" gradientUnits="userSpaceOnUse">
<stop stop-color="#6D42E7"/>
<stop offset="1" stop-color="#E45DC2"/>
</linearGradient>
<linearGradient id="paint2_linear_5238_2459" x1="16.875" y1="6.5625" x2="16.875" y2="17.8125" gradientUnits="userSpaceOnUse">
<stop stop-color="#6D42E7"/>
<stop offset="1" stop-color="#E45DC2"/>
</linearGradient>
</defs>
</svg>
