<svg width="30" height="30" viewBox="0 0 30 30" fill="none" xmlns="http://www.w3.org/2000/svg">
<path d="M16.875 10.3125C16.875 10.5611 16.7762 10.7996 16.6004 10.9754C16.4246 11.1512 16.1861 11.25 15.9375 11.25C14.6943 11.25 13.502 11.7439 12.6229 12.6229C11.7439 13.502 11.25 14.6943 11.25 15.9375C11.25 16.1861 11.1512 16.4246 10.9754 16.6004C10.7996 16.7762 10.5611 16.875 10.3125 16.875C10.0639 16.875 9.8254 16.7762 9.64959 16.6004C9.47377 16.4246 9.375 16.1861 9.375 15.9375C9.375 14.6943 8.88114 13.502 8.00206 12.6229C7.12299 11.7439 5.9307 11.25 4.6875 11.25C4.43886 11.25 4.2004 11.1512 4.02459 10.9754C3.84877 10.7996 3.75 10.5611 3.75 10.3125C3.75 10.0639 3.84877 9.8254 4.02459 9.64959C4.2004 9.47377 4.43886 9.375 4.6875 9.375C5.9307 9.375 7.12299 8.88114 8.00206 8.00206C8.88114 7.12299 9.375 5.9307 9.375 4.6875C9.375 4.43886 9.47377 4.2004 9.64959 4.02459C9.8254 3.84877 10.0639 3.75 10.3125 3.75C10.5611 3.75 10.7996 3.84877 10.9754 4.02459C11.1512 4.2004 11.25 4.43886 11.25 4.6875C11.25 5.9307 11.7439 7.12299 12.6229 8.00206C13.502 8.88114 14.6943 9.375 15.9375 9.375C16.1861 9.375 16.4246 9.47377 16.6004 9.64959C16.7762 9.8254 16.875 10.0639 16.875 10.3125Z" fill="currentColor"/>
<path d="M17.8125 22.5C17.8125 22.7486 17.7137 22.9871 17.5379 23.1629C17.3621 23.3387 17.1236 23.4375 16.875 23.4375C16.3777 23.4375 15.9008 23.635 15.5492 23.9867C15.1975 24.3383 15 24.8152 15 25.3125C15 25.5611 14.9012 25.7996 14.7254 25.9754C14.5496 26.1512 14.3111 26.25 14.0625 26.25C13.8139 26.25 13.5754 26.1512 13.3996 25.9754C13.2238 25.7996 13.125 25.5611 13.125 25.3125C13.125 24.8152 12.9275 24.3383 12.5758 23.9867C12.2242 23.635 11.7473 23.4375 11.25 23.4375C11.0014 23.4375 10.7629 23.3387 10.5871 23.1629C10.4113 22.9871 10.3125 22.7486 10.3125 22.5C10.3125 22.2514 10.4113 22.0129 10.5871 21.8371C10.7629 21.6613 11.0014 21.5625 11.25 21.5625C11.7473 21.5625 12.2242 21.365 12.5758 21.0133C12.9275 20.6617 13.125 20.1848 13.125 19.6875C13.125 19.4389 13.2238 19.2004 13.3996 19.0246C13.5754 18.8488 13.8139 18.75 14.0625 18.75C14.3111 18.75 14.5496 18.8488 14.7254 19.0246C14.9012 19.2004 15 19.4389 15 19.6875C15 20.1848 15.1975 20.6617 15.5492 21.0133C15.9008 21.365 16.3777 21.5625 16.875 21.5625C17.1236 21.5625 17.3621 21.6613 17.5379 21.8371C17.7137 22.0129 17.8125 22.2514 17.8125 22.5Z" fill="currentColor"/>
<path d="M26.25 15.9375C26.25 16.1861 26.1512 16.4246 25.9754 16.6004C25.7996 16.7762 25.5611 16.875 25.3125 16.875C24.3179 16.875 23.3641 17.2701 22.6609 17.9734C21.9576 18.6766 21.5625 19.6304 21.5625 20.625C21.5625 20.8736 21.4637 21.1121 21.2879 21.2879C21.1121 21.4637 20.8736 21.5625 20.625 21.5625C20.3764 21.5625 20.1379 21.4637 19.9621 21.2879C19.7863 21.1121 19.6875 20.8736 19.6875 20.625C19.6875 19.6304 19.2924 18.6766 18.5891 17.9734C17.8859 17.2701 16.9321 16.875 15.9375 16.875C15.6889 16.875 15.4504 16.7762 15.2746 16.6004C15.0988 16.4246 15 16.1861 15 15.9375C15 15.6889 15.0988 15.4504 15.2746 15.2746C15.4504 15.0988 15.6889 15 15.9375 15C16.9321 15 17.8859 14.6049 18.5891 13.9017C19.2924 13.1984 19.6875 12.2446 19.6875 11.25C19.6875 11.0014 19.7863 10.7629 19.9621 10.5871C20.1379 10.4113 20.3764 10.3125 20.625 10.3125C20.8736 10.3125 21.1121 10.4113 21.2879 10.5871C21.4637 10.7629 21.5625 11.0014 21.5625 11.25C21.5625 12.2446 21.9576 13.1984 22.6609 13.9017C23.3641 14.6049 24.3179 15 25.3125 15C25.5611 15 25.7996 15.0988 25.9754 15.2746C26.1512 15.4504 26.25 15.6889 26.25 15.9375Z" fill="currentColor"/>
</svg>
