<svg width="40" height="40" viewBox="0 0 40 40" fill="none" xmlns="http://www.w3.org/2000/svg">
<g clip-path="url(#clip0_5178_2008)">
<rect width="40" height="40" fill="white"/>
<circle cx="20" cy="20" r="20" fill="url(#paint0_linear_5178_2008)"/>
<path d="M22.125 14.6875C22.125 14.9692 22.013 15.2395 21.8138 15.4388C21.6145 15.638 21.3442 15.75 21.0625 15.75C19.6535 15.75 18.3023 16.3098 17.306 17.306C16.3098 18.3023 15.75 19.6535 15.75 21.0625C15.75 21.3442 15.638 21.6145 15.4388 21.8138C15.2395 22.013 14.9692 22.125 14.6875 22.125C14.4058 22.125 14.1355 22.013 13.9362 21.8138C13.7369 21.6145 13.625 21.3442 13.625 21.0625C13.625 19.6535 13.0653 18.3023 12.069 17.306C11.0727 16.3098 9.72146 15.75 8.3125 15.75C8.03071 15.75 7.76045 15.638 7.5612 15.4388C7.36194 15.2395 7.25 14.9692 7.25 14.6875C7.25 14.4058 7.36194 14.1355 7.5612 13.9362C7.76045 13.7369 8.03071 13.625 8.3125 13.625C9.72146 13.625 11.0727 13.0653 12.069 12.069C13.0653 11.0727 13.625 9.72146 13.625 8.3125C13.625 8.03071 13.7369 7.76045 13.9362 7.5612C14.1355 7.36194 14.4058 7.25 14.6875 7.25C14.9692 7.25 15.2395 7.36194 15.4388 7.5612C15.638 7.76045 15.75 8.03071 15.75 8.3125C15.75 9.72146 16.3098 11.0727 17.306 12.069C18.3023 13.0653 19.6535 13.625 21.0625 13.625C21.3442 13.625 21.6145 13.7369 21.8138 13.9362C22.013 14.1355 22.125 14.4058 22.125 14.6875Z" fill="white"/>
<path d="M23.1875 28.5C23.1875 28.7817 23.0755 29.052 22.8763 29.2513C22.677 29.4505 22.4067 29.5625 22.125 29.5625C21.5614 29.5625 21.0209 29.7863 20.6224 30.1849C20.2238 30.5834 20 31.1239 20 31.6875C20 31.9692 19.888 32.2395 19.6888 32.4388C19.4895 32.638 19.2192 32.75 18.9375 32.75C18.6558 32.75 18.3855 32.638 18.1862 32.4388C17.987 32.2395 17.875 31.9692 17.875 31.6875C17.875 31.1239 17.6512 30.5834 17.2526 30.1849C16.8541 29.7863 16.3136 29.5625 15.75 29.5625C15.4683 29.5625 15.198 29.4505 14.9987 29.2513C14.7995 29.052 14.6875 28.7817 14.6875 28.5C14.6875 28.2183 14.7995 27.948 14.9987 27.7487C15.198 27.5495 15.4683 27.4375 15.75 27.4375C16.3136 27.4375 16.8541 27.2137 17.2526 26.8151C17.6512 26.4166 17.875 25.8761 17.875 25.3125C17.875 25.0308 17.987 24.7605 18.1862 24.5612C18.3855 24.362 18.6558 24.25 18.9375 24.25C19.2192 24.25 19.4895 24.362 19.6888 24.5612C19.888 24.7605 20 25.0308 20 25.3125C20 25.8761 20.2238 26.4166 20.6224 26.8151C21.0209 27.2137 21.5614 27.4375 22.125 27.4375C22.4067 27.4375 22.677 27.5495 22.8763 27.7487C23.0755 27.948 23.1875 28.2183 23.1875 28.5Z" fill="white"/>
<path d="M32.75 21.0625C32.75 21.3442 32.638 21.6145 32.4388 21.8138C32.2395 22.013 31.9692 22.125 31.6875 22.125C30.5603 22.125 29.4793 22.5728 28.6824 23.3699C27.8853 24.1668 27.4375 25.2478 27.4375 26.375C27.4375 26.6567 27.3255 26.927 27.1263 27.1263C26.927 27.3255 26.6567 27.4375 26.375 27.4375C26.0933 27.4375 25.823 27.3255 25.6237 27.1263C25.4245 26.927 25.3125 26.6567 25.3125 26.375C25.3125 25.2478 24.8647 24.1668 24.0676 23.3699C23.2707 22.5728 22.1897 22.125 21.0625 22.125C20.7808 22.125 20.5105 22.013 20.3112 21.8138C20.112 21.6145 20 21.3442 20 21.0625C20 20.7808 20.112 20.5105 20.3112 20.3112C20.5105 20.112 20.7808 20 21.0625 20C22.1897 20 23.2707 19.5522 24.0676 18.7553C24.8647 17.9582 25.3125 16.8772 25.3125 15.75C25.3125 15.4683 25.4245 15.198 25.6237 14.9987C25.823 14.7995 26.0933 14.6875 26.375 14.6875C26.6567 14.6875 26.927 14.7995 27.1263 14.9987C27.3255 15.198 27.4375 15.4683 27.4375 15.75C27.4375 16.8772 27.8853 17.9582 28.6824 18.7553C29.4793 19.5522 30.5603 20 31.6875 20C31.9692 20 32.2395 20.112 32.4388 20.3112C32.638 20.5105 32.75 20.7808 32.75 21.0625Z" fill="white"/>
</g>
<defs>
<linearGradient id="paint0_linear_5178_2008" x1="0" y1="20" x2="40" y2="20" gradientUnits="userSpaceOnUse">
<stop stop-color="#7042E6"/>
<stop offset="1" stop-color="#DA5BC5"/>
</linearGradient>
<clipPath id="clip0_5178_2008">
<rect width="40" height="40" fill="white"/>
</clipPath>
</defs>
</svg>
