<svg width="20" height="20" viewBox="0 0 20 20" fill="none" xmlns="http://www.w3.org/2000/svg">
<path fill-rule="evenodd" clip-rule="evenodd" d="M19.293 17.879C19.6834 18.2694 19.6834 18.9026 19.293 19.293C18.9025 19.6835 18.2695 19.6835 17.879 19.2931L14.343 15.758L15.757 14.343L19.293 17.879ZM8 14C4.692 14 2 11.309 2 8C2 4.692 4.692 2 8 2C11.308 2 14 4.692 14 8C14 11.309 11.308 14 8 14ZM8 0C3.582 0 0 3.582 0 8C0 12.418 3.582 16 8 16C12.418 16 16 12.418 16 8C16 3.582 12.418 0 8 0Z" fill="currentColor"/>
</svg>
