<svg width="24" height="24" viewBox="0 0 24 24" fill="none" xmlns="http://www.w3.org/2000/svg">
<path fill-rule="evenodd" clip-rule="evenodd" d="M19.4545 8.88889C20.3081 8.88889 21 9.58533 21 10.4444L20.9816 10.6132L19.4514 17.5439C19.4005 18.3567 18.7294 19 17.9091 19H5.54545C4.69192 19 4 18.3036 4 17.4444V6.55556C4 5.69645 4.69192 5 5.54545 5H10.1818C11.0473 5 11.5982 5.3698 12.1515 6.07244C12.1884 6.11933 12.3533 6.33458 12.3937 6.38508C12.5152 6.53669 12.54 6.55535 12.5014 6.55556H17.9091C18.7626 6.55556 19.4545 7.252 19.4545 8.11111V8.88889ZM17.9091 8.88889V8.11111L12.4959 8.1111C11.9409 8.10811 11.5794 7.8466 11.1909 7.36175C11.1372 7.29484 10.9668 7.07231 10.9403 7.03868C10.6509 6.67111 10.4787 6.55556 10.1818 6.55556H5.54545V10.36L5.56796 10.2581C5.78515 9.37224 6.18944 8.88889 7.09091 8.88889H17.9091ZM5.5643 17.4444H17.9091L17.9275 17.2757L19.4357 10.4444H7.11896C7.10689 10.483 7.09085 10.5388 7.07251 10.6132L5.5643 17.4444Z" fill="#1ABDFF"/>
</svg>
