<svg width="18" height="18" viewBox="0 0 18 18" xmlns="http://www.w3.org/2000/svg">
    <path
        d="M16.8458 4.00008L13.9998 1.15416C13.9065 1.06077 13.7814 1.0059 13.6494 1.00045C13.5175 0.995002 13.3883 1.03937 13.2875 1.12475L5.34729 7.85211L10.148 12.6527L16.8752 4.71245C16.9606 4.61169 17.0049 4.48249 16.9996 4.35053C16.9941 4.21856 16.9392 4.09347 16.8458 4.00008Z"
    />
    <path d="M4.55085 8.54596L3.38678 9.71008L8.29008 14.6134L9.4542 13.4493L4.55085 8.54596Z"
    />
    <path
        d="M2.51984 13.5665L4.43401 15.4807C5.17751 15.0389 6.06564 14.8554 6.96923 14.7827L3.21789 11.0312C3.14518 11.9349 2.96167 12.823 2.51984 13.5665Z"
    />
    <path
        d="M1.07726 15.1673C1.03857 15.206 1.01287 15.2557 1.00372 15.3097C0.994567 15.3636 1.0024 15.419 1.02615 15.4684L1.92425 17.3343C1.94253 17.3722 1.96965 17.4053 2.00332 17.4306C2.037 17.456 2.07625 17.4728 2.11779 17.48C2.15934 17.487 2.20198 17.484 2.24214 17.4712C2.2823 17.4584 2.3188 17.4362 2.3486 17.4064L3.6094 16.1456L1.85419 14.3904L1.07726 15.1673Z"
    />
</svg>