<svg width="18" height="18" viewBox="0 0 18 18" xmlns="http://www.w3.org/2000/svg">
    <path
        d="M1 16.3306C1 16.4851 1.05149 16.6396 1.20595 16.794C1.30893 16.897 1.4634 17 1.66935 17C1.66935 17 5.89139 15.9702 5.99437 15.8673L16.8069 5.00322C17.0644 4.74578 17.0644 4.38535 16.8069 4.12791L13.8721 1.19308C13.6146 0.93564 13.2542 0.93564 12.9968 1.19308L10.9887 3.25261L2.13274 12.0056C2.02977 12.1086 1 16.3306 1 16.3306ZM13.4087 2.48029L15.4682 4.53983L14.3355 5.67257L12.2759 3.61303L13.4087 2.48029ZM3.214 12.7265L11.4006 4.53983L13.4602 6.59936L5.27353 14.7345L2.23572 15.7128L3.214 12.7265Z"
    />
</svg>